/* XPM */
static char *_de8fa9b61c0414fa5a415552292d34eE05IaC3LZ2oqyFBa[] = {
/* columns rows colors chars-per-pixel */
"64 64 187 2 ",
"   c black",
".  c #101313",
"X  c #171313",
"o  c #151416",
"O  c #1A191A",
"+  c #0A2625",
"@  c #0D312F",
"#  c #133B38",
"$  c #222121",
"%  c gray14",
"&  c #2A292A",
"*  c #2E3538",
"=  c #3E3B3B",
"-  c #4A0016",
";  c #5E001C",
":  c #690020",
">  c #77782A",
",  c #194B48",
"<  c #175754",
"1  c #284A48",
"2  c #294E4C",
"3  c #3F4246",
"4  c #196777",
"5  c #1C7772",
"6  c #206C67",
"7  c #346462",
"8  c #36726E",
"9  c #367F7B",
"0  c #444242",
"q  c gray30",
"w  c #555357",
"e  c #634B5E",
"r  c #625E5E",
"t  c #605E61",
"y  c #44666E",
"u  c #506868",
"i  c #51706E",
"p  c #850029",
"a  c #A80032",
"s  c #C7003C",
"d  c #CF003F",
"f  c #EE004A",
"g  c #824B68",
"h  c #888835",
"j  c #FBF233",
"k  c #B9B350",
"l  c #94887D",
"z  c #1C7D8E",
"x  c #287785",
"c  c #567B84",
"v  c #2C8681",
"b  c #3B8F8A",
"n  c #2C948E",
"m  c #3C918C",
"M  c #3F958F",
"N  c #2E8E9F",
"B  c #2A9892",
"V  c #289E97",
"C  c #30A29C",
"Z  c #2394A8",
"A  c #3CA8A1",
"S  c #38B2AA",
"D  c #40948F",
"F  c #419590",
"G  c #479692",
"H  c #429994",
"J  c #469994",
"K  c #479F9A",
"L  c #668585",
"P  c #7A9C9D",
"I  c #41A39D",
"U  c #43A49E",
"Y  c #789DA4",
"T  c #49A5A0",
"R  c #46A8A2",
"E  c #57AAA6",
"W  c #51AEA8",
"Q  c #5CAEAA",
"!  c #41B2AB",
"~  c #4EB0AA",
"^  c #5DB2AE",
"/  c #4CBEB7",
"(  c #5DB7B2",
")  c #53BAB3",
"_  c #57BCB5",
"`  c #70ABAA",
"'  c #63B6B1",
"]  c #69B3B0",
"[  c #63B8B4",
"{  c #6BBAB5",
"}  c #64BEB9",
"|  c #72B9B7",
" . c #57C3BC",
".. c #59C1BA",
"X. c #67C1BC",
"o. c #6AC5BF",
"O. c #79C0BD",
"+. c #30AFC5",
"@. c #00B7EF",
"#. c #41BDD4",
"$. c #55C9C1",
"%. c #5ECBC4",
"&. c #5CCDC5",
"*. c #5CCFC8",
"=. c #63C6C1",
"-. c #60CBC4",
";. c #63CFC8",
":. c #6ECDC8",
">. c #79C6C3",
",. c #77CAC7",
"<. c #67D4CD",
"1. c #6BD0CA",
"2. c #6BD6D0",
"3. c #6FDCD5",
"4. c #7ED3D0",
"5. c #7FD5D2",
"6. c #73D8D2",
"7. c #73D9D4",
"8. c #79D9D4",
"9. c #7CDFDA",
"0. c #79E6DF",
"q. c #57CFE6",
"w. c #8F8780",
"e. c #8E8686",
"r. c #9E8E81",
"t. c #969494",
"y. c #AE9E91",
"u. c #A39E99",
"i. c #85AA9B",
"p. c #A8A19A",
"a. c #BFAC9D",
"s. c #85AEA2",
"d. c #89B5AD",
"f. c #9DB9AB",
"g. c #B1ACAC",
"h. c #BAB3B3",
"j. c #D4B79C",
"k. c #C7B5A5",
"l. c #C2B8B8",
"z. c #A2C2B9",
"x. c #E3CAB3",
"c. c #EBD0B7",
"v. c #F5D9BE",
"b. c #8EB8C0",
"n. c #80CFCC",
"m. c #85D4CF",
"M. c #8DD8D3",
"N. c #80DDD8",
"B. c #84DFDB",
"V. c #8BDAD8",
"C. c #92DAD8",
"Z. c #9ADEDC",
"A. c #9DDFDC",
"S. c #87E2DC",
"D. c #8BE1DC",
"F. c #93E2DD",
"G. c #88D4E3",
"H. c #8BE7E1",
"J. c #80EAE3",
"K. c #88EDE7",
"L. c #8AEEE8",
"P. c #9BE8E4",
"I. c #91F2EC",
"U. c #9CF4EF",
"Y. c #9CF6F1",
"T. c #A6E7E3",
"R. c #AAE4E1",
"E. c #AFEFEB",
"W. c #B6EDED",
"Q. c #A7F2EF",
"!. c #B0F1EF",
"~. c #A3F6F2",
"^. c #A9F6F2",
"/. c #B0FAF6",
"(. c #B8FFFB",
"). c #CADED4",
"_. c #EFDBC9",
"`. c #F1D7D0",
"'. c #F9D7D2",
"]. c #F4DCD3",
"[. c #FADDD7",
"{. c #D2E4D8",
"}. c #F6E1CC",
"|. c #F9E4D0",
" X c #FAE8D7",
".X c #D3F3EA",
"XX c #FFF1E5",
/* pixels */
"W.W.W.W.W.W.W.W.W.W.W.W.W.W.W.W.W.W.W.W.W.W.W.W.W.W.W.W.W.W.W.W.W.W.W.W.W.W.W.W.W.W.W.W.W.W.W.W.W.W.W.W.W.W.W.W.W.W.W.W.W.W.W.W.",
"W.W.W.W.W.W.W.W.W.W.W.W.W.W.W.W.W.W.W.W.W.W.W.W.W.W.W.W.W.W.W.W.W.W.W.W.W.W.W.W.W.W.W.W.W.W.W.W.W.W.W.W.W.W.W.W.W.W.W.W.W.W.W.W.",
"W.W.W.W.W.W.W.W.W.W.W.W.W.W.W.W.W.W.W.W.W.W.W.W.W.W.W.W.W.W.W.W.W.W.W.W.W.W.W.W.W.W.W.W.W.W.W.W.W.W.W.W.W.W.W.W.W.W.W.W.W.W.W.W.",
"W.W.W.W.W.W.W.W.W.W.W.W.W.W.W.W.W.W.W.W.W.W.W.W.W.W.W.W.W.W.W.W.W.W.W.W.W.W.W.W.W.W.W.W.W.W.W.W.W.W.W.W.W.W.W.W.W.W.W.W.W.W.W.W.",
"W.W.W.W.W.W.W.W.W.W.W.W.W.W.W.W.W.W.W.W.W.W.W.W.W.W.W.W.W.W.W.W.W.W.W.W.W.W.W.W.W.W.W.W.W.W.W.W.W.W.W.W.W.W.W.W.W.W.W.W.W.W.W.W.",
"W.W.W.W.W.W.W.W.W.W.W.W.W.W.W.W.W.W.W.W.W.W.W.W.W.W.W.W.W.W.W.W.W.W.W.W.W.W.W.W.W.W.W.W.W.W.W.W.W.W.W.W.W.W.W.W.W.W.W.W.W.W.W.W.",
"W.W.W.W.W.W.W.W.W.W.W.W.W.W.W.W.W.W.W.W.L L L L W.W.W.W.W.W.W.W.W.W.W.W.W.W.L L L W.W.W.W.W.W.W.W.W.W.W.W.W.W.W.W.W.W.W.W.W.W.W.",
"W.W.W.W.W.W.W.W.W.W.W.W.W.W.W.W.W.W.W.L     -   W.W.W.W.W.W.W.W.W.W.W.W.W.W.  -   L W.W.W.W.W.W.W.W.W.W.W.W.W.W.W.W.W.W.W.W.W.W.",
"W.W.W.W.W.W.W.W.W.W.W.W.W.W.W.W.W.W.L   : : ;   W.W.W.W.W.W.W.W.W.W.W.W.W.W.  ; :   L W.W.W.W.W.W.W.W.W.W.W.W.W.W.W.W.W.W.W.W.W.",
"W.W.W.W.W.W.W.W.W.W.W.W.W.W.W.W.W.W.  - p p     W.O.O.O.O.O.O.O.O.O.O.O.O.W.    p -   W.W.W.W.W.W.W.W.W.W.W.W.W.W.W.W.W.W.W.W.W.",
"W.W.W.W.W.W.W.W.W.W.W.W.W.W.W.` ` `   a   +     O.H H H m m m m m m H H H O.      a   L ` ` ` W.W.W.W.W.W.W.W.W.W.W.W.W.W.W.W.W.",
"W.W.W.W.W.W.W.W.W.W.W.W.W.W.| 9 9 @ : ; + < + # H ^ E E ^ ^ ^ ^ ^ ^ } } } H #   u ; : : @ 9 9 | W.W.W.W.W.W.W.W.W.W.W.W.W.W.W.W.",
"W.W.W.W.W.W.W.W.W.W.W.W.W.| 5 ^ 7 : p 2 6 6 6 F Q E ^ ^ :.:.:.:.:.:.:.:.:.} H 1 O.  p p : 7 ^ 5 | W.W.W.W.W.W.W.W.W.W.W.W.W.W.W.",
"W.W.W.W.W.W.W.W.W.W.W.W.W.5 M ^   d   ^ v v F J J D X.:.:.:.:.:.:.:.:.:.:.:.} [ H 1     d   ^ M M | W.W.W.W.W.W.W.W.W.W.W.W.W.W.",
"W.W.W.W.W.W.W.W.W.W.W.W.>.M { ^   a   K b b J T T T } :.:.:.:.:.:.:.:.:.:.:.:.:.} J 1 1 ;   ' { { M >.W.W.W.W.W.W.W.W.W.W.W.W.W.",
"W.W.W.W.W.W.W.W.W.W.W.W.n M.{ ^   ; # b b b T :.:.:.:.:.1.1.1.:.:.:.:.1.1.1.:.:.:.T J J #   { { { M.n W.W.W.W.W.W.W.W.W.W.W.W.W.",
"W.W.W.W.W.W.W.W.W.W.W.W.n (.{ ^     v G v v A.:.:.:.:.:.<.<.<.:.:.:.:.<.<.<.:.:.:.A.v v v   { { { (.n W.W.W.W.W.W.W.W.W.W.W.W.W.",
"W.W.W.W.W.W.W.W.W.W.W.W.n D.M.m.i # b G v v R.A.A.A.A.1.<.3.3.1.1.A.A.<.<.<.A.A.W E.~ ~ v # M.M.M.D.n W.W.W.W.W.W.W.W.W.W.W.W.W.",
"W.W.W.W.W.W.W.W.W.W.W.W.n ) D.D.D.v G b T T :.T.T.E.E.3.3._ 0.3.3.E.E.3.<.<.T.T.R _ _ _ ~ v D.D.D.) n W.W.W.W.W.W.W.W.W.W.W.W.W.",
"W.W.W.W.W.W.W.W.W.W.W.W.n ) ) ) ) v G v :.:.:.<.<.0.0.0._ v _ 0.0.0.0.0.3.3.3.<.<.v T T _ ~ I ) ) ) n W.W.W.W.W.W.W.W.W.W.W.W.W.",
"W.W.W.W.W.W.W.W.W.W.W.W.n ..) ) ) v b T :.:.1.<.3.0._ _ s.s.v 0.0.K.K._ _ K.0.3.<.T W :.v _ v I I ..n W.W.W.W.W.W.W.W.W.W.W.W.W.",
"W.W.W.W.W.W.W.W.W.W.W.W.B -.......v v :.:.1.<.3.0._ s.s.}.}.v K.K.Y.o.s.v o.K.K.3.:.v W T v U U U -.B W.W.W.W.W.W.W.W.W.W.W.W.W.",
"W.W.W.W.W.W.W.W.W.W.W.W.V -.-.8 8 v v :.1.<.3.K._ s.}.}.}.}.v Y.Y.o.s.}.s.s.o.Y.K.6.~ v :.v -.-.-.-.V W.W.W.W.W.W.W.W.W.W.W.W.W.",
"W.W.W.W.W.W.W.W.W.W.W.W.V -.-.  - v v 1.<.3.0.Y.v }.}.}.}.f.v Y.Y.v }.}.}.}.v o.Y.0.0.v :.v -.-.-.-.V W.W.W.W.W.W.W.W.W.W.W.W.W.",
"W.W.W.W.W.W.W.W.W.W.W.W.V -.8 - s v v <.3.0.0.Y.v }.}.}.}.v ( o.o.s.}.}.}.}., s.o.0.0.v N.v -.-.-.-.V W.W.W.W.W.W.W.W.W.W.W.W.W.",
"W.W.W.W.W.W.W.W.W.W.W.,.! -.  a f g v 3.0.0.K.o.v }.    # v o.s.s.}. X      }. Xv 0.0.v Y.v -.;.;.-.! ,.W.W.W.W.W.W.W.W.W.W.W.W.",
"W.W.W.W.W.W.W.W.W.W.W.V S.S.  a f f v 0.0.K.Y.( d.      , d.s. X X XXX        XXv K.0.~ o.R ;.<.<.S.S.V W.W.W.W.W.W.W.W.W.W.W.W.",
"W.W.W.W.W.W.W.W.W.W.W.V U.U.  ; d f v 0.K.Y.Y.o.XXXXXXXXXXXX XXXXXXXXXXXXXXXXXXXv Y.K.0.v <.<.H.H.U.U.V W.W.W.W.W.W.W.W.W.W.W.W.",
"W.W.W.W.W.W.W.W.W.W.,.V 0.0.7   a d e _ Y.Y.Y.v [.[.[.XXXXXXXXXXXXXXXXXXXX[.[.[.v Y.Y._ { <.3.U.U.0.0.V W.W.W.W.W.W.W.W.W.W.W.W.",
"W.W.W.W.W.W.W.W.W.,.V / 0.0.0.  ; ; ; v Y.Y.Y.v '.'.'.XXXXXXXXXXXXXXXXXXXX'.'.'.v Y.Y.v (.<.0.0.0.0.0.V ,.W.W.W.W.W.W.W.W.W.W.W.",
"W.W.W.W.W.W.W.W.,.V / %.0.0.0.7 7 7 7 v o.Y.Y.v XXXXXXXXXXXXXX].].XXXXXXXXXXXXXXv Y.Y.v U.3.0.0.0.0.%./ V ,.,.W.W.W.W.W.W.W.W.W.",
"W.W.W.W.W.W.n.n.C C %.A 0.0.0.0.0.0.*.] v Y.o.v w.XXXXXXp.p.XX`.`.XXXXXXXXXXXXz.v Y.o.] *.0.0.0.0.0.A %.C C n.n.n.W.W.W.W.W.W.W.",
"W.W.W.W.W.W.W.W.W.W.4. .0.0.0.0.0.0.*.] ] o.o.] u w.w.w.$ $ |.|.|.|.|.|.|.|.z..Xv o.Q.] *.0.0.0.0.0. .0.4.W.W.W.W.W.W.W.W.W.W.W.",
"W.W.W.W.W.W.W.W.W.W.4.$.0.0.0.0.0.0.S W.W.] v W.W.u o o     k.r.r.k.k.a.r.r.v v ] ] W.W.S 0.0.0.0.0.0.$.4.W.W.W.W.W.W.W.W.W.W.W.",
"W.W.W.W.W.W.W.W.W.W.4.&.J.J.J.0.0.0.S W.W.W.W.] W.{.{.w & = t 4 4 t e.t w i.v W.W.W.W.W.S 0.J.J.J.J.J.&.4.W.W.W.W.W.W.W.W.W.W.W.",
"W.W.W.W.W.W.W.W.W.W.4.&.L.0.0.J.J.S W.W.W.W.W.W.).|.v.w t.t t #.#.t t t.w c._.).W.W.W.W.W.S 0.0.0.L.L.&.4.W.W.W.W.W.W.W.W.W.W.W.",
"W.W.W.W.W.W.W.W.W.W.4.&.L.0.0.J.J.S W.W.W.W.W.P x.XXv.w t.h.t #.#.t h.t.w v.XXx.P W.W.W.W.S 0.0.0.L.L.&.4.W.W.W.W.W.W.W.W.W.W.W.",
"W.W.W.W.W.W.W.W.W.4.S &.L.L.L.L.L.S W.W.W.W.P * l XXy.w t.h.x #.#.x h.t.w y.XXl * P W.W.W.S L.L.L.L.L.&.4.W.W.W.W.W.W.W.W.W.W.W.",
"W.W.W.W.W.W.W.W.V.2.L.L.L.L.L.L.L.S W.W.W.P > y * u.w t.t.g.x #.#.x g.t.t.w u.* y > P W.W.S L.L.L.L.L.L.2.V.W.W.W.W.W.W.W.W.W.W.",
"W.W.W.W.W.W.W.W.V.2.L.L.I.I.I. . .S W.W.P > k Y c 3 t.t.g.l.N q.    h.g.t.t.3 c Y k > P W.S  .I.I.I.I.L.2.V.W.W.W.W.W.W.W.W.W.W.",
"W.W.W.W.W.W.W.W.V.7.I.I.I.I.Y. .W.W.W.O j         w t.t.g.h.N q.q.N h.g.t.t.w b.    k h P W. .Y.Y.I.I.I.7.V.W.W.W.W.W.W.W.W.W.W.",
"W.W.W.W.W.W.W.W.V.7.I.Y.Y.Y.Y. .W.W.O @.% % %   w t.g.g.h.h.N q.    h.h.g.g.t.w   q % % @.O  .Y.Y.Y.Y.I.7.V.W.W.W.W.W.W.W.W.W.W.",
"W.W.W.W.W.W.W.V.V.7.Y.Y.Y.Y.Y. .W.W.O G.@.% % % w t.g.g.h.h.N q.q.N h.h.g.g.t.w % % % @.G.O  .Y.Y.Y.Y.Y.7.V.V.V.W.W.W.W.W.W.W.W.",
"W.W.W.W.W.W.W.V.8.^.^.~.~.^. . .W.W.W.O G.@.@.w t.t.g.g.h.h.h.N N h.h.h.g.g.t.t.w @.@.G.O W. . .^.^.~.~.^.8.!.V.W.W.W.W.W.W.W.W.",
"W.W.W.W.W.W.W.V.8.^.^.^.Y.^. .5.W.W.W.W.O O O w w w w w w w w h.h.w w w w w w w w O O O W.W.5. .^.^.Y.^.^.^.8.V.W.W.W.W.W.W.W.W.",
"W.W.W.W.W.W.W.V.N.^.^././.B. .W.W.W.W.W.v.XXO O   * . X   * . X X * . X   * .   * * XXv.W.W.W. .B.9././.^./.N.V.W.W.W.W.W.W.W.W.",
"W.W.W.W.W.W.W.V.N./././.(. .5.W.W.W.W.W.v.v.XXXX  +.Z X   +.Z X X +.Z X   +.Z   XXXXv.v.W.W.W.5.5. ././././.N.V.W.W.W.W.W.W.W.W.",
"W.W.W.W.W.W.W.V.=././.(.(. .W.W.W.W.W.W.W.W.v.v.                                v.v.W.W.W.W.W.W.W. .(.(.(./.=.V.W.W.W.W.W.W.W.W.",
"W.W.W.W.W.W.W.W.=.F.(.(.(. .W.W.W.W.W.W.W.W.W.W.W.x.XXXXXX}.j.W.W.x.XXXX}.}.j.W.W.W.W.W.W.W.W.W.W. .(.(.(.F.=.W.W.W.W.W.W.W.W.W.",
"W.W.W.W.W.W.W.W.Z.F.(.(.(. .W.W.W.W.W.W.W.W.W.W.W.x.XXXXXX}.j.W.W.x.XXXX}.}.j.W.W.W.W.W.W.W.W.W.W. .(.(.(.F.Z.W.W.W.W.W.W.W.W.W.",
"W.W.W.W.W.W.W.W.Z.,.P.(.(.=.Z.W.W.W.W.W.W.W.W.W.W.            W.W.            W.W.W.W.W.W.W.W.Z.Z.=.(.(.P.,.Z.W.W.W.W.W.W.W.W.W.",
"W.W.W.W.W.W.W.W.W.C.C.,.P.F.,.Z.Z.W.W.W.W.W.W.W.W.$ r r r 0   W.W.$ r r 0 0   W.W.W.W.W.W.W.Z.,.,.(.P.,.C.C.W.W.W.W.W.W.W.W.W.W.",
"W.W.W.W.W.W.W.W.W.W.W.W.,.P.,.,.,.Z.Z.W.W.W.W.W.W.$ $ $ $     W.W.$ $ $       W.W.W.W.W.Z.Z.,.,.,.,.,.W.W.W.W.W.W.W.W.W.W.W.W.W.",
"W.W.W.W.W.W.W.W.W.W.W.W.W.C.C.,.,.,.,.Z.W.W.W.W.W.$ +.+.+.z   W.W.$ +.+.z z   W.W.W.Z.Z.,.,.,.C.C.C.W.W.W.W.W.W.W.W.W.W.W.W.W.W.",
"W.W.W.W.W.W.W.W.W.W.W.W.W.W.W.C.C.C.C.C.W.W.W.W.W.$ $ $ $     W.W.$ $ $       W.W.W.C.C.C.C.C.W.W.W.W.W.W.W.W.W.W.W.W.W.W.W.W.W.",
"W.W.W.W.W.W.W.W.W.W.W.W.W.W.W.W.W.W.W.W.W.W.W.W.W.W.$ $ $   W.W.W.W.$ $     W.W.W.W.W.W.W.W.W.W.W.W.W.W.W.W.W.W.W.W.W.W.W.W.W.W.",
"W.W.W.W.W.W.W.W.W.W.W.W.W.W.W.W.W.W.W.W.W.W.W.W.W.W.W.W.W.W.W.W.W.W.W.W.W.W.W.W.W.W.W.W.W.W.W.W.W.W.W.W.W.W.W.W.W.W.W.W.W.W.W.W.",
"W.W.W.W.W.W.W.W.W.W.W.W.W.W.W.W.W.W.W.W.W.W.W.W.W.W.W.W.W.W.W.W.W.W.W.W.W.W.W.W.W.W.W.W.W.W.W.W.W.W.W.W.W.W.W.W.W.W.W.W.W.W.W.W.",
"W.W.W.W.W.W.W.W.W.W.W.W.W.W.W.W.W.W.W.W.W.W.W.W.W.W.W.W.W.W.W.W.W.W.W.W.W.W.W.W.W.W.W.W.W.W.W.W.W.W.W.W.W.W.W.W.W.W.W.W.W.W.W.W.",
"W.W.W.W.W.W.W.W.W.W.W.W.W.W.W.W.W.W.W.W.W.W.W.W.W.W.W.W.W.W.W.W.W.W.W.W.W.W.W.W.W.W.W.W.W.W.W.W.W.W.W.W.W.W.W.W.W.W.W.W.W.W.W.W.",
"W.W.W.W.W.W.W.W.W.W.W.W.W.W.W.W.W.W.W.W.W.W.W.W.W.W.W.W.W.W.W.W.W.W.W.W.W.W.W.W.W.W.W.W.W.W.W.W.W.W.W.W.W.W.W.W.W.W.W.W.W.W.W.W.",
"W.W.W.W.W.W.W.W.W.W.W.W.W.W.W.W.W.W.W.W.W.W.W.W.W.W.W.W.W.W.W.W.W.W.W.W.W.W.W.W.W.W.W.W.W.W.W.W.W.W.W.W.W.W.W.W.W.W.W.W.W.W.W.W.",
"W.W.W.W.W.W.W.W.W.W.W.W.W.W.W.W.W.W.W.W.W.W.W.W.W.W.W.W.W.W.W.W.W.W.W.W.W.W.W.W.W.W.W.W.W.W.W.W.W.W.W.W.W.W.W.W.W.W.W.W.W.W.W.W.",
"W.W.W.W.W.W.W.W.W.W.W.W.W.W.W.W.W.W.W.W.W.W.W.W.W.W.W.W.W.W.W.W.W.W.W.W.W.W.W.W.W.W.W.W.W.W.W.W.W.W.W.W.W.W.W.W.W.W.W.W.W.W.W.W."
};
