/* XPM */
static char *result[] = {
/* columns rows colors chars-per-pixel */
"64 64 63 1 ",
"  c black",
". c #0A0000",
"X c #171A1A",
"o c #1D1A1A",
"O c gray11",
"+ c #272626",
"@ c #343235",
"# c #32393B",
"$ c #1C4F4C",
"% c #1D5855",
"& c #315C59",
"* c #237671",
"= c #575458",
"- c #7C7A7D",
"; c #A70035",
": c #ED004B",
"> c #827D7D",
", c #237C8D",
"< c #318580",
"1 c #3A8781",
"2 c #31938D",
"3 c #2C9D96",
"4 c #2993A7",
"5 c #3EA7A0",
"6 c #3BB1A9",
"7 c #499591",
"8 c #429993",
"9 c #519E9A",
"0 c #47A8A0",
"q c #5BA7A3",
"w c #5DB1AC",
"e c #5CB5AF",
"r c #54B9B2",
"t c #63ADA7",
"y c #60A3B0",
"u c #6BB9B4",
"i c #55C1BC",
"p c #34ADC4",
"a c #00B7EF",
"s c #60CAC3",
"d c #6FCCC7",
"f c #75CAC6",
"g c #74CCC6",
"h c #68D3CC",
"j c #78E5DE",
"k c #959393",
"l c #B0AAAA",
"z c #B9B2B2",
"x c #D3B69B",
"c c #C2B3A7",
"v c #C1B7B7",
"b c #E2C9B2",
"n c #F5D8BD",
"m c #86E3DD",
"M c #87D3E2",
"N c #8EE8E2",
"B c #89EDE7",
"V c #9BF6F1",
"C c #B6EDED",
"Z c #A8F6F2",
"A c #B7FFFB",
"S c #F6E0CB",
"D c #FFF1E4",
/* pixels */
"CCCCCCCCCCCCCCCCCCCCCCCCCCCCCCCCCCCCCCCCCCCCCCCCCCCCCCCCCCCCCCCC",
"CCCCCCCCCCCCCCCCCCCCCCCCCCCCCCCCCCCCCCCCCCCCCCCCCCCCCCCCCCCCCCCC",
"CCCCCCCCCCCCCCCCCCCCCCCCCCCCCCCCCCCCCCCCCCCCCCCCCCCCCCCCCCCCCCCC",
"CCCCCCCCCCCCCCCCCCCCCCCCCCCCCCCCCCCCCCCCCCCCCCCCCCCCCCCCCCCCCCCC",
"CCCCCCCCCCCCCCCCCCCCCCCCCCCCCCCCCCCCCCCCCCCCCCCCCCCCCCCCCCCCCCCC",
"CCCCCCCCCCCCCCCCCCCCCCCCCCCCCCCCCCCCCCCCCCCCCCCCCCCCCCCCCCCCCCCC",
"CCCCCCCCCCCCCCCCCCCC    CCCCCCCCCCCCCC   CCCCCCCCCCCCCCCCCCCCCCC",
"CCCCCCCCCCCCCCCCCCC   ; CCCCCCCCCCCCCC ;  CCCCCCCCCCCCCCCCCCCCCC",
"CCCCCCCCCCCCCCCCCC  ::  CCCCCCCCCCCCCC  :  CCCCCCCCCCCCCCCCCCCCC",
"CCCCCCCCCCCCCCCCCC ;    C<<<<<<<<<<<<C   ; CCCCCCCCCCCCCCCCCCCCC",
"CCCCCCCCCCCCCCC%%% ; %  <www999199www<   ;  %%%CCCCCCCCCCCCCCCCC",
"CCCCCCCCCCCCCC*ww : %%%<eeeeeee1deeeew< C :: ww*CCCCCCCCCCCCCCCC",
"CCCCCCCCCCCCC**w : w<deeedddddt1tdddeewq<   : w**CCCCCCCCCCCCCCC",
"CCCCCCCCCCCCC*uw ; wdeddddddttd1dttddeee<q  ; wuu*CCCCCCCCCCCCCC",
"CCCCCCCCCCCC2uuw ; <eedddddtddd1ddhtdddee<<q  uuuu2CCCCCCCCCCCCC",
"CCCCCCCCCCCC2uuwA <7edddddddhhh1dddhhdddee<<< Auuu2CCCCCCCCCCCCC",
"CCCCCCCCCCCC2uwuA <eedddddddhtt8ttdddddddee<< Auuu2CCCCCCCCCCCCC",
"CCCCCCCCCCCC2AAAu<7eeddddddVtmm8mVtVddddddee<$uAAA2CCCCCCCCCCCCC",
"CCCCCCCCCCCC2rrrr<7edddddVVVNmm8mmNVVVddddde<$rrrr2CCCCCCCCCCCCC",
"CCCCCCCCCCCC2rrrr<7eddddVVVVNmm0mmNVVVVddddd<<$rrr2CCCCCCCCCCCCC",
"CCCCCCCCCCCC2srrr<<ddddVVVVNNmt0tmNNNVVVdddd<<$$$s2CCCCCCCCCCCCC",
"CCCCCCCCCCCC3ssss<<dddVVVVVNNtm0mtNNVVVVVdddd<ssss3CCCCCCCCCCCCC",
"CCCCCCCCCCCC3ss  <<dddVVVVVNNmm0mmNNVVVVVVddd<  ss3CCCCCCCCCCCCC",
"CCCCCCCCCCCC3ss ;<<hdVVVVVVNNmm0mmNNVVVVVVVdd<; ss3CCCCCCCCCCCCC",
"CCCCCCCCCCCC3s ;:<<hdVVVVVVNNmm8mmNNVVVVVVVdd<:; s3CCCCCCCCCCCCC",
"CCCCCCCCCCCC3s ;::<<VVVVVVNNNtm8mtNNVVVVVVVVV::; ss3CCCCCCCCCCCC",
"CCCCCCCCCCCC3A ;::$<VVVVVVVVNmt8tmNVVVVVVVjj<::; AA3CCCCCCCCCCCC",
"CCCCCCCCCCCC3j  ;:$<<gVVVVVVNmm1mmNVVVVVVggj<:;  jj3CCCCCCCCCCCC",
"CCCCCCCCCCCC3jj ;;;$<ggVVVVVtmm1mmtVVVVVgg<<;;; jjj3CCCCCCCCCCCC",
"CCCCCCCCCCC3jjj    $<<ggVVVVVtm1mtVVVVVgg<<$    jjj3CCCCCCCCCCCC",
"CCCCCCCCCC3j5jjjjjj$&<<gggVVVVt1tVVVVVgg<<&$jjjjjjC333CCCCCCCCCC",
"CCCCCCCC55555jjjjj6C$&$<<gggggg1ggggggg<<&$C6jjjjj55555CCCCCCCCC",
"CCCCCCCCCCC6jjjjjj6CC$$C<<<<<<<<<<<<<<<&$$CC6jjjjjjj6CCCCCCCCCCC",
"CCCCCCCCCCC6jjjjjj6CCC$CCC@@>>>>>>>>@@$$CCCC6jjjjjjj6CCCCCCCCCCC",
"CCCCCCCCCCCC6BBBjj6CCCCCCnn=@@@@@@@@=n$CCCCC6jBBBBBB6CCCCCCCCCCC",
"CCCCCCCCCCCC6BBjBB6CCCCCbDn=kzzz-zzk=nDbCCCCC6jjjBBB6CCCCCCCCCCC",
"CCCCCCCCCCCC6BBjBB6CCCC bDn=kzz-zzzk=nDbOCCCCC6jjjBB6CCCCCCCCCCC",
"CCCCCCCCCCCC6BBBB66CCCC   ==kzzz-zzk=nDOOOCCCC6BBBBB6CCCCCCCCCCC",
"CCCCCCCCCCCiBBBBB6CCCC  My=kklz-zzlkkOOOy CCCC6BBBBBBiCCCCCCCCCC",
"CCCCCCCCCCCiBBVViiCCCC   =kklvzz-zzlkOMM  OCCC6iVVVVBiCCCCCCCCCC",
"CCCCCCCCCCCiVVVViCCCCC   =kklzz-zzzlkO    +OCCCiVVVVViCCCCCCCCCC",
"CCCCCCCCCCCiVVVViCCCCCC =kllzzzz-zzzlO   OOaOCCiVVVVViCCCCCCCCCC",
"CCCCCCCCCCiiVVVViCCCCCCO=kllzzz-zzzzlO  OOaMOCCiVVVVViCCCCCCCCCC",
"CCCCCCCCCCiZZVZZiCCCCCC=kkllzzzz-zzzlOOOOaMOCCCiiZZZZiCCCCCCCCCC",
"CCCCCCCCCCiZZZViCCCCCCC==============OMMMOOCCCCCiZZVZZiCCCCCCCCC",
"CCCCCCCCCCiAZAAiCCCCCCCC.X# oX#ooX#.oOOOOODnCCCCiiiAZAiCCCCCCCCC",
"CCCCCCCCCCiAAAAiCCCCCCCC.4p o4poo4p.o4nDDDnnCCCCCCiAAAACCCCCCCCC",
"CCCCCCCCCCifAAAiCCCCCCCC...............nnnCCCCCCCCiAAAfCCCCCCCCC",
"CCCCCCCCCCCfAAAiCCCCCCCCCxSDDDbCCccccccCCCCCCCCCCCiAAAfCCCCCCCCC",
"CCCCCCCCCCCfAAAiCCCCCCCCCxSDDDbCC      CCCCCCCCCCCCiAfCCCCCCCCCC",
"CCCCCCCCCCCffAAfCCCCCCCCC      CC      CCCCCCCCCCCffAfCCCCCCCCCC",
"CCCCCCCCCCCCCffAffCCCCCCC  ++++CC      CCCCCCCCCCCCfAfCCCCCCCCCC",
"CCCCCCCCCCCCCCfffffCCCCCC  pp++CC      CCCCCCCCCCCfffCCCCCCCCCCC",
"CCCCCCCCCCCCCCCCffffCCCCC ,++p+CCC    CCCCCCCCCCCffCCCCCCCCCCCCC",
"CCCCCCCCCCCCCCCCCCCCCCCCC  ++++CCCCCCCCCCCCCCCCCCCCCCCCCCCCCCCCC",
"CCCCCCCCCCCCCCCCCCCCCCCCCC +++CCCCCCCCCCCCCCCCCCCCCCCCCCCCCCCCCC",
"CCCCCCCCCCCCCCCCCCCCCCCCCCCCCCCCCCCCCCCCCCCCCCCCCCCCCCCCCCCCCCCC",
"CCCCCCCCCCCCCCCCCCCCCCCCCCCCCCCCCCCCCCCCCCCCCCCCCCCCCCCCCCCCCCCC",
"CCCCCCCCCCCCCCCCCCCCCCCCCCCCCCCCCCCCCCCCCCCCCCCCCCCCCCCCCCCCCCCC",
"CCCCCCCCCCCCCCCCCCCCCCCCCCCCCCCCCCCCCCCCCCCCCCCCCCCCCCCCCCCCCCCC",
"CCCCCCCCCCCCCCCCCCCCCCCCCCCCCCCCCCCCCCCCCCCCCCCCCCCCCCCCCCCCCCCC",
"CCCCCCCCCCCCCCCCCCCCCCCCCCCCCCCCCCCCCCCCCCCCCCCCCCCCCCCCCCCCCCCC",
"CCCCCCCCCCCCCCCCCCCCCCCCCCCCCCCCCCCCCCCCCCCCCCCCCCCCCCCCCCCCCCCC",
"CCCCCCCCCCCCCCCCCCCCCCCCCCCCCCCCCCCCCCCCCCCCCCCCCCCCCCCCCCCCCCCC"
};
