/* XPM */
static char *fabf0ce726fc4a7da978890d2c22d3ebvwO2nG6Ww2KHkXbP[] = {
/* columns rows colors chars-per-pixel */
"64 64 83 1 ",
"  c black",
". c gray8",
"X c #1C1B1C",
"o c gray11",
"O c #1E2324",
"+ c #212021",
"@ c gray15",
"# c #312E32",
"$ c #2E3638",
"% c #323033",
"& c #175754",
"* c #1B5C57",
"= c #1C5E5B",
"- c #125966",
"; c #1F6E6A",
": c #216E67",
"> c #257A75",
", c #444242",
"< c #565357",
"1 c #7B7272",
"2 c #8A012D",
"3 c #9C0034",
"4 c #A80032",
"5 c #BA0239",
"6 c #D40446",
"7 c #DB0448",
"8 c #EE004A",
"9 c #F50049",
"0 c #947C66",
"q c #28857E",
"w c #D4CC1B",
"e c #FBF233",
"r c #A68B74",
"t c #1D7D8E",
"y c #2C6083",
"u c #287785",
"i c #2D8681",
"p c #2C9189",
"a c #2F998D",
"s c #2E8E9F",
"d c #309C93",
"f c #35A196",
"g c #3DA89F",
"h c #2494A8",
"j c #3CA8A1",
"k c #38B2AA",
"l c #479692",
"z c #509F9B",
"x c #59A8A3",
"c c #48B5AC",
"v c #5DB2AE",
"b c #4DB8B1",
"n c #51C2BA",
"m c #54C2BD",
"M c #5DC2BB",
"N c #30AFC5",
"B c #00B7EF",
"V c #60CBC4",
"C c #6FCDC8",
"Z c #68D4CD",
"A c #72D4CD",
"S c #7FD4CF",
"D c #70DBD2",
"F c #79E6DF",
"G c #858383",
"H c #969494",
"J c #B1ACAC",
"K c #BAB3B3",
"L c #E6C5A8",
"P c #F2D9BF",
"I c #F5D9BE",
"U c #88D4E3",
"Y c #80E8E1",
"T c #8AEEE8",
"R c #9CF6F1",
"E c #B6EDED",
"W c #A9F6F2",
"Q c #B8FFFB",
"! c #F4C3C3",
"~ c #F6E1CC",
"^ c #D7ECFA",
"/ c #D9F6F5",
"( c #FFF1E5",
/* pixels */
"EEEEEEEEEEEEEEEEEEEEEEEEEEEEEEEEEEEEEEEEEEEEEEEEEEEEEEEEEEEEEEEE",
"EEEEEEEEEEEEEEEEEEEEEEEEEEEEEEEEEEEEEEEEEEEEEEEEEEEEEEEEEEEEEEEE",
"EEEEEEEEEEEEEEEEEEEEEEEEEEEEEEEEEEEEEEEEEEEEEEEEEEEEEEEEEEEEEEEE",
"EEEEEEEEEEEEEEEEEEEEEEEEEEEEEEEEEEEEEEEEEEEEEEEEEEEEEEEEEEEEEEEE",
"EEEEEEEEEEEEEEEEEEEEEEEEEEEEEEEEEEEEEEEEEE EEEEEEEEEEEEEEEEEEEEE",
"EEEEEEEEEEEEEEEEEEEEEEEEEEEEEEEEEEEEEEEEE 8 EEEEEEEEEEEEEEEEEEEE",
"EEEEEEEEEEEEEEEEEEEEEEEEEEEEEEEEEEEEEEEE 7   EEEEEEEEEEEEEEEEEEE",
"EEEEEEEEEEEEEEEEEEEEEEEEEEEEEEEEEEEEEEE 8  2  EEEEEEEEEEEEEEEEEE",
"EEEEEEEEEEEEEEEEEEEEEEEEEEEEEEEEEEEEEE 7  E 2  EEEEEEEEEEEEEEEEE",
"EEEEEEEEEEEEEEEEEEEEEEEEEEiiiiiiiiiii 8  E&&&&  EEEEEEEEEEEEEEEE",
"EEEEEEEEEEEEEEEEEEEEEEEEiiizzzllllll 7  i&aaaa== EEEEEEEEEEEEEEE",
"EEEEEEEEEEEEEEEEEEEEEEEiiCCCCvvvzll 8  C&aaaafff& EEEEEEEEEEEEEE",
"EEEEEEEEEEEEEEEEEEEEEEEiCCCCCCCvvz 8  C&aaaffffg= EEEEEEEEEEEEEE",
"EEEEEEEEEEEEEEEEEEEEEEiiZCCCCCCCCv 2  C=aafffffg;;EEEEEEEEEEEEEE",
"EEEEEEEEEEEEEEEEEEEEEiZZCCCCCCCCCvz 6  =fffffgggQ;EEEEEEEEEEEEEE",
"EEEEEEEEEEEEEEEEEEEEiiZCCCiZCCCCCCvz 6 =fffggggQQb>EEEEEEEEEEEEE",
"EEEEEEEEEEEEEEEEEEEEi/ZZZiFZCCCCCCCvz 6;jggggQQQcc>EEEEEEEEEEEEE",
"EEEEEEEEEEEEEEEEEEEEiZ/ZiRFZZZCCCCCCvl 6;QQQQQcccc>EEEEEEEEEEEEE",
"EEEEEEEEEEEEEEEEEEEiiFZiii/FFZZviCC//z  3;>ccccccnn>EEEEEEEEEEEE",
"EEEEEEEEEEEEEEEEEEEiRFFiiii//FFvi//CCvz  3>ccccnnnnqEEEEEEEEEEEE",
"EEEEEEEEEEEEEEEEEEEiRFiiPPPiRRFvviCCCCvzl >>nnnnnnnqEEEEEEEEEEEE",
"EEEEEEEEEEEEEEEEEEEEiRiP~~~PiiRFviCCCCCCvzlqnnnnnnVVpEEEEEEEEEEE",
"EEEEEEEEEEEEEEEEEEEEiRiP~~~~PPiiiiCC     vlqqnnnVVVVpEEEEEEEEEEE",
"EEEEEEEEEEEEEEEEEEEEiRii~~   ~PPPiC  444  zlppVVVVVVpEEEEEEEEEEE",
"EEEEEEEEEEEEEEEEEEEEEiRi~~  ^ ~PPi  45554  zlpVVVVVVpEEEEEEEEEEE",
"EEEEEEEEEEEEEEEEEEEEEEiii~   ~~~Pi 4589854 zipVVVVVCdEEEEEEEEEEE",
"EEEEEEEEEEEEEEEEEEEEEEI(((   (~~Pi 4589854 CiEdCCCCCdEEEEEEEEEEE",
"EEEEEEEEEEEEEEEEEEEEEEI(((yyy((~ii  45554  iiEdCCCCCdEEEEEEEEEEE",
"EEEEEEEEEEEEEEEEEEEEEEI(((((!!!~iFi  444  iiEEdCCQQdEEEEEEEEEEEE",
"EEEEEEEEEEEEEEEEEEEEEEI(((((((~iFFZi     iiiEEdQQAAjEEEEEEEEEEEE",
"EEEEEEEEEEEEEEEEEEEEEEE (((((~~iRZCCi xiiiiEEjdAAADjEEEEEEEEEEEE",
"EEEEEEEEEEEEEEEEEEEEEEEI      iRRRRi xii:*EEEjAADDDjEEEEEEEEEEEE",
"EEEEEEEEEEEEEEEEEEEEEEEEIIIIIIiRRiixiii::*EEEjDDYYkEEEEEEEEEEEEE",
"EEEEEEEEEEEEEEEEEEEEEEEEEEEE+iiii+EEE*::::*EkkDYYTkEEEEEEEEEEEEE",
"EEEEEEEEEEEEEEEEEEEEEEEEEEEu%1##GG<EE*::::*EkYYYTTkEEEEEEEEEEEEE",
"EEEEEEEEEEEEEEEEEEEEEEEEEEu<%%GGLL<EE*::::*EkYTTTTkEEEEEEEEEEEEE",
"EEEEEEEEEEEEEEEEEEEEEEEEEEu%HHGLP(I<E*::::*EkTTTTRkEEEEEEEEEEEEE",
"EEEEEEEEEEEEEEEEEEEEEEEEEu<HJJGI((  E**:::*EkTTTRRkEEEEEEEEEEEEE",
"EEEEEEEEEEEEEEEEEEEEEEEEEu<JKJHGI  B E*::::*mTRRRRRmEEEEEEEEEEEE",
"EEEEEEEEEEEEEEEEEEEEEEEE s<KKJHG  UXw E*:::*mRRRRRRmEEEEEEEEEEEE",
"EEEEEEEEEEEEEEEEEEEEEEE ws<KJHHGG XXXw E*::*EmRRRRRmEEEEEEEEEEEE",
"EEEEEEEEEEEEEEEEEEEEEE es<KKJHHGG XX@@e E*:*EmRRRWWWmEEEEEEEEEEE",
"EEEEEEEEEEEEEEEEEEEEE ..s<KJJHHGGG @@@BB *:*EmRRWWWWmEEEEEEEEEEE",
"EEEEEEEEEEEEEEEEEEEEE  s<KKJJHGGGG UUU  LLL*EmWWWWWWmEEEEEEEEEEE",
"EEEEEEEEEEEEEEEEEEEEE0  <<<<<<<<<<     ((IIEEmWWWWQQmEEEEEEEEEEE",
"EEEEEEEEEEEEEEEEEEEEEE00  $ O$ $ O$ LLLIII*EEmWWQQQQjEEEEEEEEEEE",
"EEEEEEEEEEEEEEEEEEEEEEE h N hN N hN h E*:*EEEmQQQQQmEEEEEEEEEEEE",
"EEEEEEEEEEEEEEEEEEEEEE                 :**EEEmQQQQmEEEEEEEEEEEEE",
"EEEEEEEEEEEEEEEEEEEEEEEEELPPPPPPLr0EEE*:*EEEEMQQQmEEEEEEEEEEEEEE",
"EEEEEEEEEEEEEEEEEEEEEEEEEoo((~PLrrr0EE**EEEEMQQQMEEEEEEEEEEEEEEE",
"EEEEEEEEEEEEEEEEEEEEEEEEoo@ (II0r   E:*EEEESQQSMEEEEEEEEEEEEEEEE",
"EEEEEEEEEEEEEEEEEEEEEEooo@@,oEEE    *EEEEESQSSEEEEEEEEEEEEEEEEEE",
"EEEEEEEEEEEEEEEEEEEEEoto@@,,oEEE     EEESSSSEEEEEEEEEEEEEEEEEEEE",
"EEEEEEEEEEEEEEEEEEEEEoN @,,oEEE       USSEEEEEEEEEEEEEEEEEEEEEEE",
"EEEEEEEEEEEEEEEEEEEEEooN ooEEEE ----- EEEEEEEEEEEEEEEEEEEEEEEEEE",
"EEEEEEEEEEEEEEEEEEEEEEooooEEEEE       EEEEEEEEEEEEEEEEEEEEEEEEEE",
"EEEEEEEEEEEEEEEEEEEEEEEEEEEEEEEEEEEEEEEEEEEEEEEEEEEEEEEEEEEEEEEE",
"EEEEEEEEEEEEEEEEEEEEEEEEEEEEEEEEEEEEEEEEEEEEEEEEEEEEEEEEEEEEEEEE",
"EEEEEEEEEEEEEEEEEEEEEEEEEEEEEEEEEEEEEEEEEEEEEEEEEEEEEEEEEEEEEEEE",
"EEEEEEEEEEEEEEEEEEEEEEEEEEEEEEEEEEEEEEEEEEEEEEEEEEEEEEEEEEEEEEEE",
"EEEEEEEEEEEEEEEEEEEEEEEEEEEEEEEEEEEEEEEEEEEEEEEEEEEEEEEEEEEEEEEE",
"EEEEEEEEEEEEEEEEEEEEEEEEEEEEEEEEEEEEEEEEEEEEEEEEEEEEEEEEEEEEEEEE",
"EEEEEEEEEEEEEEEEEEEEEEEEEEEEEEEEEEEEEEEEEEEEEEEEEEEEEEEEEEEEEEEE",
"EEEEEEEEEEEEEEEEEEEEEEEEEEEEEEEEEEEEEEEEEEEEEEEEEEEEEEEEEEEEEEEE"
};
