/* XPM */
static char *bc00075aa9b548579e1ce1d4c01333e6EyJqacw9KaIws3B7[] = {
/* columns rows colors chars-per-pixel */
"64 64 75 1 ",
"  c black",
". c gray11",
"X c #1E2324",
"o c #212021",
"O c gray15",
"+ c #312E32",
"@ c #2E3638",
"# c #323033",
"$ c #175754",
"% c #1B5C57",
"& c #1C5E5B",
"* c #1F6E6A",
"= c #216E67",
"- c #257A75",
"; c #444242",
": c #565357",
"> c #7B7272",
", c #8A012D",
"< c #9C0034",
"1 c #A80032",
"2 c #BA0239",
"3 c #D40446",
"4 c #DB0448",
"5 c #EE004A",
"6 c #F50049",
"7 c #947C66",
"8 c #28857E",
"9 c #FBF233",
"0 c #287785",
"q c #2D8681",
"w c #2C9189",
"e c #2F998D",
"r c #2E8E9F",
"t c #309C93",
"y c #35A196",
"u c #3DA89F",
"i c #2096A8",
"p c #2494A8",
"a c #3CA8A1",
"s c #38B2AA",
"d c #479692",
"f c #509F9B",
"g c #59A8A3",
"h c #48B5AC",
"j c #5DB2AE",
"k c #4DB8B1",
"l c #51C2BA",
"z c #54C2BD",
"x c #30AFC5",
"c c #00B7EF",
"v c #60CBC4",
"b c #6FCDC8",
"n c #68D4CD",
"m c #72D4CD",
"M c #7FD4CF",
"N c #70DBD2",
"B c #79E6DF",
"V c #59D8FF",
"C c #858383",
"Z c #969494",
"A c #B1ACAC",
"S c #BAB3B3",
"D c #E6C5A8",
"F c #F2D9BF",
"G c #F5D9BE",
"H c #80E8E1",
"J c #8AEEE8",
"K c #9CF6F1",
"L c #B6EDED",
"P c #A9F6F2",
"I c #B8FFFB",
"U c #F4C3C3",
"Y c #F6E1CC",
"T c #D9F6F5",
"R c #FFF1E5",
/* pixels */
"LLLLLLLLLLLLLLLLLLLLLLLLLLLLLLLLLLLLLLLLLLLLLLLLLLLLLLLLLLLLLLLL",
"LLLLLLLLLLLLLLLLLLLLLLLLLLLLLLLLLLLLLLLLLLLLLLLLLLLLLLLLLLLLLLLL",
"LLLLLLLLLLLLLLLLLLLLLLLLLLLLLLLLLLLLLLLLLLLLLLLLLLLLLLLLLLLLLLLL",
"LLLLLLLLLLLLLLLLLLLLLLLLLLLLLLLLLLLLLLLLLLLLLLLLLLLLLLLLLLLLLLLL",
"LLLLLLLLLLLLLLLLLLLLLLLLLLLLLLLLLLLLLLLLLL LLLLLLLLLLLLLLLLLLLLL",
"LLLLLLLLLLLLLLLLLLLLLLLLLLLLLLLLLLLLLLLLL 5 LLLLLLLLLLLLLLLLLLLL",
"LLLLLLLLLLLLLLLLLLLLLLLLLLLLLLLLLLLLLLLL 4   LLLLLLLLLLLLLLLLLLL",
"LLLLLLLLLLLLLLLLLLLLLLLLLLLLLLLLLLLLLLL 5  ,  LLLLLLLLLLLLLLLLLL",
"LLLLLLLLLLLLLLLLLLLLLLLLLLLLLLLLLLLLLL 4  L ,  LLLLLLLLLLLLLLLLL",
"LLLLLLLLLLLLLLLLLLLLLLLLLLqqqqqqqqqqq 5  L$$$$  LLLLLLLLLLLLLLLL",
"LLLLLLLLLLLLLLLLLLLLLLLLqqqfffdddddd 4  q$eeee&& LLLLLLLLLLLLLLL",
"LLLLLLLLLLLLLLLLLLLLLLLqqbbbbjjjfdd 5  b$eeeeyyy$ LLLLLLLLLLLLLL",
"LLLLLLLLLLLLLLLLLLLLLLLqbbbbbbbjjf 5  b$eeeyyyyu& LLLLLLLLLLLLLL",
"LLLLLLLLLLLLLLLLLLLLLLqqnbbbbbbbbj ,  b&eeyyyyyu*LLLLLLLLLLLLLLL",
"LLLLLLLLLLLLLLLLLLLLLqnnbbbbbbbbbjf 3  &yyyyyuuI*LLLLLLLLLLLLLLL",
"LLLLLLLLLLLLLLLLLLLLqqnbbbqnbbbbbbjf 3 &yyyuuuIIk-LLLLLLLLLLLLLL",
"LLLLLLLLLLLLLLLLLLLLqTnnnqBnbbbbbbbjf 3*auuuuIIhh-LLLLLLLLLLLLLL",
"LLLLLLLLLLLLLLLLLLLLqnTnqKBnnnbbbbbbjd 3*IIIIIhhh-LLLLLLLLLLLLLL",
"LLLLLLLLLLLLLLLLLLLqqBnqqqTBBnnjqbbTTf  <*-hhhhhll-LLLLLLLLLLLLL",
"LLLLLLLLLLLLLLLLLLLqKBBqqqqTTBBjqTTbbjf  <-hhhllll8LLLLLLLLLLLLL",
"LLLLLLLLLLLLLLLLLLLqKBqqFFFqKKBjjqbbbbjfd --llllll8LLLLLLLLLLLLL",
"LLLLLLLLLLLLLLLLLLLLqKqFYYYFqqKBjqbbbbbbjfd8lllllvvwLLLLLLLLLLLL",
"LLLLLLLLLLLLLLLLLLLLqKqFYYYYFFqqqqbb     jd88llvvvvwLLLLLLLLLLLL",
"LLLLLLLLLLLLLLLLLLLLqKqqYYYYYYFFFqb  111  fdwwvvvvvwLLLLLLLLLLLL",
"LLLLLLLLLLLLLLLLLLLLLqKqYY   YYFFq  12221  fdwvvvvvwLLLLLLLLLLLL",
"LLLLLLLLLLLLLLLLLLLLLLqqqY    YYFq 1256521 fqwvvvvbtLLLLLLLLLLLL",
"LLLLLLLLLLLLLLLLLLLLLLGRRR   RYYFq 1256521 bqLbbbbbtLLLLLLLLLLLL",
"LLLLLLLLLLLLLLLLLLLLLLGRRRRRRRRYqq  12221  qqLbbbbbtLLLLLLLLLLLL",
"LLLLLLLLLLLLLLLLLLLLLLGRRRRRUUUYqBq  111  qqLLbbIItLLLLLLLLLLLLL",
"LLLLLLLLLLLLLLLLLLLLLLGRRRRRRRYqBBnq     qqqLLIImmaLLLLLLLLLLLLL",
"LLLLLLLLLLLLLLLLLLLLLLL RRRRRYYqKnbbq gqqqqLLammmNaLLLLLLLLLLLLL",
"LLLLLLLLLLLLLLLLLLLLLLLG      qKKKKq gqq=%%LLamNNNsLLLLLLLLLLLLL",
"LLLLLLLLLLLLLLLLLLLLLLLLGGGGGGqKKqqgqqq==%%LLaNHHsLLLLLLLLLLLLLL",
"LLLLLLLLLLLLLLLLLLLLLLLLLLLLoqqqqoLLL%===%%LssHHJsLLLLLLLLLLLLLL",
"LLLLLLLLLLLLLLLLLLLLLLLLLLL0#>++CCLLL====%LLsHHJJsLLLLLLLLLLLLLL",
"LLLLLLLLLLLLLLLLLLLLLLLLLL0:##CCFDCLL====%LLsHJJJsLLLLLLLLLLLLLL",
"LLLLLLLLLLLLLLLLLLLLLLLLLL0#ZZCGRR LL====%LLsJJJJsLLLLLLLLLLLLLL",
"LLLLLLLLLLLLLLLLLLLLLLLLL0:ZAACGR  LL%%=%%LLsJJJKsLLLLLLLLLLLLLL",
"LLLLLLLLLLLLLLLLLLLLLLLLL0:ASAZG Vc L%==%LLLzJKKKKzLLLLLLLLLLLLL",
"LLLLLLLLLLLLLLLLLLLLLLLLLr:SSAZ VO9 L%==%LLLzKKKKKzLLLLLLLLLLLLL",
"LLLLLLLLLLLLLLLLLLLLLLLLLr:SAZZ OOO9 %==%LLLLzKKKKzLLLLLLLLLLLLL",
"LLLLLLLLLLLLLLLLLLLLLLLLr:SSAZZ OOOO9 %=%LLLLzKKKPzLLLLLLLLLLLLL",
"LLLLLLLLLLLLLLLLLLLLLLLLr:SAAZ OOOOO  %=%LLLLzKKPPzLLLLLLLLLLLLL",
"LLLLLLLLLLLLLLLLLLLLLLLr:SSAAZ VVVccc  =%LLLLzPPPPzLLLLLLLLLLLLL",
"LLLLLLLLLLLLLLLLLLLLLLLL::::::         %=LLLLMIPPzLLLLLLLLLLLLLL",
"LLLLLLLLLLLLLLLLLLLLLLLL  @ X@ GGRRRGLL%=LLLLMIIPzLLLLLLLLLLLLLL",
"LLLLLLLLLLLLLLLLLLLLLLL p x px x GGGp L%%LLLLMIIIMLLLLLLLLLLLLLL",
"LLLLLLLLLLLLLLLLLLLLLL                 %=LLLLMMIIMLLLLLLLLLLLLLL",
"LLLLLLLLLLLLLLLLLLLLLLLLLLL77GRRRGLLLLLL=LLLLLMIIMLLLLLLLLLLLLLL",
"LLLLLLLLLLLLLLLLLLLLLLLLLLL  .....LLLLLL%LLLLLMIIMLLLLLLLLLLLLLL",
"LLLLLLLLLLLLLLLLLLLLLLLLLLL  .#;;.LLLLLLL=LLLLMMIMLLLLLLLLLLLLLL",
"LLLLLLLLLLLLLLLLLLLLLLLLLLL  .#;;.LLLLLLLLLLLLLMMILLLLLLLLLLLLLL",
"LLLLLLLLLLLLLLLLLLLLLLLLLL   .#;;.LLLLLLLLLLLLLLMMLLLLLLLLLLLLLL",
"LLLLLLLLLLLLLLLLLLLLLLLLL   ......LLLLLLLLLLLLLLLLMLLLLLLLLLLLLL",
"LLLLLLLLLLLLLLLLLLLLLLLLL  .iiixx.LLLLLLLLLLLLLLLLLLLLLLLLLLLLLL",
"LLLLLLLLLLLLLLLLLLLLLLLLLLL.......LLLLLLLLLLLLLLLLLLLLLLLLLLLLLL",
"LLLLLLLLLLLLLLLLLLLLLLLLLLLLLLLLLLLLLLLLLLLLLLLLLLLLLLLLLLLLLLLL",
"LLLLLLLLLLLLLLLLLLLLLLLLLLLLLLLLLLLLLLLLLLLLLLLLLLLLLLLLLLLLLLLL",
"LLLLLLLLLLLLLLLLLLLLLLLLLLLLLLLLLLLLLLLLLLLLLLLLLLLLLLLLLLLLLLLL",
"LLLLLLLLLLLLLLLLLLLLLLLLLLLLLLLLLLLLLLLLLLLLLLLLLLLLLLLLLLLLLLLL",
"LLLLLLLLLLLLLLLLLLLLLLLLLLLLLLLLLLLLLLLLLLLLLLLLLLLLLLLLLLLLLLLL",
"LLLLLLLLLLLLLLLLLLLLLLLLLLLLLLLLLLLLLLLLLLLLLLLLLLLLLLLLLLLLLLLL",
"LLLLLLLLLLLLLLLLLLLLLLLLLLLLLLLLLLLLLLLLLLLLLLLLLLLLLLLLLLLLLLLL",
"LLLLLLLLLLLLLLLLLLLLLLLLLLLLLLLLLLLLLLLLLLLLLLLLLLLLLLLLLLLLLLLL"
};
