/* XPM */
static char *result[] = {
/* columns rows colors chars-per-pixel */
"64 64 67 1 ",
"  c black",
". c #0A0000",
"X c #171A1A",
"o c #1D1A1A",
"O c gray11",
"+ c #272626",
"@ c #343235",
"# c #32393B",
"$ c #3C3E3E",
"% c #1D5855",
"& c #1F6876",
"* c #237671",
"= c #575458",
"- c #605F61",
"; c #7A7171",
": c #A70035",
"> c #ED004B",
", c #D3CB21",
"< c #FBF236",
"1 c #007385",
"2 c #306082",
"3 c #2C7684",
"4 c #457F8A",
"5 c #318580",
"6 c #31938D",
"7 c #328D9E",
"8 c #2C9D96",
"9 c #2993A7",
"0 c #3EA7A0",
"q c #3BB1A9",
"w c #499591",
"e c #519E9A",
"r c #5BA7A3",
"t c #5DB1AC",
"y c #54B9B2",
"u c #60A3B0",
"i c #6BB9B4",
"p c #55C1BC",
"a c #34ADC4",
"s c #00B7EF",
"d c #43BCD3",
"f c #60CAC3",
"g c #6FCCC7",
"h c #75CAC6",
"j c #68D3CC",
"k c #78E5DE",
"l c #58CEE5",
"z c #8D8585",
"x c #959393",
"c c #B0AAAA",
"v c #B9B2B2",
"b c #D3B69B",
"n c #C2B3A7",
"m c #C1B7B7",
"M c #E2C9B2",
"N c #E5C1BD",
"B c #F5D8BD",
"V c #87D3E2",
"C c #89EDE7",
"Z c #9BF6F1",
"A c #B6EDED",
"S c #A8F6F2",
"D c #B7FFFB",
"F c #F4C2C2",
"G c #F6E0CB",
"H c #D8F6F5",
"J c #FFF1E4",
/* pixels */
"AAAAAAAAAAAAAAAAAAAAAAAAAAAAAAAAAAAAAAAAAAAAAAAAAAAAAAAAAAAAAAAA",
"AAAAAAAAAAAAAAAAAAAAAAAAAAAAAAAAAAAAAAAAAAAAAAAAAAAAAAAAAAAAAAAA",
"AAAAAAAAAAAAAAAAAAAAAAAAAAAAAAAAAAAAAAAAAAAAAAAAAAAAAAAAAAAAAAAA",
"AAAAAAAAAAAAAAAAAAAAAAAAAAAAAAAAAAAAAAAAAAAAAAAAAAAAAAAAAAAAAAAA",
"AAAAAAAAAAAAAAAAAAAAAAAAAAAAAAAAAAAAAAAAAAAAAAAAAAAAAAAAAAAAAAAA",
"AAAAAAAAAAAAAAAAAAAAAAAAAAAAAAAAAAAAAAAAAAAAAAAAAAAAAAAAAAAAAAAA",
"AAAAAAAAAAAAAAAAAAAA    AAAAAAAAAAAAAA   AAAAAAAAAAAAAAAAAAAAAAA",
"AAAAAAAAAAAAAAAAAAA   : AAAAAAAAAAAAAA :  AAAAAAAAAAAAAAAAAAAAAA",
"AAAAAAAAAAAAAAAAAA  >>  AAAAAAAAAAAAAA  >  AAAAAAAAAAAAAAAAAAAAA",
"AAAAAAAAAAAAAAAAAA :    A555555555555A   : AAAAAAAAAAAAAAAAAAAAA",
"AAAAAAAAAAAAAAA%%% : %  5ttteeeeeettt5   :  %%%AAAAAAAAAAAAAAAAA",
"AAAAAAAAAAAAAA*tt > %%%5tteegggggggggt5 A >> tt*AAAAAAAAAAAAAAAA",
"AAAAAAAAAAAA***t > t555rreggggggggggggtr5   > t*AAAAAAAAAAAAAAAA",
"AAAAAAAAAAAA**it : t55r555tgggggggggggggtr  : ti*AAAAAAAAAAAAAAA",
"AAAAAAAAAAA6iiit : 5ww5gggggggggggggggggg5rr  iii6AAAAAAAAAAAAAA",
"AAAAAAAAAAA6DDit  5w55ggggggjjjggggjjjgggg555 iiD6AAAAAAAAAAAAAA",
"AAAAAAAAAAA6DDit  5w55HgggggjjjggggjjjgggH555 iiD6AAAAAAAAAAAAAA",
"AAAAAAAAAAA6yyDDD5ww55gHHHHjjkkjjHHjjjHH5kkk55DDy6AAAAAAAAAAAAAA",
"AAAAAAAAAAA6yyyyy5w5gggjjkkkk5kkkkkkjjjjj555k5yyy6AAAAAAAAAAAAAA",
"AAAAAAAAAAA6yyyyy5w5gggjjkkk555kkkkkkkkjj5gg5k5yy6AAAAAAAAAAAAAA",
"AAAAAAAAAAA6ffyyy55gggjjkk55GG5kkZZ55Zkkjg5g55555f8AAAAAAAAAAAAA",
"AAAAAAAAAAA8fffff55ggjjkk5GGGG5ZZZ5G55ZZkg55g5ffff8AAAAAAAAAAAAA",
"AAAAAAAAAAA8fff  55gjjkZ5GGGGG5ZZ5GGGG5ZZkk5g5ffff8AAAAAAAAAAAAA",
"AAAAAAAAAAA8fff :55jjkkZ5G   55ZZ5G   55Zkk5g5ffff8AAAAAAAAAAAAA",
"AAAAAAAAAAA88f :>55jkkkZ5 H  5Z55GGH   G5kk5Z5ffff8AAAAAAAAAAAAA",
"AAAAAAAAAAA8ff :>>5kkkZ55J  555GGGJ   JJ5kk5Z5fjjf8AAAAAAAAAAAAA",
"AAAAAAAAAAA8DD :>>5kkZZZJJ   JGJJJJ   JJ5Zkk5jjjjD8AAAAAAAAAAAAA",
"AAAAAAAAAAA8kk  :>5kZZZ5JJ222JJJJJJ222JJ5ZZk5jjDDk8AAAAAAAAAAAAA",
"AAAAAAAAAAA8kkk :::5ZZZ5FFFJJJJJJJJJJFFF5ZZ5Djkkkkk8AAAAAAAAAAAA",
"AAAAAAAAAA8kkkk    5ZZZ5JJJJJJJJJJJJJJJJ5ZZ5Djkkkkk88AAAAAAAAAAA",
"AAAAAAAAA880kkkkkkk55ZZ5JJJJJJJNNJJJJJJJ5ZZ5kkkkkk0k88AAAAAAAAAA",
"AAAAAAAA0000kkkkkkqA5Z55 JJJ$$JJJJJJJJJ55Z5Aqkkkkk00000AAAAAAAAA",
"AAAAAAAAAAqkkkkkkkqAA55AA     BBBBBBBB5Z55AAqkkkkkkqAAAAAAAAAAAA",
"AAAAAAAAAAqkkkkkkkqAAA5AAA@@  z@@zz;@@55AAAAqkkkkkkqAAAAAAAAAAAA",
"AAAAAAAAAAqCCCCkkkqAAAAAABB=-z-&&-z-=n5AAAAAqkCCCCCqAAAAAAAAAAAA",
"AAAAAAAAAAqCCkkCCqAAAAAAMJJBx--dd--x=nnAAAAAAqkkCCCqAAAAAAAAAAAA",
"AAAAAAAAAAqCCkkCCqAAAAAA JJBxv-dd-vx=nn AAAAAqkkCCCqAAAAAAAAAAAA",
"AAAAAAAAAqqCCCCCCqAAAAAA    xv3dd3vx==   AAAAqCCCCCqAAAAAAAAAAAA",
"AAAAAAAAAppCCCCCCqAAAAA VVu xc3dd3cxx= u, AAAqCCCCCpAAAAAAAAAAAA",
"AAAAAAAAApCCCZZppAAAAAA     cm7l  vcxx=  , AAqpZZZCpAAAAAAAAAAAA",
"AAAAAAAAApZZZZZpAAAAAAA ,   cv7ll7vcxx=    s ApZZZZpAAAAAAAAAAAA",
"AAAAAAAAApZZZZZpAAAAAA <OOOO v7l  vvccx=  s4 ApZZZZpAAAAAAAAAAAA",
"AAAAAAAAApZZZZZpAAAAAA OOOOO v7ll7vvccx=s44 AApZZZZpAAAAAAAAAAAA",
"AAAAAAAApSSSZSppAAAAAA sssVVV v77vvvccxx=  AAApSSSSpAAAAAAAAAAAA",
"AAAAAAAApSSSSZpAAAAAA OOOOOOOOOvv========nnAAApSZSSpAAAAAAAAAAAA",
"AAAAAAAApSSSDDpAAAAAAAAA.BJJJBBoo#Xo #X.nAAAAAppDDDpAAAAAAAAAAAA",
"AAAAAAAAApDDDhAAAAAAAAAA.aBBBB9ooa9o a9.AAAAAAApDDDpAAAAAAAAAAAA",
"AAAAAAAAApDDDhAAAAAAAAAA................AAAAAAApDDhpAAAAAAAAAAAA",
"AAAAAAAAAhDDDhAAAAAAAAAAAnnnnnnAAMJJGGbAAAAAAAApDDhAAAAAAAAAAAAA",
"AAAAAAAAAhDDDhAAAAAAAAAAA      AAMJJGGbAAAAAAAApDDhAAAAAAAAAAAAA",
"AAAAAAAAAAhDDhAAAAAAAAAAA1    1AA++++++AAAAAAhhDhhhAAAAAAAAAAAAA",
"AAAAAAAAAAAhhhAAAAAAAAAAA+1111 AA+ aa +AAAAAhhhhAAAAAAAAAAAAAAAA",
"AAAAAAAAAAAAhhAAAAAAAAAAA      AA a  a AAAAhhhhhAAAAAAAAAAAAAAAA",
"AAAAAAAAAAAAAhAAAAAAAAAAAA    AAAa    aAAhhhhAAAAAAAAAAAAAAAAAAA",
"AAAAAAAAAAAAAAAAAAAAAAAAAAAAAAAAAa    aAAAAAAAAAAAAAAAAAAAAAAAAA",
"AAAAAAAAAAAAAAAAAAAAAAAAAAAAAAAAAA    AAAAAAAAAAAAAAAAAAAAAAAAAA",
"AAAAAAAAAAAAAAAAAAAAAAAAAAAAAAAAAAAAAAAAAAAAAAAAAAAAAAAAAAAAAAAA",
"AAAAAAAAAAAAAAAAAAAAAAAAAAAAAAAAAAAAAAAAAAAAAAAAAAAAAAAAAAAAAAAA",
"AAAAAAAAAAAAAAAAAAAAAAAAAAAAAAAAAAAAAAAAAAAAAAAAAAAAAAAAAAAAAAAA",
"AAAAAAAAAAAAAAAAAAAAAAAAAAAAAAAAAAAAAAAAAAAAAAAAAAAAAAAAAAAAAAAA",
"AAAAAAAAAAAAAAAAAAAAAAAAAAAAAAAAAAAAAAAAAAAAAAAAAAAAAAAAAAAAAAAA",
"AAAAAAAAAAAAAAAAAAAAAAAAAAAAAAAAAAAAAAAAAAAAAAAAAAAAAAAAAAAAAAAA",
"AAAAAAAAAAAAAAAAAAAAAAAAAAAAAAAAAAAAAAAAAAAAAAAAAAAAAAAAAAAAAAAA",
"AAAAAAAAAAAAAAAAAAAAAAAAAAAAAAAAAAAAAAAAAAAAAAAAAAAAAAAAAAAAAAAA"
};
