/* XPM */
static char *result[] = {
/* columns rows colors chars-per-pixel */
"64 64 62 1 ",
"  c black",
". c #0A0000",
"X c #171A1A",
"o c #1D1A1A",
"O c gray11",
"+ c #272626",
"@ c #343235",
"# c #32393B",
"$ c #1C4F4C",
"% c #1D5855",
"& c #315C59",
"* c #237671",
"= c #575458",
"- c #7C7A7D",
"; c #A70035",
": c #ED004B",
"> c #827D7D",
", c #237C8D",
"< c #318580",
"1 c #3A8781",
"2 c #31938D",
"3 c #2C9D96",
"4 c #2993A7",
"5 c #3EA7A0",
"6 c #3BB1A9",
"7 c #499591",
"8 c #429993",
"9 c #519E9A",
"0 c #47A8A0",
"q c #5BA7A3",
"w c #5DB1AC",
"e c #5CB5AF",
"r c #54B9B2",
"t c #63ADA7",
"y c #60A3B0",
"u c #6BB9B4",
"i c #55C1BC",
"p c #34ADC4",
"a c #00B7EF",
"s c #60CAC3",
"d c #6FCCC7",
"f c #75CAC6",
"g c #74CCC6",
"h c #68D3CC",
"j c #78E5DE",
"k c #959393",
"l c #B0AAAA",
"z c #B9B2B2",
"x c #D3B69B",
"c c #C1B7B7",
"v c #E2C9B2",
"b c #F5D8BD",
"n c #86E3DD",
"m c #87D3E2",
"M c #8EE8E2",
"N c #89EDE7",
"B c #9BF6F1",
"V c #B6EDED",
"C c #A8F6F2",
"Z c #B7FFFB",
"A c #F6E0CB",
"S c #FFF1E4",
/* pixels */
"VVVVVVVVVVVVVVVVVVVVVVVVVVVVVVVVVVVVVVVVVVVVVVVVVVVVVVVVVVVVVVVV",
"VVVVVVVVVVVVVVVVVVVVVVVVVVVVVVVVVVVVVVVVVVVVVVVVVVVVVVVVVVVVVVVV",
"VVVVVVVVVVVVVVVVVVVVVVVVVVVVVVVVVVVVVVVVVVVVVVVVVVVVVVVVVVVVVVVV",
"VVVVVVVVVVVVVVVVVVVVVVVVVVVVVVVVVVVVVVVVVVVVVVVVVVVVVVVVVVVVVVVV",
"VVVVVVVVVVVVVVVVVVVVVVVVVVVVVVVVVVVVVVVVVVVVVVVVVVVVVVVVVVVVVVVV",
"VVVVVVVVVVVVVVVVVVVVVVVVVVVVVVVVVVVVVVVVVVVVVVVVVVVVVVVVVVVVVVVV",
"VVVVVVVVVVVVVVVVVVVV    VVVVVVVVVVVVVV   VVVVVVVVVVVVVVVVVVVVVVV",
"VVVVVVVVVVVVVVVVVVV   ; VVVVVVVVVVVVVV ;  VVVVVVVVVVVVVVVVVVVVVV",
"VVVVVVVVVVVVVVVVVV  ::  VVVVVVVVVVVVVV  :  VVVVVVVVVVVVVVVVVVVVV",
"VVVVVVVVVVVVVVVVVV ;    V<<<<<<<<<<<<V   ; VVVVVVVVVVVVVVVVVVVVV",
"VVVVVVVVVVVVVVV%%% ; %  <www999199www<   ;  %%%VVVVVVVVVVVVVVVVV",
"VVVVVVVVVVVVVV*ww : %%%<eeeeeee1deeeew< V :: ww*VVVVVVVVVVVVVVVV",
"VVVVVVVVVVVVV**w : w<deeedddddt1tdddeewq<   : w**VVVVVVVVVVVVVVV",
"VVVVVVVVVVVVV*uw ; wdeddddddttd1dttddeee<q  ; wuu*VVVVVVVVVVVVVV",
"VVVVVVVVVVVV2uuw ; <eedddddtddd1ddhtdddee<<q  uuuu2VVVVVVVVVVVVV",
"VVVVVVVVVVVV2uuwZ <7edddddddhhh1dddhhdddee<<< Zuuu2VVVVVVVVVVVVV",
"VVVVVVVVVVVV2uwuZ <eedddddddhtt8ttdddddddee<< Zuuu2VVVVVVVVVVVVV",
"VVVVVVVVVVVV2ZZZu<7eeddddddBtnn8nBtBddddddee<$uZZZ2VVVVVVVVVVVVV",
"VVVVVVVVVVVV2rrrr<7edddddBBBMnn8nnMBBBddddde<$rrrr2VVVVVVVVVVVVV",
"VVVVVVVVVVVV2rrrr<7eddddBBBBMnn0nnMBBBBddddd<<$rrr2VVVVVVVVVVVVV",
"VVVVVVVVVVVV2srrr<<ddddBBBBMMnt0tnMMMBBBdddd<<$$$s2VVVVVVVVVVVVV",
"VVVVVVVVVVVV3ssss<<dddBBBBBMMtn0ntMMBBBBBdddd<ssss3VVVVVVVVVVVVV",
"VVVVVVVVVVVV3ss  <<dddBBBBBMMnn0nnMMBBBBBBddd<  ss3VVVVVVVVVVVVV",
"VVVVVVVVVVVV3ss ;<<hdBBBBBBMMnn0nnMMBBBBBBBdd<; ss3VVVVVVVVVVVVV",
"VVVVVVVVVVVV3s ;:<<hdBBBBBBMMnn8nnMMBBBBBBBdd<:; s3VVVVVVVVVVVVV",
"VVVVVVVVVVV3ss ;::<<BBBBBBMMMtn8ntMMBBBBBBBBB::; ss3VVVVVVVVVVVV",
"VVVVVVVVVVV3ZZ ;::$<BBBBBBBBMnt8tnMBBBBBBBjj<::; ZZ3VVVVVVVVVVVV",
"VVVVVVVVVVV3jj  ;:$<<gBBBBBBMnn1nnMBBBBBBggj<:;  jj3VVVVVVVVVVVV",
"VVVVVVVVVV33jjj ;;;$<ggBBBBBtnn1nntBBBBBgg<<;;; jjj3VVVVVVVVVVVV",
"VVVVVVVVV33jjjj    $<<ggBBBBBtn1ntBBBBBgg<<$    jjj33VVVVVVVVVVV",
"VVVVVVVV33j5jjjjjjj$&<<gggBBBBt1tBBBBBgg<<&$jjjjjj5j333VVVVVVVVV",
"VVVVVV555555jjjjjj6V$&$<<gggggg1ggggggg<<&$V6jjjjj5555555VVVVVVV",
"VVVVVVVVVV6jjjjjjj6VV$$V<<<<<<<<<<<<<<<&$$VV6jjjjjjj6VVVVVVVVVVV",
"VVVVVVVVVV6jjjjjjj6VVV$VVV@@>>>>>>>>@@$$VVVV6jjjjjjj6VVVVVVVVVVV",
"VVVVVVVVVV6NNNNjjj6VVVVVVbb=@@@@@@@@=b$VVVVV6jNNNNNN6VVVVVVVVVVV",
"VVVVVVVVVV6NNjjNN6VVVVVVvSb=kzzz-zzk=bSvVVVVV6jjjNNN6VVVVVVVVVVV",
"VVVVVVVVVV6NNjjNN6VVVVVOvSb=kzz-zzzk=bSvOVVVV6jjjNNN6VVVVVVVVVVV",
"VVVVVVVVV66NNNNNN6VVVVOOOS==kzzz-zzk==SOOOVVV6NNNNNN6VVVVVVVVVVV",
"VVVVVVVViNNNNNNNN6VVVO yOO=kklz-zzlkk=OOy OVV6NNNNNNNiVVVVVVVVVV",
"VVVVVVVViNNNBBBii6VVO   m=kklczz-zzlkk=m   OV6iBBBBNNiVVVVVVVVVV",
"VVVVVVVViBBBBBBiVVVO+    =kklzz-zzzlkk=    +OViBBBBBBiVVVVVVVVVV",
"VVVVVVVViBBBBBBiVVOaOOO =kllzzzz-zzzllk= OOOaOiBBBBBBiVVVVVVVVVV",
"VVVVVVViiBBBBBBiVVOmaOOO=kllzzz-zzzzllk=OOOamOiBBBBBBiiiVVVVVVVV",
"VVVVVVViCCCBCCiiVVVOmaa=kkllzzzz-zzzllkk=aamOViiCCCBCCCiVVVVVVVV",
"VVVVVVViCCCCBCiVVVVVOOO==================OOOVVViCCBCCCCiVVVVVVVV",
"VVVVVVViZCCZZiiVVVVVbSOO.X# oX#ooX#.oX#.#OSbVVViiiZZCZZiVVVVVVVV",
"VVVVVVViZZZZZiVVVVVVbbSS.4p o4poo4p.o4p.SSbbVVVVViZZZZZiVVVVVVVV",
"VVVVVVVifZZZZiVVVVVVVVbb................bbVVVVVVViZZZZfiVVVVVVVV",
"VVVVVVVVfZZZZiVVVVVVVVVVVxASSSvVVxAASSvVVVVVVVVVViZZZZfVVVVVVVVV",
"VVVVVVVVfZZZZiVVVVVVVVVVVxASSSvVVxAASSvVVVVVVVVVViZZZZfVVVVVVVVV",
"VVVVVVVVfffZZffVVVVVVVVVV      VV      VVVVVVVVfffZZfffVVVVVVVVV",
"VVVVVVVVVVVffZfffVVVVVVVV  ++++VV   +++VVVVVVVfffZffVVVVVVVVVVVV",
"VVVVVVVVVVVVfffffffVVVVVV  ++++VV   +++VVVVVfffffffVVVVVVVVVVVVV",
"VVVVVVVVVVVVVVVfffffVVVVV ,ppp+VV ,,pp+VVVfffffVVVVVVVVVVVVVVVVV",
"VVVVVVVVVVVVVVVVVVVVVVVVV  ++++VV   +++VVVVVVVVVVVVVVVVVVVVVVVVV",
"VVVVVVVVVVVVVVVVVVVVVVVVVV +++VVVV  ++VVVVVVVVVVVVVVVVVVVVVVVVVV",
"VVVVVVVVVVVVVVVVVVVVVVVVVVVVVVVVVVVVVVVVVVVVVVVVVVVVVVVVVVVVVVVV",
"VVVVVVVVVVVVVVVVVVVVVVVVVVVVVVVVVVVVVVVVVVVVVVVVVVVVVVVVVVVVVVVV",
"VVVVVVVVVVVVVVVVVVVVVVVVVVVVVVVVVVVVVVVVVVVVVVVVVVVVVVVVVVVVVVVV",
"VVVVVVVVVVVVVVVVVVVVVVVVVVVVVVVVVVVVVVVVVVVVVVVVVVVVVVVVVVVVVVVV",
"VVVVVVVVVVVVVVVVVVVVVVVVVVVVVVVVVVVVVVVVVVVVVVVVVVVVVVVVVVVVVVVV",
"VVVVVVVVVVVVVVVVVVVVVVVVVVVVVVVVVVVVVVVVVVVVVVVVVVVVVVVVVVVVVVVV",
"VVVVVVVVVVVVVVVVVVVVVVVVVVVVVVVVVVVVVVVVVVVVVVVVVVVVVVVVVVVVVVVV",
"VVVVVVVVVVVVVVVVVVVVVVVVVVVVVVVVVVVVVVVVVVVVVVVVVVVVVVVVVVVVVVVV"
};
