/* XPM */
static char *_bf2334326314504982e468e5243604afh7H5rvcg5PTvUi4[] = {
/* columns rows colors chars-per-pixel */
"64 64 63 1 ",
"  c black",
". c #101313",
"X c #171313",
"o c #222121",
"O c #2E3638",
"+ c #393C3C",
"@ c #175754",
"# c #196877",
"$ c #1D7772",
"% c #444242",
"& c #565357",
"* c #625F5F",
"= c #605F61",
"- c #A80032",
"; c #EE004A",
": c #D4CC1B",
"> c #FBF233",
", c #1D7D8E",
"< c #2C6083",
"1 c #287785",
"2 c #2D8681",
"3 c #2D948E",
"4 c #2E8E9F",
"5 c #289E97",
"6 c #2494A8",
"7 c #3CA8A1",
"8 c #38B2AA",
"9 c #479692",
"0 c #509F9B",
"q c #5BA8A4",
"w c #5DB2AE",
"e c #53BAB3",
"r c #60A4B1",
"t c #6BBAB5",
"y c #54C2BD",
"u c #30AFC5",
"i c #41BDD4",
"p c #60CBC4",
"a c #6FCDC8",
"s c #76CBC7",
"d c #68D4CD",
"f c #79E6DF",
"g c #57CFE6",
"h c #8E8686",
"j c #969494",
"k c gray66",
"l c #B1ACAC",
"z c #BAB3B3",
"x c #D4B79C",
"c c #C2B8B8",
"v c #E3CAB3",
"b c #E6C2BE",
"n c #F5D9BE",
"m c #88D4E3",
"M c #8AEEE8",
"N c #9CF6F1",
"B c #B6EDED",
"V c #A9F6F2",
"C c #B8FFFB",
"Z c #F4C3C3",
"A c #F6E1CC",
"S c #D9F6F5",
"D c #FFF1E5",
/* pixels */
"BBBBBBBBBBBBBBBBBBBBBBBBBBBBBBBBBBBBBBBBBBBBBBBBBBBBBBBBBBBBBBBB",
"BBBBBBBBBBBBBBBBBBBBBBBBBBBBBBBBBBBBBBBBBBBBBBBBBBBBBBBBBBBBBBBB",
"BBBBBBBBBBBBBBBBBBBBBBBBBBBBBBBBBBBBBBBBBBBBBBBBBBBBBBBBBBBBBBBB",
"BBBBBBBBBBBBBBBBBBBBBBBBBBBBBBBBBBBBBBBBBBBBBBBBBBBBBBBBBBBBBBBB",
"BBBBBBBBBBBBBBBBBBBBBBBBBBBBBBBBBBBBBBBBBBBBBBBBBBBBBBBBBBBBBBBB",
"BBBBBBBBBBBBBBBBBBBBBBBBBBBBBBBBBBBBBBBBBBBBBBBBBBBBBBBBBBBBBBBB",
"BBBBBBBBBBBBBBBBBBBBBBBBBBBBBBBBBBBBBBBBBBBBBBBBBBBBBBBBBBBBBBBB",
"BBBBBBBBBBBBBBBBBBBB    BBBBBBBBBBBBBB   BBBBBBBBBBBBBBBBBBBBBBB",
"BBBBBBBBBBBBBBBBBBB   - BBBBBBBBBBBBBB -  BBBBBBBBBBBBBBBBBBBBBB",
"BBBBBBBBBBBBBBBBBB  ;;  BBBBBBBBBBBBBB  ;  BBBBBBBBBBBBBBBBBBBBB",
"BBBBBBBBBBBBBBBBBB -    B222222222222B   - BBBBBBBBBBBBBBBBBBBBB",
"BBBBBBBBBBBBBBB@@@ - @  2www000000www2   -  @@@BBBBBBBBBBBBBBBBB",
"BBBBBBBBBBBBBB$ww ; @@@2ww00aaaaaaaaaw2 B ;; ww$BBBBBBBBBBBBBBBB",
"BBBBBBBBBBBBB$$w ; w222qq0aaaaaaaaaaaawq2   ; w$$BBBBBBBBBBBBBBB",
"BBBBBBBBBBBBB$tw - w22q222waaaaaaaaaaaaawq  - wtt$BBBBBBBBBBBBBB",
"BBBBBBBBBBBB3ttw - 2992aaaaaaaaaaaaaaaaaa2qq  tttt3BBBBBBBBBBBBB",
"BBBBBBBBBBBB3Ctw  2922aaaaaadddaaaadddaaaa222 tttC3BBBBBBBBBBBBB",
"BBBBBBBBBBBB3Ctw  2922SaaaaadddaaaadddaaaS222 tttC3BBBBBBBBBBBBB",
"BBBBBBBBBBBB3eCCC29922aSSSSddffddSSdddSS2fff22CCCe3BBBBBBBBBBBBB",
"BBBBBBBBBBBB3eeee292aaaddffff2ffffffddddd222f2eeee3BBBBBBBBBBBBB",
"BBBBBBBBBBBB3eeee292aaaddfff222ffffffffdd2aa2f2eee3BBBBBBBBBBBBB",
"BBBBBBBBBBBB3peee22aaaddff22AA2ffNN22Nffda2a22222p3BBBBBBBBBBBBB",
"BBBBBBBBBBBB5pppp22aaddff2AAAA2NNN2A22NNfa22a2pppp5BBBBBBBBBBBBB",
"BBBBBBBBBBBB5pp  22addfN2AAAAA2NN2AAAA2NNff2a2pppp5BBBBBBBBBBBBB",
"BBBBBBBBBBBB5pp -22ddffN2A   22NN2A   22Nff2a2pppp5BBBBBBBBBBBBB",
"BBBBBBBBBBBB5p -;22dfffN2 S  2N22AAS   A2ff2N2pppp5BBBBBBBBBBBBB",
"BBBBBBBBBBB5pp -;;2fffN22D  222AAAD   DD2ff2N2pddpp5BBBBBBBBBBBB",
"BBBBBBBBBBB5CC -;;2ffNNNDD   DADDDD   DD2Nff2ddddCC5BBBBBBBBBBBB",
"BBBBBBBBBBB5ff  -;2fNNN2DD<<<DDDDDD<<<DD2NNf2ddCCff5BBBBBBBBBBBB",
"BBBBBBBBBB55fff ---2NNN2ZZZDDDDDDDDDDZZZ2NN2Cdfffff5BBBBBBBBBBBB",
"BBBBBBBBB55ffff    2NNN2DDDDDDDDDDDDDDDD2NN2Cdfffff55BBBBBBBBBBB",
"BBBBBBBB55f7fffffff22NN2DDDDDDDbbDDDDDDD2NN2ffffff7f55BBBBBBBBBB",
"BBBBBBBBBBB7fffffff22NN2 DDD++DDDDDDDDDD2NN2ffffff7fBBBBBBBBBBBB",
"BBBBBBBBBBB8ffffff8BB22BB     nnnnnnnn2222BB8ffffff8BBBBBBBBBBBB",
"BBBBBBBBBBB8ffffff8BBBB2BBB&  =##=h=&22BBBBB8ffffff8BBBBBBBBBBBB",
"BBBBBBBBBBB8Mffff8BBBBBBBnn&j==ii==j&vvBBBBBB8fffMM8BBBBBBBBBBBB",
"BBBBBBBBBBB8Mffff8BBBBBBvDn&jz=ii=zj&nDvBBBBB8fffMM8BBBBBBBBBBBB",
"BBBBBBBBBB88MMMMM8BBBBBOvDn&jz1ii1zj&nDvOBBBB8MMMMM8BBBBBBBBBBBB",
"BBBBBBBBByMMMMMMM8BBBBOOOD&jjl1ii1ljj&DOOOBBB8MMMMMMyBBBBBBBBBBB",
"BBBBBBBBByMMMMMyy8BBBO:rOOjjlc4g  zljjOOr:OBB8yMMMMMyBBBBBBBBBBB",
"BBBBBBBBByMMMMNyBBBO>jjjj&jjlz4gg4zljj&mjj:OBByNNMMMyBBBBBBBBBBB",
"BBBBBBBBByMNNNNyBBOmkkkj&jllzz4g  zzllj&jkkkmOyNNNNMyBBBBBBBBBBB",
"BBBBBBBBByNNNNNyBBOmmkkk&jllzz4gg4zzllj&kkkmmOyNNNNNyBBBBBBBBBBB",
"BBBBBBBByVVVNVyyBBBOmmm&jjllzzz44zzzlljj&mmmOByyVVNVVyBBBBBBBBBB",
"BBBBBBBByVVVNVyyBBBBOOO&&&&&&&&zz&&&&&&&&OOOBByyVVNVVVyBBBBBBBBB",
"BBBBBBBByVVVVVyBBBBBnDOO O.X O.XXO.X O. OODnBBByVNVVVVyBBBBBBBBB",
"BBBBBBBByVVVCyyBBBBBnnDD u6X u6XXu6X u6 DDnnBBByyyVVVVyBBBBBBBBB",
"BBBBBBBByVVCCyBBBBBBBBnn                nnBBBBBBByCCCVyBBBBBBBBB",
"BBBBBBBBysCCCyBBBBBBBBBBBvDDDAxBBvDDAAxBBBBBBBBBByCCCsyBBBBBBBBB",
"BBBBBBBBBsCCCyBBBBBBBBBBBvDDDAxBBvDDAAxBBBBBBBBBByCCCsBBBBBBBBBB",
"BBBBBBBBBsCCCyBBBBBBBBBBB      BB      BBBBBBBBBByCCCsBBBBBBBBBB",
"BBBBBBBBBsssCssBBBBBBBBBBo***% BBo**%% BBBBBBBBssCCsssBBBBBBBBBB",
"BBBBBBBBBBBBsCsssBBBBBBBBoooo  BBooo   BBBBBBBsssssBBBBBBBBBBBBB",
"BBBBBBBBBBBBBssssssBBBBBBouuu, BBouu,, BBBBBssssssBBBBBBBBBBBBBB",
"BBBBBBBBBBBBBBBsssssBBBBBoooo  BBooo   BBBsssssBBBBBBBBBBBBBBBBB",
"BBBBBBBBBBBBBBBBBBBBBBBBBBooo BBBBoo  BBBBBBBBBBBBBBBBBBBBBBBBBB",
"BBBBBBBBBBBBBBBBBBBBBBBBBBBBBBBBBBBBBBBBBBBBBBBBBBBBBBBBBBBBBBBB",
"BBBBBBBBBBBBBBBBBBBBBBBBBBBBBBBBBBBBBBBBBBBBBBBBBBBBBBBBBBBBBBBB",
"BBBBBBBBBBBBBBBBBBBBBBBBBBBBBBBBBBBBBBBBBBBBBBBBBBBBBBBBBBBBBBBB",
"BBBBBBBBBBBBBBBBBBBBBBBBBBBBBBBBBBBBBBBBBBBBBBBBBBBBBBBBBBBBBBBB",
"BBBBBBBBBBBBBBBBBBBBBBBBBBBBBBBBBBBBBBBBBBBBBBBBBBBBBBBBBBBBBBBB",
"BBBBBBBBBBBBBBBBBBBBBBBBBBBBBBBBBBBBBBBBBBBBBBBBBBBBBBBBBBBBBBBB",
"BBBBBBBBBBBBBBBBBBBBBBBBBBBBBBBBBBBBBBBBBBBBBBBBBBBBBBBBBBBBBBBB",
"BBBBBBBBBBBBBBBBBBBBBBBBBBBBBBBBBBBBBBBBBBBBBBBBBBBBBBBBBBBBBBBB"
};
