/* XPM */
static char *fec6b65d18864f6bf484e1ee9bd56380YXl5lDCjG65Sex6w[] = {
/* columns rows colors chars-per-pixel */
"64 64 192 2 ",
"   c black",
".  c #101313",
"X  c #171313",
"o  c #151416",
"O  c #1A191A",
"+  c #0A2625",
"@  c #0D312F",
"#  c #132A39",
"$  c #133B38",
"%  c #222121",
"&  c gray14",
"*  c #2A292A",
"=  c #2E3538",
"-  c #3E3B3B",
";  c #4A0016",
":  c #5E001C",
">  c #690020",
",  c #77782A",
"<  c #194B48",
"1  c #175754",
"2  c #284A48",
"3  c #294E4C",
"4  c #3F4246",
"5  c #196777",
"6  c #1C7772",
"7  c #206C67",
"8  c #346462",
"9  c #36726E",
"0  c #367F7B",
"q  c #444242",
"w  c gray30",
"e  c #555357",
"r  c #634B5E",
"t  c #625E5E",
"y  c #605E61",
"u  c #44666E",
"i  c #506868",
"p  c #51706E",
"a  c #850029",
"s  c #A80032",
"d  c #C7003C",
"f  c #CF003F",
"g  c #EE004A",
"h  c #824B68",
"j  c #8A7E72",
"k  c #888835",
"l  c #FBF233",
"z  c #B9B350",
"x  c #94887D",
"c  c #1C7D8E",
"v  c #287785",
"b  c #567B84",
"n  c #2C8681",
"m  c #3B8F8A",
"M  c #2C948E",
"N  c #3C918C",
"B  c #3F958F",
"V  c #2E8E9F",
"C  c #2A9892",
"Z  c #289E97",
"A  c #30A29C",
"S  c #2394A8",
"D  c #3CA8A1",
"F  c #38B2AA",
"G  c #40948F",
"H  c #419590",
"J  c #479692",
"K  c #429994",
"L  c #469994",
"P  c #479F9A",
"I  c #668585",
"U  c #7A8A89",
"Y  c #7A9C9D",
"T  c #41A39D",
"R  c #43A49E",
"E  c #789DA4",
"W  c #49A5A0",
"Q  c #46A8A2",
"!  c #57AAA6",
"~  c #51AEA8",
"^  c #5CAEAA",
"/  c #41B2AB",
"(  c #4EB0AA",
")  c #5DB2AE",
"_  c #4CBEB7",
"`  c #5DB7B2",
"'  c #53BAB3",
"]  c #57BCB5",
"[  c #70ABAA",
"{  c #63B6B1",
"}  c #69B3B0",
"|  c #63B8B4",
" . c #6BBAB5",
".. c #64BEB9",
"X. c #72B9B7",
"o. c #57C3BC",
"O. c #59C1BA",
"+. c #67C1BC",
"@. c #6AC5BF",
"#. c #79C0BD",
"$. c #30AFC5",
"%. c #00B7EF",
"&. c #41BDD4",
"*. c #55C9C1",
"=. c #5ECBC4",
"-. c #5CCDC5",
";. c #5CCFC8",
":. c #63C6C1",
">. c #60CBC4",
",. c #63CFC8",
"<. c #6ECDC8",
"1. c #79C6C3",
"2. c #77CAC7",
"3. c #67D4CD",
"4. c #6BD0CA",
"5. c #6BD6D0",
"6. c #6FDCD5",
"7. c #7ED3D0",
"8. c #7FD5D2",
"9. c #73D8D2",
"0. c #73D9D4",
"q. c #79D9D4",
"w. c #7CDFDA",
"e. c #79E6DF",
"r. c #57CFE6",
"t. c #8F8780",
"y. c #8E8686",
"u. c #9E8E81",
"i. c #969494",
"p. c #AE9E91",
"a. c #A39E99",
"s. c #85AA9B",
"d. c #A8A19A",
"f. c #BFAC9D",
"g. c #848CA0",
"h. c #85AEA2",
"j. c #89A0AE",
"k. c #89B5AD",
"l. c #9DB9AB",
"z. c #B1ACAC",
"x. c #BAB3B3",
"c. c #D4B79C",
"v. c #C7B5A5",
"b. c #C2B8B8",
"n. c #A2C2B9",
"m. c #E3CAB3",
"M. c #EBD0B7",
"N. c #F5D9BE",
"B. c #8EB8C0",
"V. c #80CFCC",
"C. c #85D4CF",
"Z. c #8DD8D3",
"A. c #80DDD8",
"S. c #84DFDB",
"D. c #8BDAD8",
"F. c #92DAD8",
"G. c #9ADEDC",
"H. c #9DDFDC",
"J. c #87E2DC",
"K. c #8BE1DC",
"L. c #93E2DD",
"P. c #88D4E3",
"I. c #8BE7E1",
"U. c #80EAE3",
"Y. c #88EDE7",
"T. c #8AEEE8",
"R. c #9BE8E4",
"E. c #91F2EC",
"W. c #9CF4EF",
"Q. c #9CF6F1",
"!. c #A6E7E3",
"~. c #AAE4E1",
"^. c #AFEFEB",
"/. c #B6EDED",
"(. c #A7F2EF",
"). c #B0F1EF",
"_. c #A3F6F2",
"`. c #A9F6F2",
"'. c #B0FAF6",
"]. c #B8FFFB",
"[. c #CADED4",
"{. c #EFDBC9",
"}. c #F1D7D0",
"|. c #F9D7D2",
" X c #F4DCD3",
".X c #FADDD7",
"XX c #D2E4D8",
"oX c #F6E1CC",
"OX c #F9E4D0",
"+X c #FAE8D7",
"@X c #D3F3EA",
"#X c #FFF1E5",
/* pixels */
"/./././././././././././././././././././././././././././././././././././././././././././././././././././././././././././././././.",
"/./././././././././././././././././././././././././././././././././././././././././././././././././././././././././././././././.",
"/./././././././././././././././././././././././././././././././././././././././././././././././././././././././././././././././.",
"/./././././././././././././././././././././././././././././././././././././././././././././././././././././././././././././././.",
"/./././././././././././././././././././././././././././././././././././././././././././././././././././././././././././././././.",
"/./././././././././././././././././././././././././././././././././././././././././././././././././././././././././././././././.",
"/./././././././././././././././././././.I I I I /./././././././././././././.I I I /././././././././././././././././././././././.",
"/././././././././././././././././././.I     ;   /./././././././././././././.  ;   I /./././././././././././././././././././././.",
"/./././././././././././././././././.I   > > :   /./././././././././././././.  : >   I /././././././././././././././././././././.",
"/./././././././././././././././././.  ; a a     /.#.#.#.#.#.#.#.#.#.#.#.#./.    a ;   /././././././././././././././././././././.",
"/././././././././././././././.[ [ [   s   +     #.K K K N N N N N N K K K #.      s   I [ [ [ /././././././././././././././././.",
"/./././././././././././././.X.0 0 @ > : + 1 + $ K ) ! ! ) ) ) ) ) ) ......K $   i : > > @ 0 0 X././././././././././././././././.",
"/././././././././././././.X.6 ) 8 > a 3 7 7 7 H ^ ! ) ) <.<.<.<.<.<.<.<.<...K 2 #.  a a > 8 ) 6 X./././././././././././././././.",
"/././././././././././././.6 B )   f   ) n n H L L G +.<.<.<.<.<.<.<.<.<.<.<...| K 2     f   ) B B X././././././././././././././.",
"/./././././././././././.1.B  .)   s   P m m L W W W ..<.<.<.<.<.<.<.<.<.<.<.<.<...L 2 2 :   {  . .B 1./././././././././././././.",
"/./././././././././././.M Z. .)   : $ m m m W <.<.<.<.<.4.4.4.<.<.<.<.4.4.4.<.<.<.W L L $    . . .Z.M /././././././././././././.",
"/./././././././././././.M ]. .)     n J n n H.<.<.<.<.<.3.3.3.<.<.<.<.3.3.3.<.<.<.H.n n n    . . .].M /././././././././././././.",
"/./././././././././././.M K.Z.C.p $ m J n n ~.H.H.H.H.4.3.6.6.4.4.H.H.3.3.3.H.H.~ ^.( ( n $ Z.Z.Z.K.M /././././././././././././.",
"/./././././././././././.M ' K.K.K.n J m W W <.!.!.^.^.6.6.] e.6.6.^.^.6.3.3.!.!.Q ] ] ] ( n K.K.K.' M /././././././././././././.",
"/./././././././././././.M ' ' ' ' n J n <.<.<.3.3.e.e.e.] n ] e.e.e.e.e.6.6.6.3.3.n W W ] ( T ' ' ' M /././././././././././././.",
"/./././././././././././.M O.' ' ' n m W <.<.4.3.6.e.] ] h.h.n e.e.Y.Y.] ] Y.e.6.3.W ~ <.n ] n T T O.M /././././././././././././.",
"/./././././././././././.C >.O.O.O.n n <.<.4.3.6.e.] h.h.oXoXn Y.Y.Q.@.h.n @.Y.Y.6.<.n ~ W n R R R >.C /././././././././././././.",
"/./././././././././././.Z >.>.9 9 n n <.4.3.6.Y.] h.oXoXoXoXn Q.Q.@.h.oXh.h.@.Q.Y.9.( n <.n >.>.>.>.Z /././././././././././././.",
"/./././././././././././.Z >.>.  ; n n 4.3.6.e.Q.n oXoXoXoXl.n Q.Q.n oXoXoXoXn @.Q.e.e.n <.n >.>.>.>.Z /././././././././././././.",
"/./././././././././././.Z >.9 ; d n n 3.6.e.e.Q.n j       n ` @.@.h.oX      < h.@.e.e.n A.n >.>.>.>.Z /././././././././././././.",
"/././././././././././.2./ >.  s g h n 6.e.e.Y.@.n   U   $ n @.h.h.oX+XU       +Xn e.e.n Q.n >.,.,.>./ 2././././././././././././.",
"/././././././././././.Z J.J.  s g g n e.e.Y.Q.` k.#X    < k.h.+X+X+X#X      #X#Xn Y.e.( @.Q ,.3.3.J.J.Z /./././././././././././.",
"/././././././././././.Z W.W.  : f g n e.Y.Q.Q.@.#X#X# # # #X+X#X#X#X#X# # # #X#Xn Q.Y.e.n 3.3.I.I.W.W.Z /./././././././././././.",
"/./././././././././.2.Z e.e.8   s f r ] Q.Q.Q.n .X.Xg.j.j.#X#X#X#X#X#Xj.j.g..X.Xn Q.Q.]  .3.6.W.W.e.e.Z /./././././././././././.",
"/././././././././.2.Z _ e.e.e.  : : : n Q.Q.Q.n |.|.|.#X#X#X#X#X#X#X#X#X#X|.|.|.n Q.Q.n ].3.e.e.e.e.e.Z 2./././././././././././.",
"/./././././././.2.Z _ =.e.e.e.8 8 8 8 n @.Q.Q.n #X#X#X#X#X#X#X X X#X#X#X#X#X#X#Xn Q.Q.n W.6.e.e.e.e.=._ Z 2.2./././././././././.",
"/./././././.V.V.A A =.D e.e.e.e.e.e.;.} n Q.@.n t.#X#X#Xd.d.#X}.}.#X#X#X#X#X#Xn.n Q.@.} ;.e.e.e.e.e.D =.A A V.V.V./././././././.",
"/./././././././././.7.o.e.e.e.e.e.e.;.} } @.@.} i t.t.t.% % OXOXOXOXOXOXOXOXn.@Xn @.(.} ;.e.e.e.e.e.o.e.7./././././././././././.",
"/./././././././././.7.*.e.e.e.e.e.e.F /./.} n /./.i o o     v.u.u.v.v.f.u.u.n n } } /./.F e.e.e.e.e.e.*.7./././././././././././.",
"/./././././././././.7.-.U.U.U.e.e.e.F /./././.} /.XXXXe * - y 5 5 y y.y e s.n /././././.F e.U.U.U.U.U.-.7./././././././././././.",
"/./././././././././.7.-.T.e.e.U.U.F /./././././.[.OXN.e i.y y &.&.y y i.e M.{.[./././././.F e.e.e.T.T.-.7./././././././././././.",
"/./././././././././.7.-.T.e.e.U.U.F /././././.Y m.#XN.e i.x.y &.&.y x.i.e N.#Xm.Y /./././.F e.e.e.T.T.-.7./././././././././././.",
"/././././././././.7.F -.T.T.T.T.T.F /./././.Y = x #Xp.e i.x.v &.&.v x.i.e p.#Xx = Y /././.F T.T.T.T.T.-.7./././././././././././.",
"/./././././././.D.5.T.T.T.T.T.T.T.F /././.Y , u = a.e i.i.z.v &.&.v z.i.i.e a.= u , Y /./.F T.T.T.T.T.T.5.D././././././././././.",
"/./././././././.D.5.T.T.E.E.E.o.o.F /./.Y , z E b 4 i.i.z.b.V r.    x.z.i.i.4 b E z , Y /.F o.E.E.E.E.T.5.D././././././././././.",
"/./././././././.D.0.E.E.E.E.Q.o./././.O l         e i.i.z.x.V r.r.V x.z.i.i.e B.    z k Y /.o.Q.Q.E.E.E.0.D././././././././././.",
"/./././././././.D.0.E.Q.Q.Q.Q.o././.O %.& & &   e i.z.z.x.x.V r.    x.x.z.z.i.e   w & & %.O o.Q.Q.Q.Q.E.0.D././././././././././.",
"/././././././.D.D.0.Q.Q.Q.Q.Q.o././.O P.%.& & & e i.z.z.x.x.V r.r.V x.x.z.z.i.e & & & %.P.O o.Q.Q.Q.Q.Q.0.D.D.D././././././././.",
"/././././././.D.q.`.`._._.`.o.o./././.O P.%.%.e i.i.z.z.x.x.x.V V x.x.x.z.z.i.i.e %.%.P.O /.o.o.`.`._._.`.q.).D././././././././.",
"/././././././.D.q.`.`.`.Q.`.o.8././././.O O O e e e e e e e e x.x.e e e e e e e e O O O /./.8.o.`.`.Q.`.`.`.q.D././././././././.",
"/././././././.D.A.`.`.'.'.S.o./././././.N.#XO O   = . X   = . X X = . X   = .   = = #XN./././.o.S.w.'.'.`.'.A.D././././././././.",
"/././././././.D.A.'.'.'.].o.8./././././.N.N.#X#X  $.S X   $.S X X $.S X   $.S   #X#XN.N./././.8.8.o.'.'.'.'.A.D././././././././.",
"/././././././.D.:.'.'.].].o././././././././.N.N.                                N.N./././././././.o.].].].'.:.D././././././././.",
"/./././././././.:.L.].].].o./././././././././././.m.#X#X#XoXc././.m.#X#XoXoXc././././././././././.o.].].].L.:./././././././././.",
"/./././././././.G.L.].].].o./././././././././././.m.#X#X#XoXc././.m.#X#XoXoXc././././././././././.o.].].].L.G./././././././././.",
"/./././././././.G.2.R.].].:.G././././././././././.            /./.            /./././././././.G.G.:.].].R.2.G./././././././././.",
"/././././././././.F.F.2.R.L.2.G.G././././././././.% t t t q   /./.% t t q q   /././././././.G.2.2.].R.2.F.F././././././././././.",
"/./././././././././././.2.R.2.2.2.G.G././././././.% % % %     /./.% % %       /././././.G.G.2.2.2.2.2./././././././././././././.",
"/././././././././././././.F.F.2.2.2.2.G./././././.% $.$.$.c   /./.% $.$.c c   /././.G.G.2.2.2.F.F.F././././././././././././././.",
"/././././././././././././././.F.F.F.F.F./././././.% % % %     /./.% % %       /././.F.F.F.F.F./././././././././././././././././.",
"/./././././././././././././././././././././././././.% % %   /./././.% %     /./././././././././././././././././././././././././.",
"/./././././././././././././././././././././././././././././././././././././././././././././././././././././././././././././././.",
"/./././././././././././././././././././././././././././././././././././././././././././././././././././././././././././././././.",
"/./././././././././././././././././././././././././././././././././././././././././././././././././././././././././././././././.",
"/./././././././././././././././././././././././././././././././././././././././././././././././././././././././././././././././.",
"/./././././././././././././././././././././././././././././././././././././././././././././././././././././././././././././././.",
"/./././././././././././././././././././././././././././././././././././././././././././././././././././././././././././././././.",
"/./././././././././././././././././././././././././././././././././././././././././././././././././././././././././././././././.",
"/./././././././././././././././././././././././././././././././././././././././././././././././././././././././././././././././."
};
