/* XPM */
static char *_cbdd951b53d4c10aac826d676ad41fe4XF5XvhqRf5p4nKs[] = {
/* columns rows colors chars-per-pixel */
"64 64 192 2 ",
"   c black",
".  c #101313",
"X  c #171313",
"o  c #151416",
"O  c #0A2625",
"+  c #0D312F",
"@  c #132A39",
"#  c #133B38",
"$  c #222121",
"%  c #2A292A",
"&  c #2E3538",
"*  c #3E3B3B",
"=  c #4A0016",
"-  c #5E001C",
";  c #690020",
":  c #77782A",
">  c #194B48",
",  c #175754",
"<  c #284A48",
"1  c #294E4C",
"2  c #3F4246",
"3  c #196777",
"4  c #1C7772",
"5  c #206C67",
"6  c #346462",
"7  c #36726E",
"8  c #367F7B",
"9  c #444242",
"0  c #555357",
"q  c #634B5E",
"w  c #625E5E",
"e  c #605E61",
"r  c #44666E",
"t  c #506868",
"y  c #5F6C6C",
"u  c #51706E",
"i  c #706A65",
"p  c #850029",
"a  c #A80032",
"s  c #C7003C",
"d  c #CF003F",
"f  c #EE004A",
"g  c #824B68",
"h  c #8A7E72",
"j  c #888835",
"k  c #FBF233",
"l  c #B9B350",
"z  c #94887D",
"x  c #1C7D8E",
"c  c #287785",
"v  c #567B84",
"b  c #2C8681",
"n  c #3B8F8A",
"m  c #2C948E",
"M  c #3C918C",
"N  c #3F958F",
"B  c #2E8E9F",
"V  c #2A9892",
"C  c #289E97",
"Z  c #30A29C",
"A  c #2394A8",
"S  c #3CA8A1",
"D  c #38B2AA",
"F  c #40948F",
"G  c #419590",
"H  c #479692",
"J  c #429994",
"K  c #469994",
"L  c #479F9A",
"P  c #668585",
"I  c #7A8A89",
"U  c #7A9C9D",
"Y  c #41A39D",
"T  c #43A49E",
"R  c #789DA4",
"E  c #49A5A0",
"W  c #46A8A2",
"Q  c #57AAA6",
"!  c #51AEA8",
"~  c #5CAEAA",
"^  c #41B2AB",
"/  c #4EB0AA",
"(  c #5DB2AE",
")  c #4CBEB7",
"_  c #5DB7B2",
"`  c #53BAB3",
"'  c #57BCB5",
"]  c #70ABAA",
"[  c #63B6B1",
"{  c #69B3B0",
"}  c #63B8B4",
"|  c #6BBAB5",
" . c #64BEB9",
".. c #72B9B7",
"X. c #54C2BD",
"o. c #57C3BC",
"O. c #59C1BA",
"+. c #67C1BC",
"@. c #6AC5BF",
"#. c #79C0BD",
"$. c #30AFC5",
"%. c #41BDD4",
"&. c #55C9C1",
"*. c #5ECBC4",
"=. c #5CCDC5",
"-. c #5CCFC8",
";. c #63C6C1",
":. c #60CBC4",
">. c #63CFC8",
",. c #6ECDC8",
"<. c #79C6C3",
"1. c #77CAC7",
"2. c #67D4CD",
"3. c #6BD0CA",
"4. c #6BD6D0",
"5. c #6FDCD5",
"6. c #7ED3D0",
"7. c #7FD5D2",
"8. c #73D8D2",
"9. c #73D9D4",
"0. c #79D9D4",
"q. c #7CDFDA",
"w. c #79E6DF",
"e. c #57CFE6",
"r. c #8F8780",
"t. c #8E8686",
"y. c #9E8E81",
"u. c #969494",
"i. c #AE9E91",
"p. c #A39E99",
"a. c #85AA9B",
"s. c #A8A19A",
"d. c #BFAC9D",
"f. c #848CA0",
"g. c #85AEA2",
"h. c #89A0AE",
"j. c #89B5AD",
"k. c #9DB9AB",
"l. c gray66",
"z. c #B1ACAC",
"x. c #BAB3B3",
"c. c #D4B79C",
"v. c #C7B5A5",
"b. c #C2B8B8",
"n. c #A2C2B9",
"m. c #E3CAB3",
"M. c #EBD0B7",
"N. c #F5D9BE",
"B. c #8EB8C0",
"V. c #80CFCC",
"C. c #85D4CF",
"Z. c #8DD8D3",
"A. c #80DDD8",
"S. c #84DFDB",
"D. c #8BDAD8",
"F. c #92DAD8",
"G. c #9ADEDC",
"H. c #9DDFDC",
"J. c #87E2DC",
"K. c #8BE1DC",
"L. c #93E2DD",
"P. c #88D4E3",
"I. c #8BE7E1",
"U. c #80EAE3",
"Y. c #88EDE7",
"T. c #8AEEE8",
"R. c #9BE8E4",
"E. c #91F2EC",
"W. c #9CF4EF",
"Q. c #9CF6F1",
"!. c #A6E7E3",
"~. c #AAE4E1",
"^. c #AFEFEB",
"/. c #B6EDED",
"(. c #A7F2EF",
"). c #B0F1EF",
"_. c #A3F6F2",
"`. c #A9F6F2",
"'. c #B0FAF6",
"]. c #B8FFFB",
"[. c #CADED4",
"{. c #EFDBC9",
"}. c #F1D7D0",
"|. c #F9D7D2",
" X c #F4DCD3",
".X c #FADDD7",
"XX c #D2E4D8",
"oX c #F6E1CC",
"OX c #F9E4D0",
"+X c #FAE8D7",
"@X c #D3F3EA",
"#X c #FFF1E5",
/* pixels */
"/./././././././././././././././././././././././././././././././././././././././././././././././././././././././././././././././.",
"/./././././././././././././././././././././././././././././././././././././././././././././././././././././././././././././././.",
"/./././././././././././././././././././././././././././././././././././././././././././././././././././././././././././././././.",
"/./././././././././././././././././././././././././././././././././././././././././././././././././././././././././././././././.",
"/./././././././././././././././././././././././././././././././././././././././././././././././././././././././././././././././.",
"/./././././././././././././././././././././././././././././././././././././././././././././././././././././././././././././././.",
"/./././././././././././././././././././.P P P P /./././././././././././././.P P P /././././././././././././././././././././././.",
"/././././././././././././././././././.P     =   /./././././././././././././.  =   P /./././././././././././././././././././././.",
"/./././././././././././././././././.P   ; ; -   /./././././././././././././.  - ;   P /././././././././././././././././././././.",
"/./././././././././././././././././.  = p p     /.#.#.#.#.#.#.#.#.#.#.#.#./.    p =   /././././././././././././././././././././.",
"/././././././././././././././.] ] ]   a   O     #.J J J M M M M M M J J J #.      a   P ] ] ] /././././././././././././././././.",
"/./././././././././././././...8 8 + ; - O , O # J ( Q Q ( ( ( ( ( (  . . .J #   t - ; ; + 8 8 .././././././././././././././././.",
"/././././././././././././...4 ( 6 ; p 1 5 5 5 G ~ Q ( ( ,.,.,.,.,.,.,.,.,. .J < #.  p p ; 6 ( 4 ../././././././././././././././.",
"/././././././././././././.4 N (   d   ( b b G K K F +.,.,.,.,.,.,.,.,.,.,.,. .} J <     d   ( N N .././././././././././././././.",
"/./././././././././././.<.N | (   a   L n n K E E E  .,.,.,.,.,.,.,.,.,.,.,.,.,. .K < < -   [ | | N <./././././././././././././.",
"/./././././././././././.m Z.| (   - # n n n E ,.,.,.,.,.3.3.3.,.,.,.,.3.3.3.,.,.,.E K K #   | | | Z.m /././././././././././././.",
"/./././././././././././.m ].| (     b H b b H.,.,.,.,.,.2.2.2.,.,.,.,.2.2.2.,.,.,.H.b b b   | | | ].m /././././././././././././.",
"/./././././././././././.m K.Z.C.u # n H b b ~.H.H.H.H.3.2.5.5.3.3.H.H.2.2.2.H.H.! ^./ / b # Z.Z.Z.K.m /././././././././././././.",
"/./././././././././././.m ` K.K.K.b H n E E ,.!.!.^.^.5.5.' w.5.5.^.^.5.2.2.!.!.W ' ' ' / b K.K.K.` m /././././././././././././.",
"/./././././././././././.m ` ` ` ` b H b ,.,.,.2.2.w.w.w.' b ' w.w.w.w.w.5.5.5.2.2.b E E ' / Y ` ` ` m /././././././././././././.",
"/./././././././././././.m O.` ` ` b n E ,.,.3.2.5.w.' ' g.g.b w.w.Y.Y.' ' Y.w.5.2.E ! ,.b ' b Y Y O.m /././././././././././././.",
"/./././././././././././.V :.O.O.O.b b ,.,.3.2.5.w.' g.g.oXoXb Y.Y.Q.@.g.b @.Y.Y.5.,.b ! E b T T T :.V /././././././././././././.",
"/./././././././././././.C :.:.7 7 b b ,.3.2.5.Y.' g.oXoXoXoXb Q.Q.@.g.oXg.g.@.Q.Y.8./ b ,.b :.:.:.:.C /././././././././././././.",
"/./././././././././././.C :.:.  = b b 3.2.5.w.Q.b oXh h h k.b Q.Q.b oXh h h b @.Q.w.w.b ,.b :.:.:.:.C /././././././././././././.",
"/./././././././././././.C :.7 = s b b 2.5.w.w.Q.b h y     b _ @.@.g.oXy     > g.@.w.w.b A.b :.:.:.:.C /././././././././././././.",
"/././././././././././.1.^ :.  a f g b 5.w.w.Y.@.b i I   # b @.g.g.oX+XI     i +Xb w.w.b Q.b :.>.>.:.^ 1././././././././././././.",
"/././././././././././.C J.J.  a f f b w.w.Y.Q._ j.#X    > j.g.+X+X+X#X      #X#Xb Y.w./ @.W >.2.2.J.J.C /./././././././././././.",
"/././././././././././.C W.W.  - d f b w.Y.Q.Q.@.#X#X@ @ @ #X+X#X#X#X#X@ @ @ #X#Xb Q.Y.w.b 2.2.I.I.W.W.C /./././././././././././.",
"/./././././././././.1.C w.w.6   a d q ' Q.Q.Q.b .X.Xf.h.h.#X#X#X#X#X#Xh.h.f..X.Xb Q.Q.' | 2.5.W.W.w.w.C /./././././././././././.",
"/././././././././.1.C ) w.w.w.  - - - b Q.Q.Q.b |.|.|.#X#X#X#X#X#X#X#X#X#X|.|.|.b Q.Q.b ].2.w.w.w.w.w.C 1./././././././././././.",
"/./././././././.1.C ) *.w.w.w.6 6 6 6 b @.Q.Q.b #X#X#X#X#X#X#X X X#X#X#X#X#X#X#Xb Q.Q.b W.5.w.w.w.w.*.) C 1.1./././././././././.",
"/./././././.V.V.Z Z *.S w.w.w.w.w.w.-.{ b Q.@.b r.#X#X#Xs.s.#X}.}.#X#X#X#X#X#Xn.b Q.@.{ -.w.w.w.w.w.S *.Z Z V.V.V./././././././.",
"/./././././././././.6.o.w.w.w.w.w.w.-.{ { @.@.{ t r.r.r.$ $ OXOXOXOXOXOXOXOXn.@Xb @.(.{ -.w.w.w.w.w.o.w.6./././././././././././.",
"/./././././././././.6.&.w.w.w.w.w.w.D /./.{ b /./.t o o     v.y.y.v.v.d.y.y.b b { { /./.D w.w.w.w.w.w.&.6./././././././././././.",
"/./././././././././.6.=.U.U.U.w.w.w.D /./././.{ /.XXXX0 % * e 3 3 e t.e 0 a.b /././././.D w.U.U.U.U.U.=.6./././././././././././.",
"/./././././././././.6.=.T.w.w.U.U.D /./././././.[.OXN.0 u.e e %.%.e e u.0 M.{.[./././././.D w.w.w.T.T.=.6./././././././././././.",
"/./././././././././.6.=.T.w.w.U.U.D /././././.U m.#XN.0 u.x.e %.%.e x.u.0 N.#Xm.U /./././.D w.w.w.T.T.=.6./././././././././././.",
"/././././././././.6.D =.T.T.T.T.T.D /./././.U & z #Xi.0 u.x.c %.%.c x.u.0 i.#Xz & U /././.D T.T.T.T.T.=.6./././././././././././.",
"/./././././././.D.4.T.T.T.T.T.T.T.D /././.U : r & p.0 u.u.z.c %.%.c z.u.u.0 p.& r : U /./.D T.T.T.T.T.T.4.D././././././././././.",
"/./././././././.D.4.T.T.E.E.E.o.o.D /./.U : l R v 2 u.u.z.b.B e.    x.z.u.u.2 v R l : U /.D o.E.E.E.E.T.4.D././././././././././.",
"/./././././././.D.9.E.E.E.E.Q.o./././.& k u.u.u.u.0 u.u.z.x.B e.e.B x.z.u.u.0 B.u.u.l j U /.o.Q.Q.E.E.E.9.D././././././././././.",
"/./././././././.D.9.E.Q.Q.Q.Q.o././.& P.l.l.l.u.0 u.z.z.x.x.B e.    x.x.z.z.u.0 u.l.l.l.P.& o.Q.Q.Q.Q.E.9.D././././././././././.",
"/././././././.D.D.9.Q.Q.Q.Q.Q.o././.& P.P.l.l.l.0 u.z.z.x.x.B e.e.B x.x.z.z.u.0 l.l.l.P.P.& o.Q.Q.Q.Q.Q.9.D.D.D././././././././.",
"/././././././.D.0.`.`._._.`.o.o./././.& P.P.P.0 u.u.z.z.x.x.x.B B x.x.x.z.z.u.u.0 P.P.P.& /.o.o.`.`._._.`.0.).D././././././././.",
"/././././././.D.0.`.`.`.Q.`.o.7././././.& & & 0 0 0 0 0 0 0 0 x.x.0 0 0 0 0 0 0 0 & & & /./.7.o.`.`.Q.`.`.`.0.D././././././././.",
"/././././././.D.A.`.`.'.'.S.o./././././.N.#X& &   & . X   & . X X & . X   & .   & & #XN./././.o.S.q.'.'.`.'.A.D././././././././.",
"/././././././.D.A.'.'.'.].o.7./././././.N.N.#X#X  $.A X   $.A X X $.A X   $.A   #X#XN.N./././.7.7.o.'.'.'.'.A.D././././././././.",
"/././././././.D.;.'.'.].].o././././././././.N.N.                                N.N./././././././.o.].].].'.;.D././././././././.",
"/./././././././.;.L.].].].o./././././././././././.m.#X#X#XoXc././.m.#X#XoXoXc././././././././././.o.].].].L.;./././././././././.",
"/./././././././.G.L.].].].o./././././././././././.m.#X#X#XoXc././.m.#X#XoXoXc././././././././././.o.].].].L.G./././././././././.",
"/./././././././.G.1.R.].].;.G././././././././././.            /./.            /./././././././.G.G.;.].].R.1.G./././././././././.",
"/././././././././.F.F.1.R.L.1.G.G././././././././.$ w w w 9   /./.$ w w 9 9   /././././././.G.1.1.].R.1.F.F././././././././././.",
"/./././././././././././.1.R.1.1.1.G.G././././././.$ $ $ $     /./.$ $ $       /././././.G.G.1.1.1.1.1./././././././././././././.",
"/././././././././././././.F.F.1.1.1.1.G./././././.$ $.$.$.x   /./.$ $.$.x x   /././.G.G.1.1.1.F.F.F././././././././././././././.",
"/././././././././././././././.F.F.F.F.F./././././.$ $ $ $     /./.$ $ $       /././.F.F.F.F.F./././././././././././././././././.",
"/./././././././././././././././././././././././././.$ $ $   /./././.$ $     /./././././././././././././././././././././././././.",
"/./././././././././././././././././././././././././././././././././././././././././././././././././././././././././././././././.",
"/./././././././././././././././././././././././././././././././././././././././././././././././././././././././././././././././.",
"/./././././././././././././././././././././././././././././././././././././././././././././././././././././././././././././././.",
"/./././././././././././././././././././././././././././././././././././././././././././././././././././././././././././././././.",
"/./././././././././././././././././././././././././././././././././././././././././././././././././././././././././././././././.",
"/./././././././././././././././././././././././././././././././././././././././././././././././././././././././././././././././.",
"/./././././././././././././././././././././././././././././././././././././././././././././././././././././././././././././././.",
"/./././././././././././././././././././././././././././././././././././././././././././././././././././././././././././././././."
};
