/* XPM */
static char *eb09e10b57374ae4bc6f0a7b33ada1bdg3SSH4Hpbi3J2Bb0[] = {
/* columns rows colors chars-per-pixel */
"64 64 85 1 ",
"  c #B6EDED",
". c black",
"X c #030000",
"o c gray8",
"O c #1C1B1C",
"+ c gray11",
"@ c #1E2324",
"# c #212021",
"$ c #262525",
"% c gray15",
"& c #312E32",
"* c #2E3638",
"= c #323033",
"- c #175754",
"; c #1B5C57",
": c #1C5E5B",
"> c #125966",
", c #1F6E6A",
"< c #216E67",
"1 c #257A75",
"2 c #444242",
"3 c #565357",
"4 c #7B7272",
"5 c #8A012D",
"6 c #9C0034",
"7 c #A80032",
"8 c #BA0239",
"9 c #D40446",
"0 c #DB0448",
"q c #EE004A",
"w c #F50049",
"e c #947C66",
"r c #28857E",
"t c #D4CC1B",
"y c #FBF233",
"u c #A68B74",
"i c #1D7D8E",
"p c #2C6083",
"a c #287785",
"s c #2D8681",
"d c #2C9189",
"f c #2F998D",
"g c #2E8E9F",
"h c #309C93",
"j c #35A196",
"k c #3DA89F",
"l c #2494A8",
"z c #3CA8A1",
"x c #38B2AA",
"c c #479692",
"v c #509F9B",
"b c #59A8A3",
"n c #48B5AC",
"m c #5DB2AE",
"M c #4DB8B1",
"N c #51C2BA",
"B c #54C2BD",
"V c #5DC2BB",
"C c #30AFC5",
"Z c #00B7EF",
"A c #60CBC4",
"S c #6FCDC8",
"D c #68D4CD",
"F c #72D4CD",
"G c #7FD4CF",
"H c #70DBD2",
"J c #79E6DF",
"K c #858383",
"L c #969494",
"P c #B1ACAC",
"I c #BAB3B3",
"U c #E6C5A8",
"Y c #F2D9BF",
"T c #F5D9BE",
"R c #88D4E3",
"E c #80E8E1",
"W c #8AEEE8",
"Q c #9CF6F1",
"! c #A9F6F2",
"~ c #B8FFFB",
"^ c #F4C3C3",
"/ c #F6E1CC",
"( c #D7ECFA",
") c #D9F6F5",
"_ c #FFF1E5",
/* pixels */
"                                                                ",
"                                                                ",
"                                                                ",
"                                                                ",
"                     .                                          ",
"                    .q.                                         ",
"                   ...0.                                        ",
"                  ..5..q.                                       ",
"                 ..5. ..0.                                      ",
"                ..---- ..q.sssssssssss                          ",
"               .::ffff-s..0.ccccccvvvsss                        ",
"              .-jjjffff-S..q.ccvmmmSSSSss                       ",
"              .:kjjjjfff-S..q.vmmSSSSSSSs                       ",
"              ,,kjjjjjff:S..5.mSSSSSSSSDss                      ",
"              ,~kkkjjjjj:..9.vmSSSSSSSSSDDs                     ",
"             1M~~kkkkjjj:.9.vmSSSSSSDsSSSDss                    ",
"             1nn~~~kkkkz,9.vmSSSSSSSDJsDDD)s                    ",
"             1nnnn~~~~~,9.cmSSSSSSDDDJQsD)Ds                    ",
"            1NNnnnnnn1,6..v))SSsmDDJJ)sssDJss                   ",
"            rNNNNnnnn16..vmSS))smJJ))ssssJJQs                   ",
"            rNNNNNNN11.cvmSSSSsmmJQQsYYYssJQs                   ",
"           dAANNNNNNrcvmSSSSSSsmJQssY///YsQs                    ",
"           dAAAANNNrrcm.....SSssssYY////YsQs                    ",
"           dAAAAAAddcv..777..SsYYY/...//ssQs                    ",
"           dAAAAAAdcv..78887..sYY/.(..//sQs                     ",
"           hSAAAAAdsv.78qwq87.sY///.../sss                      ",
"           hSSSSSh sS.78qwq87.sY//_...___T                      ",
"           hSSSSSh ss..78887..ss/__ppp___T                      ",
"            h~~SSh  ss..777..sJs/^^^_____T                      ",
"            zFF~~h  sss.....sDJJs/_______T                      ",
"            zHFFFhz  ssssb.sSSDQs//_____.                       ",
"            zHHHFFz   ;<ssb.sQQQQs......T                       ",
"             xEEHHz   ;<<sssbssQQsTTTTTT                        ",
"             xWEEHxx ;<<<<;   #ssss#                            ",
"             xWWEEEx ;<<<<;  3KK&&4=a                           ",
"             xWWWWEx ;<<<<;  3UUKK==3a                          ",
"             xQWWWWx ;<<<<; 3T_YUKLL=a                          ",
"             xQQWWWx ;<<<;; ..__TKPPL3a                         ",
"            BQQQQQWB;<<<<; .Z..TKLPIP3a                         ",
"            BQQQQQQB;<<<; .tOR..KLPII3g.                        ",
"            BQQQQQB ;<<; .tOOO.KKLLPI3gt.                       ",
"           B!!!QQQB ;<; .y%%OO.KKLLPII3gy.                      ",
"           B!!!!QQB ;<;.ZZ%%%.KKKLLPPI3goo.                     ",
"           B!!!!!!B ;UUU..RRR.KKKKLPPII3g..                     ",
"           B~~!!!!B  TT__.....3333333333..e                     ",
"           z~~~~!!B  ;TTTUUU.*@.*.*@.*.Xee                      ",
"            B~~~~~B   ;<; .l.Cl.C.Cl.C.l.                       ",
"             B~~~~B   ;;<...XXX...........                      ",
"              B~~~V    ;<;   euUYYYYYYU                         ",
"               V~~~V    ;;  euuuUY/__++                         ",
"                VG~~G    ;< ...ueTT_.%++                        ",
"                  GG~G     ;....   +2%%+++                      ",
"                    GGGG   .....   +22%%+i+                     ",
"                       GGR.......   +22%.C+                     ",
"                          .>>>>>.    ++.C++                     ",
"                          X......     ++++                      ",
"                                                                ",
"                                                                ",
"                                                                ",
"                                                                ",
"                                                                ",
"                                                                ",
"                                                                ",
"                                                                "
};
