/* XPM */
static char *charright31755964752[] = {
/* columns rows colors chars-per-pixel */
"64 64 84 1 ",
"  c black",
". c #030000",
"X c #1C1B1C",
"o c gray11",
"O c #1E2324",
"+ c #212021",
"@ c #262525",
"# c gray15",
"$ c #2E2C2C",
"% c #312E32",
"& c #2E3638",
"* c #323033",
"= c #175754",
"- c #1B5C57",
"; c #1C5E5B",
": c #125966",
"> c #1F6E6A",
", c #216E67",
"< c #257A75",
"1 c #444242",
"2 c #565357",
"3 c #7B7272",
"4 c #8A012D",
"5 c #9C0034",
"6 c #A80032",
"7 c #BA0239",
"8 c #D40446",
"9 c #DB0448",
"0 c #EE004A",
"q c #F50049",
"w c #947C66",
"e c #28857E",
"r c #D4CC1B",
"t c #FBF233",
"y c #A68B74",
"u c #1D7D8E",
"i c #2C6083",
"p c #287785",
"a c #2D8681",
"s c #2C9189",
"d c #2F998D",
"f c #2E8E9F",
"g c #309C93",
"h c #35A196",
"j c #3DA89F",
"k c #2494A8",
"l c #3CA8A1",
"z c #38B2AA",
"x c #479692",
"c c #509F9B",
"v c #59A8A3",
"b c #48B5AC",
"n c #5DB2AE",
"m c #4DB8B1",
"M c #51C2BA",
"N c #54C2BD",
"B c #009AC9",
"V c #30AFC5",
"C c #00B7EF",
"Z c #60CBC4",
"A c #6FCDC8",
"S c #68D4CD",
"D c #72D4CD",
"F c #7FD4CF",
"G c #70DBD2",
"H c #79E6DF",
"J c #858383",
"K c #969494",
"L c #B1ACAC",
"P c #E6C5A8",
"I c #F2D9BF",
"U c #F5D9BE",
"Y c #88D4E3",
"T c #80E8E1",
"R c #8AEEE8",
"E c #9CF6F1",
"W c #A9F6F2",
"Q c #B8FFFB",
"! c #F4C3C3",
"~ c #F6E1CC",
"^ c #D7ECFA",
"/ c #D9F6F5",
"( c #FFF1E5",
") c #B6EDED",
/* pixels */
"))))))))))))))))))))))))))))))))))))))))))))))))))))))))))))))))",
"))))))))))))))))))))))))))))))))))))))))))))))))))))))))))))))))",
"))))))))))))))))))))))))))))))))))))))))))))))))))))))))))))))))",
"))))))))))))))))))))))))))))))))))))))))))))))))))))))))))))))))",
"))))))))))))))))))))) ))))))))))))))))))))))))))))))))))))))))))",
")))))))))))))))))))) 0 )))))))))))))))))))))))))))))))))))))))))",
")))))))))))))))))))   9 ))))))))))))))))))))))))))))))))))))))))",
"))))))))))))))))))  4  0 )))))))))))))))))))))))))))))))))))))))",
")))))))))))))))))  4 )  9 ))))))))))))))))))))))))))))))))))))))",
"))))))))))))))))  4===)  0 aaaaaaaaaaa))))))))))))))))))))))))))",
")))))))))))))))  ;;ddd=a  9 xxxxxxcccaaa))))))))))))))))))))))))",
"))))))))))))))  =hhdddd=A  0 xxcnnnAAAAaa)))))))))))))))))))))))",
"))))))))))))))) ;jhhhddd=A  0 cnnAAAAAAAa)))))))))))))))))))))))",
"))))))))))))))))>jhhhhdd;A  4 nAAAAAAAASaa))))))))))))))))))))))",
"))))))))))))))))>Qjhhhhh;  8 cnAAAAAAAAASSa)))))))))))))))))))))",
")))))))))))))))<mQQjjhhh; 8 cnAAAAAASaAAASaa))))))))))))))))))))",
")))))))))))))))<bbQjjjjl>8 cnAAAAAAASHaSSS/a))))))))))))))))))))",
")))))))))))))))<bbbQQQQ>8 xnAAAAAASSSHEaS/Sa))))))))))))))))))))",
"))))))))))))))<MMbbbb<>5  c//AAanSSHH/aaaSHaa)))))))))))))))))))",
"))))))))))))))eMMMMbb<5  cnAA//anHH//aaaaHHEa)))))))))))))))))))",
"))))))))))))))eMMMMM<< xcnAAAAannHEEaIIIaaHEa)))))))))))))))))))",
")))))))))))))sZZMMMMexcnAAAAAAanHEaaI~~~IaEa))))))))))))))))))))",
")))))))))))))sZZZZMeexn     AAaaaaII~~~~IaEa))))))))))))))))))))",
")))))))))))))sZZZZZsxc  666  AaIII~   ~~aaEa))))))))))))))))))))",
")))))))))))))sZZZZZxc  67776  aII~ ^  ~~aEa)))))))))))))))))))))",
")))))))))))))gAZZZZac 670q076 aI~~(   ~aaa))))))))))))))))))))))",
")))))))))))))gAAAAAaA 670q076 aI~~(   (((U))))))))))))))))))))))",
")))))))))))))gAAAAAaa  67776  aa~((iii(((U))))))))))))))))))))))",
"))))))))))))))gQQAAlaa  666  aHa~!!!(((((U))))))))))))))))))))))",
"))))))))))))))lDDQQlaaa     aSHHa~(((((((U))))))))))))))))))))))",
"))))))))))))))lGDDDl)aaaav aAASEa~~((((( )))))))))))))))))))))))",
"))))))))))))))zGGGDl)-,,aav aEEEEa      U)))))))))))))))))))))))",
")))))))))))))))zTTGl)-,,,aaavaaEEaUUUUUU))))))))))))))))))))))))",
")))))))))))))))zWRTll-,,,,-)))+aaaa+))))))))))))))))))))))))))))",
")))))))))))))))zRRTzz)-,,,-)))PP%%3*p)))))))))))))))))))))))))))",
")))))))))))))))zRRTTz)-,,,-))PI(UJ**2p))))))))))))))))))))))))))",
")))))))))))))))zRRTTz)-,,,-))U((  KK*p))))))))))))))))))))))))))",
"))))))))))))))zERRRz))-,,,-))2U  C LK2p)))))))))))))))))))))))))",
"))))))))))))))zEEERz)))-,,-)2J  YXr L2p)))))))))))))))))))))))))",
"))))))))))))))zEEERN)))-,,- 2JJ XXXr 2f)))))))))))))))))))))))))",
"))))))))))))))EEEEE)))-,,; t2JJ XX##t f)))))))))))))))))))))))))",
")))))))))))))NNEEEN)))-,, B2JJJJ ###CC f))))))))))))))))))))))))",
")))))))))))))NWWWN)))-,,ww 2JJJJ YYY  PP))))))))))))))))))))))))",
"))))))))))))NWWEEN)))-,-www2JJJJ     ((Uf)))))))))))))))))))))))",
")))))))))))FNWWWN))))-,-)))2222222PPP~UU))))))))))))))))))))))))",
"))))))))))FQQQQF))))-,--)))  &+ & &+ * .))))))))))))))))))))))))",
"))))))))))FQQQF)))))-,-))).k Vk V Vk V k )))))))))))))))))))))))",
")))))))))FQQFF)))))-,-)))........... .....))))))))))))))))))))))",
"))))))))FQQF)))))),,-))))))))))PPPPPyw))))))))))))))))))))))))))",
")))))))FFFF))))))--)))))))))))oo~~Uyyyw)))))))))))))))))))))))))",
")))))))))))))))))-)))))))))ooo11o~wy...)))))))))))))))))))))))))",
")))))))))))))))))))))))))))oo11$#X)....)))))))))))))))))))))))))",
")))))))))))))))))))))))))))oV@$$oo). . .))))))))))))))))))))))))",
")))))))))))))))))))))))))))oV @o))....  .)))))))))))))))))))))))",
")))))))))))))))))))))))))))oVuo))) :::::.)))))))))))))))))))))))",
")))))))))))))))))))))))))))oooo)))....  .)))))))))))))))))))))))",
"))))))))))))))))))))))))))))))))))))))))))))))))))))))))))))))))",
"))))))))))))))))))))))))))))))))))))))))))))))))))))))))))))))))",
"))))))))))))))))))))))))))))))))))))))))))))))))))))))))))))))))",
"))))))))))))))))))))))))))))))))))))))))))))))))))))))))))))))))",
"))))))))))))))))))))))))))))))))))))))))))))))))))))))))))))))))",
"))))))))))))))))))))))))))))))))))))))))))))))))))))))))))))))))",
"))))))))))))))))))))))))))))))))))))))))))))))))))))))))))))))))",
"))))))))))))))))))))))))))))))))))))))))))))))))))))))))))))))))"
};
