/* XPM */
static char *da91e488283e42ffb961e5a9b9e57a92TVt4ogVMIOZA72nl[] = {
/* columns rows colors chars-per-pixel */
"64 64 82 1 ",
"  c black",
". c #030000",
"X c #1C1B1C",
"o c gray11",
"O c #212021",
"+ c gray15",
"@ c #2E2C2C",
"# c #312E32",
"$ c #2E3638",
"% c #323033",
"& c #175754",
"* c #1B5C57",
"= c #1C5E5B",
"- c #125966",
"; c #1F6E6A",
": c #216E67",
"> c #257A75",
", c #444242",
"< c #565357",
"1 c #7B7272",
"2 c #8A012D",
"3 c #9C0034",
"4 c #A80032",
"5 c #BA0239",
"6 c #D40446",
"7 c #DB0448",
"8 c #EE004A",
"9 c #F50049",
"0 c #947C66",
"q c #28857E",
"w c #D4CC1B",
"e c #FBF233",
"r c #A68B74",
"t c #1D7D8E",
"y c #2C6083",
"u c #287785",
"i c #2D8681",
"p c #2C9189",
"a c #2F998D",
"s c #2E8E9F",
"d c #309C93",
"f c #35A196",
"g c #3DA89F",
"h c #2494A8",
"j c #3CA8A1",
"k c #38B2AA",
"l c #479692",
"z c #509F9B",
"x c #59A8A3",
"c c #48B5AC",
"v c #5DB2AE",
"b c #4DB8B1",
"n c #51C2BA",
"m c #54C2BD",
"M c #009AC9",
"N c #30AFC5",
"B c #00B7EF",
"V c #60CBC4",
"C c #6FCDC8",
"Z c #68D4CD",
"A c #72D4CD",
"S c #7FD4CF",
"D c #70DBD2",
"F c #79E6DF",
"G c #858383",
"H c #969494",
"J c #B1ACAC",
"K c #E6C5A8",
"L c #F2D9BF",
"P c #F5D9BE",
"I c #88D4E3",
"U c #80E8E1",
"Y c #8AEEE8",
"T c #9CF6F1",
"R c #B6EDED",
"E c #A9F6F2",
"W c #B8FFFB",
"Q c #F4C3C3",
"! c #F6E1CC",
"~ c #D7ECFA",
"^ c #D9F6F5",
"/ c #FFF1E5",
/* pixels */
"RRRRRRRRRRRRRRRRRRRRRRRRRRRRRRRRRRRRRRRRRRRRRRRRRRRRRRRRRRRRRRRR",
"RRRRRRRRRRRRRRRRRRRRRRRRRRRRRRRRRRRRRRRRRRRRRRRRRRRRRRRRRRRRRRRR",
"RRRRRRRRRRRRRRRRRRRRRRRRRRRRRRRRRRRRRRRRRRRRRRRRRRRRRRRRRRRRRRRR",
"RRRRRRRRRRRRRRRRRRRRRRRRRRRRRRRRRRRRRRRRRRRRRRRRRRRRRRRRRRRRRRRR",
"RRRRRRRRRRRRRRRRRRRRRRRRRRRRRRRRRRRRRRRRRR RRRRRRRRRRRRRRRRRRRRR",
"RRRRRRRRRRRRRRRRRRRRRRRRRRRRRRRRRRRRRRRRR 8 RRRRRRRRRRRRRRRRRRRR",
"RRRRRRRRRRRRRRRRRRRRRRRRRRRRRRRRRRRRRRRR 7   RRRRRRRRRRRRRRRRRRR",
"RRRRRRRRRRRRRRRRRRRRRRRRRRRRRRRRRRRRRRR 8  2  RRRRRRRRRRRRRRRRRR",
"RRRRRRRRRRRRRRRRRRRRRRRRRRRRRRRRRRRRRR 7  R 2  RRRRRRRRRRRRRRRRR",
"RRRRRRRRRRRRRRRRRRRRRRRRRRiiiiiiiiiii 8  R&&&2  RRRRRRRRRRRRRRRR",
"RRRRRRRRRRRRRRRRRRRRRRRRiiizzzllllll 7  i&aaa==  RRRRRRRRRRRRRRR",
"RRRRRRRRRRRRRRRRRRRRRRRiiCCCCvvvzll 8  C&aaaaff&  RRRRRRRRRRRRRR",
"RRRRRRRRRRRRRRRRRRRRRRRiCCCCCCCvvz 8  C&aaafffg= RRRRRRRRRRRRRRR",
"RRRRRRRRRRRRRRRRRRRRRRiiZCCCCCCCCv 2  C=aaffffg;RRRRRRRRRRRRRRRR",
"RRRRRRRRRRRRRRRRRRRRRiZZCCCCCCCCCvz 6  =fffffgW;RRRRRRRRRRRRRRRR",
"RRRRRRRRRRRRRRRRRRRRiiZCCCiZCCCCCCvz 6 =fffggWWb>RRRRRRRRRRRRRRR",
"RRRRRRRRRRRRRRRRRRRRi^ZZZiFZCCCCCCCvz 6;jggggWcc>RRRRRRRRRRRRRRR",
"RRRRRRRRRRRRRRRRRRRRiZ^ZiTFZZZCCCCCCvl 6;WWWWccc>RRRRRRRRRRRRRRR",
"RRRRRRRRRRRRRRRRRRRiiFZiii^FFZZviCC^^z  3;>ccccnn>RRRRRRRRRRRRRR",
"RRRRRRRRRRRRRRRRRRRiTFFiiii^^FFvi^^CCvz  3>ccnnnnqRRRRRRRRRRRRRR",
"RRRRRRRRRRRRRRRRRRRiTFiiLLLiTTFvviCCCCvzl >>nnnnnqRRRRRRRRRRRRRR",
"RRRRRRRRRRRRRRRRRRRRiTiL!!!LiiTFviCCCCCCvzlqnnnnVVpRRRRRRRRRRRRR",
"RRRRRRRRRRRRRRRRRRRRiTiL!!!!LLiiiiCC     vlqqnVVVVpRRRRRRRRRRRRR",
"RRRRRRRRRRRRRRRRRRRRiTii!!   !LLLiC  444  zlpVVVVVpRRRRRRRRRRRRR",
"RRRRRRRRRRRRRRRRRRRRRiTi!!  ~ !LLi  45554  zlVVVVVpRRRRRRRRRRRRR",
"RRRRRRRRRRRRRRRRRRRRRRiii!   /!!Li 4589854 ziVVVVCdRRRRRRRRRRRRR",
"RRRRRRRRRRRRRRRRRRRRRRP///   /!!Li 4589854 CiCCCCCdRRRRRRRRRRRRR",
"RRRRRRRRRRRRRRRRRRRRRRP///yyy//!ii  45554  iiCCCCCdRRRRRRRRRRRRR",
"RRRRRRRRRRRRRRRRRRRRRRP/////QQQ!iFi  444  iijCCWWdRRRRRRRRRRRRRR",
"RRRRRRRRRRRRRRRRRRRRRRP///////!iFFZi     iiijWWAAjRRRRRRRRRRRRRR",
"RRRRRRRRRRRRRRRRRRRRRRR /////!!iTZCCi xiiiiRjAAADjRRRRRRRRRRRRRR",
"RRRRRRRRRRRRRRRRRRRRRRRP      iTTTTi xii::*RjADDDkRRRRRRRRRRRRRR",
"RRRRRRRRRRRRRRRRRRRRRRRRPPPPPPiTTiixiii:::*RjDUUkRRRRRRRRRRRRRRR",
"RRRRRRRRRRRRRRRRRRRRRRRRRRRROiiiiORRR*::::*jjUYEkRRRRRRRRRRRRRRR",
"RRRRRRRRRRRRRRRRRRRRRRRRRRRu%1##KKRRR*:::*RkkUYYkRRRRRRRRRRRRRRR",
"RRRRRRRRRRRRRRRRRRRRRRRRRRu<%%GP/LKRR*:::*RkUUYYkRRRRRRRRRRRRRRR",
"RRRRRRRRRRRRRRRRRRRRRRRRRRu%HH  //PRR*:::*RkUUYYkRRRRRRRRRRRRRRR",
"RRRRRRRRRRRRRRRRRRRRRRRRRu<HJ B  P<RR*:::*RRkYYYTkRRRRRRRRRRRRRR",
"RRRRRRRRRRRRRRRRRRRRRRRRRu<J wXI  G<R*::*RRRkYTTTkRRRRRRRRRRRRRR",
"RRRRRRRRRRRRRRRRRRRRRRRRRs< wXXX GG< *::*RRRmYTTTkRRRRRRRRRRRRRR",
"RRRRRRRRRRRRRRRRRRRRRRRRRs e++XX GG<e =::*RRRTTTTTRRRRRRRRRRRRRR",
"RRRRRRRRRRRRRRRRRRRRRRRRs BB+++ GGGG<M ::*RRRmTTTmmRRRRRRRRRRRRR",
"RRRRRRRRRRRRRRRRRRRRRRRRKK  III GGGG< 00::*RRRmEEEmRRRRRRRRRRRRR",
"RRRRRRRRRRRRRRRRRRRRRRRsP//     GGGG<000*:*RRRmTTEEmRRRRRRRRRRRR",
"RRRRRRRRRRRRRRRRRRRRRRRRPP!KKK<<<<<<<RRR*:*RRRRmEEEmSRRRRRRRRRRR",
"RRRRRRRRRRRRRRRRRRRRRRRR  % O$ $ O$  RRR**:*RRRRSWWWWSRRRRRRRRRR",
"RRRRRRRRRRRRRRRRRRRRRRR h N hN N hN h RRR*:*RRRRRSWWWSRRRRRRRRRR",
"RRRRRRRRRRRRRRRRRRRRRR                 RRR*:*RRRRRSSWWSRRRRRRRRR",
"RRRRRRRRRRRRRRRRRRRRRRRRRR0rKKKKKRRRRRRRRRR*::RRRRRRSWWSRRRRRRRR",
"RRRRRRRRRRRRRRRRRRRRRRRRR0rrrP!!ooRRRRRRRRRRR**RRRRRRSSSSRRRRRRR",
"RRRRRRRRRRRRRRRRRRRRRRRRR   r0!o,,oooRRRRRRRRR*RRRRRRRRRRRRRRRRR",
"RRRRRRRRRRRRRRRRRRRRRRRRR    RX+@,,ooRRRRRRRRRRRRRRRRRRRRRRRRRRR",
"RRRRRRRRRRRRRRRRRRRRRRRR     Roo@@+NoRRRRRRRRRRRRRRRRRRRRRRRRRRR",
"RRRRRRRRRRRRRRRRRRRRRRR       RRo+ NoRRRRRRRRRRRRRRRRRRRRRRRRRRR",
"RRRRRRRRRRRRRRRRRRRRRRR ----- RRRotNoRRRRRRRRRRRRRRRRRRRRRRRRRRR",
"RRRRRRRRRRRRRRRRRRRRRRR       RRRooooRRRRRRRRRRRRRRRRRRRRRRRRRRR",
"RRRRRRRRRRRRRRRRRRRRRRRRRRRRRRRRRRRRRRRRRRRRRRRRRRRRRRRRRRRRRRRR",
"RRRRRRRRRRRRRRRRRRRRRRRRRRRRRRRRRRRRRRRRRRRRRRRRRRRRRRRRRRRRRRRR",
"RRRRRRRRRRRRRRRRRRRRRRRRRRRRRRRRRRRRRRRRRRRRRRRRRRRRRRRRRRRRRRRR",
"RRRRRRRRRRRRRRRRRRRRRRRRRRRRRRRRRRRRRRRRRRRRRRRRRRRRRRRRRRRRRRRR",
"RRRRRRRRRRRRRRRRRRRRRRRRRRRRRRRRRRRRRRRRRRRRRRRRRRRRRRRRRRRRRRRR",
"RRRRRRRRRRRRRRRRRRRRRRRRRRRRRRRRRRRRRRRRRRRRRRRRRRRRRRRRRRRRRRRR",
"RRRRRRRRRRRRRRRRRRRRRRRRRRRRRRRRRRRRRRRRRRRRRRRRRRRRRRRRRRRRRRRR",
"RRRRRRRRRRRRRRRRRRRRRRRRRRRRRRRRRRRRRRRRRRRRRRRRRRRRRRRRRRRRRRRR"
};
