/* XPM */
static char *result[] = {
/* columns rows colors chars-per-pixel */
"64 64 81 1 ",
"  c black",
". c #0A0000",
"X c #171A1A",
"o c #1D1A1A",
"O c gray11",
"+ c #272626",
"@ c #343235",
"# c #32393B",
"$ c #3C3E3E",
"% c #1D5855",
"& c #1F6876",
"* c #237671",
"= c #575458",
"- c #605F61",
"; c #7A7171",
": c #A70035",
"> c #ED004B",
", c #D3CB21",
"< c #FBF236",
"1 c #007385",
"2 c #306082",
"3 c #2C7684",
"4 c #457F8A",
"5 c #318580",
"6 c #31938D",
"7 c #328D9E",
"8 c #2C9D96",
"9 c #2993A7",
"0 c #3EA7A0",
"q c #3BB1A9",
"w c #3DB2A9",
"e c #499591",
"r c #519E9A",
"t c #44ABA4",
"y c #5BA7A3",
"u c #5DB1AC",
"i c #54B9B2",
"p c #60A3B0",
"a c #6BB9B4",
"s c #55C1BC",
"d c #34ADC4",
"f c #00B7EF",
"g c #43BCD3",
"h c #60CAC3",
"j c #6FCCC7",
"k c #75CAC6",
"l c #68D3CC",
"z c #78E4DE",
"x c #78E5DE",
"c c #7AE5DE",
"v c #58CEE5",
"b c #8D8585",
"n c #959393",
"m c #B0AAAA",
"M c #B9B2B2",
"N c #D3B69B",
"B c #C2B3A7",
"V c #C1B7B7",
"C c #E2C9B2",
"Z c #E5C1BD",
"A c #F5D8BD",
"S c #87D3E2",
"D c #89ECE7",
"F c #89EDE7",
"G c #8BEDE7",
"H c #9BF6F1",
"J c #B5EDED",
"K c #B6ECEC",
"L c #B7ECEC",
"P c #B6EDED",
"I c #B6EEEE",
"U c #B7EEEE",
"Y c #B6EFEF",
"T c #B7EFEF",
"R c #B8EDED",
"E c #A8F6F2",
"W c #B7FFFB",
"Q c #F4C2C2",
"! c #F6E0CB",
"~ c #D8F6F5",
"^ c #FFF1E4",
/* pixels */
"PPPPPPPPPPPPPPPPPPPPPPPPPPPPPPPPPPPPPPPPPPPPPPPPPPPPPPPPPPPPPPPP",
"PPPPPPPPPPPPPPPPPPPPPPPPPPPPPPPPPPPPPPPPPPPPPPPPPPPPPPPPPPPPPPPP",
"PPPPPPPPPPPPPPPPPPPPPPPPPPPPPPPPPPPPPPPPPPPPPPPPPPPPPPPPPPPPPPPP",
"PPPPPPPPPPPPPPPPPPPPPPPPPPPPPPPPPPPPPPPPPPPPPPPPPPPPPPPPPPPPPPPP",
"PPPPPPPPPPPPPPPPPPPPPPPPPPPPPPPPPPPPPPPPPPPPPPPPPPPPPPPPPPPPPPPP",
"PPPPPPPPPPPPPPPPPPPPPPPPPPPPPPPPPPPPPPPPPPPPPPPPPPPPPPPPPPPPPPPP",
"PPPPPPPPPPPPPPPPPPPP    PPPPPPPPPPPPPP   PPPPPPPPPPPPPPPPPPPPPPP",
"PPPPPPPPPPPPPPPPPPP   : PPPPPPPPPPPPPP :  PPPPPPPPPPPPPPPPPPPPPP",
"PPPPPPPPPPPPPPPPPP  >>  PPPPPPPPPPPPPP  >  PPPPPPPPPPPPPPPPPPPPP",
"PPPPPPPPPPPPPPPPPP :    P555555555555P   : PPPPPPPPPPPPPPPPPPPPP",
"PPPPPPPPPPPPPPP%%% : %  5uuurrrrrruuu5   :  %%%%PPPPPPPPPPPPPPPP",
"PPPPPPPPPPPPPP*uu > %%%5uurrjjjjjjjjju5 P >> uuu*PPPPPPPPPPPPPPP",
"PPPPPPPPPPPP***u > u555yyrjjjjjjjjjjjjuy5   > uu*PPPPPPPPPPPPPPP",
"PPPPPPPPPPPP**au : u55y555ujjjjjjjjjjjjjuy  : uua*PPPPPPPPPPPPPP",
"PPPPPPPPPPP6aaau : 5ee5jjjjjjjjjjjjjjjjjj5yy  aaaa6PPPPPPPPPPPPP",
"PPPPPPPPPPP6WWau  5e55jjjjjjllljjjjllljjjj555 aaaW6PPPPPPPPPPPPP",
"PPPPPPPPPPP6WWau  5e55~jjjjjllljjjjllljjj~555 aaaW6PPPPPPPPPPPPP",
"PPPPPPPPPPP6iiWWW5ee55j~~~~llxxll~~lll~~5xxx55WWWi6PPPPPPPPPPPPP",
"PPPPPPPPPPP6iiiii5e5jjjllxxxx5xxxxxxlllll555x5iiii6PPPPPPPPPPPPP",
"PPPPPPPPPPP6iiiii5e5jjjllxxx555xxxxxxxxll5jj5x5hhh6PPPPPPPPPPPPP",
"PPPPPPPPPPP6hhiii55jjjllxx55!!5xxHH55Hxxlj5j5555hhh8PPPPPPPPPPPP",
"PPPPPPPPPPP8hhhhh55jjllxx5!!!!5HHH5!55HHxj55j5hhhhh8PPPPPPPPPPPP",
"PPPPPPPPPPP8hhh  55jllxH5!!!!!5HH5!!!!5HHxx5j5hhhhh8PPPPPPPPPPPP",
"PPPPPPPPPPP8hhh :55llxxH5!   55HH5!   55Hxx5j5hhhhh8PPPPPPPPPPPP",
"PPPPPPPPPPP88h :>55lxxxH5 ~  5H55!!~   !5xx5H5hhhhh8PPPPPPPPPPPP",
"PPPPPPPPPPP8hh :>>5xxxH55^  555!!!^   ^^5xx5H5hhllh8PPPPPPPPPPPP",
"PPPPPPPPPPP8WW :>>5xxHHH^^   ^!^^^^   ^^5Hxx5lllllW8PPPPPPPPPPPP",
"PPPPPPPPPPP8xx  :>5xHHH5^^222^^^^^^222^^5HHx5lllWWx8PPPPPPPPPPPP",
"PPPPPPPPPPP8xxx :::5HHH5QQQ^^^^^^^^^^QQQ5HH5Wlxxxxx8PPPPPPPPPPPP",
"PPPPPPPPPP8xxxx    5HHH5^^^^^^^^^^^^^^^^5HH5Wlxxxxx88PPPPPPPPPPP",
"PPPPPPPPP880xxxxxxx55HH5^^^^^^^ZZ^^^^^^^5HH5xxxxxx0x88PPPPPPPPPP",
"PPPPPPPP0000xxxxxxqP5H55 ^^^$$^^^^^^^^^55H5Pqxxxxx0000tPPPPPPPPP",
"PPPPPPPPPPqxxxxxxxqPP55PP     AAAAAAAA5H55PPqxxxxxqPPPPPPPPPPPPP",
"PPPPPPPPPPqxxxxxcxwJPP5PPP@@  b@@bb;@@55PPPPqxxxxxqPPPPPPPPPPPPP",
"PPPPPPPPPPqPPPzzxxqPYPPPPPB=-b-&&-b-=AAPPPPPqxxxxxqPPPPPPPPPPPPP",
"PPPPPPPPPPqGDFxxxxqPLPPPPBB=n--gg--nA^^CPPPPqFFFxqqPPPPPPPPPPPPP",
"PPPPPPPPPPqFFFxxFFqPPPPP BB=nM-gg-MnA^^ PPPPsFFFFqPPPPPPPPPPPPPP",
"PPPPPPPPPYqFFFxxFqPPPLP   ==nM3gg3Mn    PPPPsFFFFqPPPPPPPPPPPPPP",
"PPPPPPRIPPqFFFFFFsPPPK ,p =nnm3gg3mn pSS PPPsFFFFqPPPPPPPPPPPPPP",
"PPPPPPPPPPqFFFFFHsPPP ,  =nnmV7v  Mm     PPPsHHHHqPPPPPPPPPPPPPP",
"PPPPPPPPPPPqFFFHHsPPP    =nnmM7vv7Mm   , PPPsHHHHqPPPPPPPPPPPPPP",
"PPPPPPPPPPPsFFHHHsPPPP  =nmmMM7v  M OOOO< PPsEHHHqPPPPPPPPPPPPPP",
"PPPPPPJPPPPPsHHHHsPPP44f=nmmMM7vv7M OOOOO PPsEEEHqPPPPPPPPPPPPPP",
"PPPPPPPPPPPPPsHHHsPPP  =nnmmMMM77M SSSfff PPsEEEEqPPPPPPPPPPPPPP",
"PPPPPPPPPPPPPsHEHkPPPPB========MMOOOOOOOOO PsEEEEqPPPPPPPPPPPPPP",
"PPPPPPPPPPPPPsHEEEkPPPPB.#Xo.#XooAA^^^A.PPPPPsEEEEqPPPPPPPPPPPPP",
"PPPPPPPLPPPPPPkEEWkPPPPP.d9o.d9oodAAAA9.PPPPPPkEEWWkPPPPPPPPPPPP",
"PPPPPPPPKPPPPPkWWWWkPPPP................PPPPPPkWWWWWkPPPPPPPPPPP",
"PPPPPPPPPPPPPPPkWWWWPPPPPC^^!!NPPBBBBBBPPPPPPPPkWWWWkPPPPPPPPPPP",
"PPPPPPPPTPPPPPPPkWWWkPPPPC^^!!NPP      PPPPPPPPPkWWWWkPPPPPPPPPP",
"PPPPPPPPPPPPPPPPPkWWWkPPP++++++PP1    1PPPPPPPPPPkkWWWkPPPPPPPPP",
"PPPPPPPPPPPPPPPPPPkkWWkPT+ dd +PP+1111 PPPPPPPPPPPPkkWWkPPPPPPPP",
"PPPPPPPPPPPPPPPPPPPPkkWPP d  d PP      PPPPPPPPPPPPPPkkWkPPPPPPP",
"PPPPPPPPPPPPPPPPPPPPPPPkPd    dPPP    PPPPPPPPPPPPPPPPPkkkPPPPPP",
"PPPPPPPPPPPPPPPPPPPPPPPPKd    dPPPPPPPPPPPPPPPPPPPPPPPPPPPPPPPPP",
"PPPPPPPPPPPPPPPPPPPPPPPKKP    PPPPPPPPPPPPPPPPPPPPPPPPPPPPPPPPPP",
"PPPPPPPPPPPPPPPPPPPPYPPPPPPPPPPPPPPPPPPPPPPPPPPPPPPPPPPPPPPPPPPP",
"PPPPPPPPPPPPPPPPPPPUPPPPPPPPPPPPPPPPPPPPPPPPPPPPPPPPPPPPPPPPPPPP",
"PPPPPPPPPPPPPPPPPPPPPPPPPPPPPPPPPPPPPPPPPPPPPPPPPPPPPPPPPPPPPPPP",
"PPPPPPPPPPPPPPPPPPPPPPPPPPPPPPPPPPPPPPPPPPPPPPPPPPPPPPPPPPPPPPPP",
"PPPPPPPPPPPPPPPPPPPPPPPPPPPPPPPPPPPPPPPPPPPPPPPPPPPPPPPPPPPPPPPP",
"PPPPPPPPPPPPPPPPPPPPPPPPPPPPPPPPPPPPPPPPPPPPPPPPPPPPPPPPPPPPPPPP",
"PPPPPPPPPPPPPPPPPPPPPPPPPPPPPPPPPPPPPPPPPPPPPPPPPPPPPPPPPPPPPPPP",
"PPPPPPPPPPPPPPPPPPPPPPPPPPPPPPPPPPPPPPPPPPPPPPPPPPPPPPPPPPPPPPPP"
};
