/* XPM */
static char *result[] = {
/* columns rows colors chars-per-pixel */
"64 64 63 1 ",
"  c black",
". c #0A0000",
"X c #171A1A",
"o c #1D1A1A",
"O c gray11",
"+ c #272626",
"@ c #343235",
"# c #32393B",
"$ c #1C4F4C",
"% c #1D5855",
"& c #315C59",
"* c #237671",
"= c #575458",
"- c #7C7A7D",
"; c #A70035",
": c #ED004B",
"> c #827D7D",
", c #237C8D",
"< c #318580",
"1 c #3A8781",
"2 c #31938D",
"3 c #2C9D96",
"4 c #2993A7",
"5 c #3EA7A0",
"6 c #3BB1A9",
"7 c #499591",
"8 c #429993",
"9 c #519E9A",
"0 c #47A8A0",
"q c #5BA7A3",
"w c #5DB1AC",
"e c #5CB5AF",
"r c #54B9B2",
"t c #63ADA7",
"y c #60A3B0",
"u c #6BB9B4",
"i c #55C1BC",
"p c #34ADC4",
"a c #00B7EF",
"s c #60CAC3",
"d c #6FCCC7",
"f c #75CAC6",
"g c #74CCC6",
"h c #68D3CC",
"j c #78E5DE",
"k c #959393",
"l c #B0AAAA",
"z c #B9B2B2",
"x c #D3B69B",
"c c #C2B3A7",
"v c #C1B7B7",
"b c #E2C9B2",
"n c #F5D8BD",
"m c #86E3DD",
"M c #87D3E2",
"N c #8EE8E2",
"B c #89EDE7",
"V c #9BF6F1",
"C c #B6EDED",
"Z c #A8F6F2",
"A c #B7FFFB",
"S c #F6E0CB",
"D c #FFF1E4",
/* pixels */
"CCCCCCCCCCCCCCCCCCCCCCCCCCCCCCCCCCCCCCCCCCCCCCCCCCCCCCCCCCCCCCCC",
"CCCCCCCCCCCCCCCCCCCCCCCCCCCCCCCCCCCCCCCCCCCCCCCCCCCCCCCCCCCCCCCC",
"CCCCCCCCCCCCCCCCCCCCCCCCCCCCCCCCCCCCCCCCCCCCCCCCCCCCCCCCCCCCCCCC",
"CCCCCCCCCCCCCCCCCCCCCCCCCCCCCCCCCCCCCCCCCCCCCCCCCCCCCCCCCCCCCCCC",
"CCCCCCCCCCCCCCCCCCCCCCCCCCCCCCCCCCCCCCCCCCCCCCCCCCCCCCCCCCCCCCCC",
"CCCCCCCCCCCCCCCCCCCCCCCCCCCCCCCCCCCCCCCCCCCCCCCCCCCCCCCCCCCCCCCC",
"CCCCCCCCCCCCCCCCCCCC    CCCCCCCCCCCCCC   CCCCCCCCCCCCCCCCCCCCCCC",
"CCCCCCCCCCCCCCCCCCC   ; CCCCCCCCCCCCCC ;  CCCCCCCCCCCCCCCCCCCCCC",
"CCCCCCCCCCCCCCCCCC  ::  CCCCCCCCCCCCCC  :  CCCCCCCCCCCCCCCCCCCCC",
"CCCCCCCCCCCCCCCCCC ;    C<<<<<<<<<<<<C   ; CCCCCCCCCCCCCCCCCCCCC",
"CCCCCCCCCCCCCCC%%% ; %  <www999199www<   ;  %%%CCCCCCCCCCCCCCCCC",
"CCCCCCCCCCCCCC*ww : %%%<eeeeeee1deeeew< C :: ww*CCCCCCCCCCCCCCCC",
"CCCCCCCCCCCC***w : w<deeedddddt1tdddeewq<   : w**CCCCCCCCCCCCCCC",
"CCCCCCCCCCCC**uw ; wdeddddddttd1dttddeee<q  ; wuu*CCCCCCCCCCCCCC",
"CCCCCCCCCCC2uuuw ; <eedddddtddd1ddhtdddee<<q  uuuu2CCCCCCCCCCCCC",
"CCCCCCCCCCC2uuuwA <7edddddddhhh1dddhhdddee<<< Auuu2CCCCCCCCCCCCC",
"CCCCCCCCCCC2uuwuA <eedddddddhtt8ttdddddddee<< Auuu2CCCCCCCCCCCCC",
"CCCCCCCCCCC2AAAAu<7eeddddddVtmm8mVtVddddddee<$uAAA2CCCCCCCCCCCCC",
"CCCCCCCCCCC2rrrrr<7edddddVVVNmm8mmNVVVddddde<$rrrr2CCCCCCCCCCCCC",
"CCCCCCCCCCC2rrrrr<7eddddVVVVNmm0mmNVVVVddddd<<$rrr2CCCCCCCCCCCCC",
"CCCCCCCCCCC2ssrrr<<ddddVVVVNNmt0tmNNNVVVdddd<<$$$s2CCCCCCCCCCCCC",
"CCCCCCCCCCC3sssss<<dddVVVVVNNtm0mtNNVVVVVdddd<ssss3CCCCCCCCCCCCC",
"CCCCCCCCCCC3sss  <<dddVVVVVNNmm0mmNNVVVVVVddd<  ss3CCCCCCCCCCCCC",
"CCCCCCCCCCC3sss ;<<hdVVVVVVNNmm0mmNNVVVVVVVdd<; ss3CCCCCCCCCCCCC",
"CCCCCCCCCCC3ss ;:<<hdVVVVVVNNmm8mmNNVVVVVVVdd<:; s3CCCCCCCCCCCCC",
"CCCCCCCCCCC3ss ;::<<VVVVVVNNNtm8mtNNVVVVVVVVV::; ss3CCCCCCCCCCCC",
"CCCCCCCCCCC3AA ;::$<VVVVVVVVNmt8tmNVVVVVVVjj<::; AA3CCCCCCCCCCCC",
"CCCCCCCCCCC3jj  ;:$<<gVVVVVVNmm1mmNVVVVVVggj<:;  jj3CCCCCCCCCCCC",
"CCCCCCCCCCC3jjj ;;;$<ggVVVVVtmm1mmtVVVVVgg<<;;; jjj3CCCCCCCCCCCC",
"CCCCCCCCCC3jjjj    $<<ggVVVVVtm1mtVVVVVgg<<$    jjj3CCCCCCCCCCCC",
"CCCCCCCC3jjj5jjjjjjj&<<gggVVVVt1tVVVVVgg<<&$jjjjjj5jCCCCCCCCCCCC",
"CCCCCC5555555jjjjjj6$&$<<gggggg1ggggggg<<&$C6jjjjj555CCCCCCCCCCC",
"CCCCCCCCCCC6jjjjjjj6C$$C<<<<<<<<<<<<<<<&$$CC6jjjjjjCCCCCCCCCCCCC",
"CCCCCCCCCCC6jjjjjjj6CC$CCC@@>>>>>>>>@@$$CCCCiijjjjjCCCCCCCCCCCCC",
"CCCCCCCCCCC6BBBBjjj6CCCCCnn=@@@@@@@@=nnCCCC6iBBBBB6CCCCCCCCCCCCC",
"CCCCCCCCCCC6BBjjBB6CCCCCbDn=kzzz-zzk=nDbCCCCijjBBB6CCCCCCCCCCCCC",
"CCCCCCCCCCC6BBjjBB6CCCCCbDn=kzz-zzzk=nDbOCCCijjBBB6CCCCCCCCCCCCC",
"CCCCCCCCCCC6BBBBBB6CCCCOOD==kzzz-zzk=nDOOOCCiBBBBB6CCCCCCCCCCCCC",
"CCCCCCCCCCiBBBBBVB6CCCCyOO=kklz-zzlkkOOOy CCiBBBBBBiCCCCCCCCCCCC",
"CCCCCCCCCCiBBVVVVi6CCC  M=kklvzz-zzlkOMM  OCiVVVVBBiCCCCCCCCCCCC",
"CCCCCCCCCCiVVVVVViCCCC   =kklzz-zzzlkO    +OCVVVVVViCCCCCCCCCCCC",
"CCCCCCCCCCiVVVVVViCCCCC =kllzzzz-zzzlO   OOaOCVVVVViCCCCCCCCCCCC",
"CCCCCCCCCCiVVVVVViCCCCCO=kllzzz-zzzzlO  OOaMOCVVVVViCCCCCCCCCCCC",
"CCCCCCCCCCiVZZZZZiCCCCC=kkllzzzz-zzzlOOOOaMOCCfZZVZfCCCCCCCCCCCC",
"CCCCCCCCCfAAZVZZiiCCCCC==============OMMMOOCCCfZVZZAfCCCCCCCCCCC",
"CCCCCCCCCfAAVAZZfiCCCCCC.X# oX#ooX#.oOOOOODnCCCfAAZAfCCCCCCCCCCC",
"CCCCCCCCfAAAAAAAfCCCCCCC.4p o4poo4p.o4nDDDnnCCCfAAAAfCCCCCCCCCCC",
"CCCCCCCfAAAAAAAffCCCCCCC...............nnnCCCCCfAAAAfCCCCCCCCCCC",
"CCCCCCffAAAAAAffCCCCCCCCCCccccccCxSDDDbCCCCCCCCfAAAfCCCCCCCCCCCC",
"CCCCCCfAAAAAAffCCCCCCCCCCC      CxSDDDbCCCCCCCffAAAfCCCCCCCCCCCC",
"CCCCCfAAAAAfffCCCCCCCCCCCC      C      CCCCfffffAffCCCCCCCCCCCCC",
"CCCffffffffCCCCCCCCCCCCCCC      C  ++++CCCffffffffCCCCCCCCCCCCCC",
"CCCCCCCCCCCCCCCCCCCCCCCCCC      C  pp++CCCCCCCCCCCCCCCCCCCCCCCCC",
"CCCCCCCCCCCCCCCCCCCCCCCCCCC    CC ,++p+CCCCCCCCCCCCCCCCCCCCCCCCC",
"CCCCCCCCCCCCCCCCCCCCCCCCCCCCCCCCC  ++++CCCCCCCCCCCCCCCCCCCCCCCCC",
"CCCCCCCCCCCCCCCCCCCCCCCCCCCCCCCCCC +++CCCCCCCCCCCCCCCCCCCCCCCCCC",
"CCCCCCCCCCCCCCCCCCCCCCCCCCCCCCCCCCCCCCCCCCCCCCCCCCCCCCCCCCCCCCCC",
"CCCCCCCCCCCCCCCCCCCCCCCCCCCCCCCCCCCCCCCCCCCCCCCCCCCCCCCCCCCCCCCC",
"CCCCCCCCCCCCCCCCCCCCCCCCCCCCCCCCCCCCCCCCCCCCCCCCCCCCCCCCCCCCCCCC",
"CCCCCCCCCCCCCCCCCCCCCCCCCCCCCCCCCCCCCCCCCCCCCCCCCCCCCCCCCCCCCCCC",
"CCCCCCCCCCCCCCCCCCCCCCCCCCCCCCCCCCCCCCCCCCCCCCCCCCCCCCCCCCCCCCCC",
"CCCCCCCCCCCCCCCCCCCCCCCCCCCCCCCCCCCCCCCCCCCCCCCCCCCCCCCCCCCCCCCC",
"CCCCCCCCCCCCCCCCCCCCCCCCCCCCCCCCCCCCCCCCCCCCCCCCCCCCCCCCCCCCCCCC",
"CCCCCCCCCCCCCCCCCCCCCCCCCCCCCCCCCCCCCCCCCCCCCCCCCCCCCCCCCCCCCCCC"
};
