/* XPM */
static char *result[] = {
/* columns rows colors chars-per-pixel */
"64 64 66 1 ",
"  c black",
". c #0A0000",
"X c #171A1A",
"o c #1D1A1A",
"O c gray11",
"+ c #272626",
"@ c #343235",
"# c #32393B",
"$ c #3C3E3E",
"% c #1D5855",
"& c #1F6876",
"* c #237671",
"= c #464444",
"- c #575458",
"; c #625F5F",
": c #605F61",
"> c #7A7171",
", c #A70035",
"< c #ED004B",
"1 c #D3CB21",
"2 c #FBF236",
"3 c #2C7684",
"4 c #237C8D",
"5 c #318580",
"6 c #31938D",
"7 c #328D9E",
"8 c #2C9D96",
"9 c #2993A7",
"0 c #3EA7A0",
"q c #3BB1A9",
"w c #499591",
"e c #519E9A",
"r c #5BA7A3",
"t c #5DB1AC",
"y c #54B9B2",
"u c #60A3B0",
"i c #6BB9B4",
"p c #55C1BC",
"a c #34ADC4",
"s c #00B7EF",
"d c #43BCD3",
"f c #60CAC3",
"g c #6FCCC7",
"h c #75CAC6",
"j c #68D3CC",
"k c #78E5DE",
"l c #58CEE5",
"z c #8D8585",
"x c #959393",
"c c #B0AAAA",
"v c #B9B2B2",
"b c #D3B69B",
"n c #C1B7B7",
"m c #E2C9B2",
"M c #E5C1BD",
"N c #F5D8BD",
"B c #87D3E2",
"V c #89EDE7",
"C c #9BF6F1",
"Z c #B6EDED",
"A c #A8F6F2",
"S c #B7FFFB",
"D c #F4C2C2",
"F c #F6E0CB",
"G c #D8F6F5",
"H c #FFF1E4",
/* pixels */
"ZZZZZZZZZZZZZZZZZZZZZZZZZZZZZZZZZZZZZZZZZZZZZZZZZZZZZZZZZZZZZZZZ",
"ZZZZZZZZZZZZZZZZZZZZZZZZZZZZZZZZZZZZZZZZZZZZZZZZZZZZZZZZZZZZZZZZ",
"ZZZZZZZZZZZZZZZZZZZZZZZZZZZZZZZZZZZZZZZZZZZZZZZZZZZZZZZZZZZZZZZZ",
"ZZZZZZZZZZZZZZZZZZZZZZZZZZZZZZZZZZZZZZZZZZZZZZZZZZZZZZZZZZZZZZZZ",
"ZZZZZZZZZZZZZZZZZZZZZZZZZZZZZZZZZZZZZZZZZZZZZZZZZZZZZZZZZZZZZZZZ",
"ZZZZZZZZZZZZZZZZZZZZZZZZZZZZZZZZZZZZZZZZZZZZZZZZZZZZZZZZZZZZZZZZ",
"ZZZZZZZZZZZZZZZZZZZZ    ZZZZZZZZZZZZZZ   ZZZZZZZZZZZZZZZZZZZZZZZ",
"ZZZZZZZZZZZZZZZZZZZ   , ZZZZZZZZZZZZZZ ,  ZZZZZZZZZZZZZZZZZZZZZZ",
"ZZZZZZZZZZZZZZZZZZ  <<  ZZZZZZZZZZZZZZ  <  ZZZZZZZZZZZZZZZZZZZZZ",
"ZZZZZZZZZZZZZZZZZZ ,    Z555555555555Z   , ZZZZZZZZZZZZZZZZZZZZZ",
"ZZZZZZZZZZZZZZZ%%% , %  5ttteeeeeettt5   ,  %%%ZZZZZZZZZZZZZZZZZ",
"ZZZZZZZZZZZZZZ*tt < %%%5tteegggggggggt5 Z << tt*ZZZZZZZZZZZZZZZZ",
"ZZZZZZZZZZZZZ**t < t555rreggggggggggggtr5   < t**ZZZZZZZZZZZZZZZ",
"ZZZZZZZZZZZZZ*it , t55r555tgggggggggggggtr  , tii*ZZZZZZZZZZZZZZ",
"ZZZZZZZZZZZZ6iit , 5ww5gggggggggggggggggg5rr  iiii6ZZZZZZZZZZZZZ",
"ZZZZZZZZZZZZ6Sit  5w55ggggggjjjggggjjjgggg555 iiiS6ZZZZZZZZZZZZZ",
"ZZZZZZZZZZZZ6Sit  5w55GgggggjjjggggjjjgggG555 iiiS6ZZZZZZZZZZZZZ",
"ZZZZZZZZZZZZ6ySSS5ww55gGGGGjjkkjjGGjjjGG5kkk55SSSy6ZZZZZZZZZZZZZ",
"ZZZZZZZZZZZZ6yyyy5w5gggjjkkkk5kkkkkkjjjjj555k5yyyy6ZZZZZZZZZZZZZ",
"ZZZZZZZZZZZZ6yyyy5w5gggjjkkk555kkkkkkkkjj5gg5k5yyy6ZZZZZZZZZZZZZ",
"ZZZZZZZZZZZZ6fyyy55gggjjkk55FF5kkCC55Ckkjg5g55555f6ZZZZZZZZZZZZZ",
"ZZZZZZZZZZZZ8ffff55ggjjkk5FFFF5CCC5F55CCkg55g5ffff8ZZZZZZZZZZZZZ",
"ZZZZZZZZZZZZ8ff  55gjjkC5FFFFF5CC5FFFF5CCkk5g5ffff8ZZZZZZZZZZZZZ",
"ZZZZZZZZZZZZ8ff ,55jjkkC5FFFF55CC5FFFF55Ckk5g5ffff8ZZZZZZZZZZZZZ",
"ZZZZZZZZZZZZ8f ,<55jkkkC5F   5C55FF   FF5kk5C5ffff8ZZZZZZZZZZZZZ",
"ZZZZZZZZZZZ8ff ,<<5kkkC55   555FFFH    H5kk5C5fjjff8ZZZZZZZZZZZZ",
"ZZZZZZZZZZZ8SS ,<<5kkCCCHH   HFHHHH   HH5Ckk5jjjjSS8ZZZZZZZZZZZZ",
"ZZZZZZZZZZZZkk  ,<5kCCC5HHHHHHHHHHHHHHHH5CCk5jjSSkk8ZZZZZZZZZZZZ",
"ZZZZZZZZZZZ8kkk ,,,5CCC5DDDHHHHHHHHHHDDD5CC5Sjkkkkk8ZZZZZZZZZZZZ",
"ZZZZZZZZZZ88kkk    5CCC5HHHHHHHHHHHHHHHH5CC5Sjkkkkk88ZZZZZZZZZZZ",
"ZZZZZZZZZ88kkkkkkkk55CC5HHHHHHHMMHHHHHHH5CC5kkkkkk0k888ZZZZZZZZZ",
"ZZZZZZZZ0000kkkkkkqZ5C55 HHH$$HHHHHHHHH55C5Zqkkkkk0000000ZZZZZZZ",
"ZZZZZZZZZZZqkkkkkkqZZ55ZZ     NNNNNNNN5C55ZZqkkkkkkkqZZZZZZZZZZZ",
"ZZZZZZZZZZZqkkkkkkqZZZ5ZZZ@@  z@@zz>@@55ZZZZqkkkkkkqZZZZZZZZZZZZ",
"ZZZZZZZZZZZqVkkkkkqZZZZZZNN-:z:&&:z:-N5ZZZZZqkVVVVVqZZZZZZZZZZZZ",
"ZZZZZZZZZZZqVVkkVqZZZZZZmHN-x::dd::x-NHmZZZZZqkkkVVqZZZZZZZZZZZZ",
"ZZZZZZZZZZZqVVkkVqZZZZZOmHN-xv:dd:vx-NHmOZZZZqkkkVVqZZZZZZZZZZZZ",
"ZZZZZZZZZZZqVVVVVqZZZZOOOH--xv3dd3vx--HOOOZZZqVVVVVqZZZZZZZZZZZZ",
"ZZZZZZZZZZZqVVVVVqZZZO1uOO-xxc3dd3cxx-OOu1OZZqVVVVVpZZZZZZZZZZZZ",
"ZZZZZZZZZZZqVCCCpqZZO1  B-xxcn7l  vcxx-B  1OZppCCCVpZZZZZZZZZZZZ",
"ZZZZZZZZZZZqCCCCpZZO2    -xxcv7ll7vcxx-    2OZpCCCCpZZZZZZZZZZZZ",
"ZZZZZZZZZZZqCCCCpZOsOOO -xccvv7l  vvccx- OOOsOpCCCCpZZZZZZZZZZZZ",
"ZZZZZZZZZZZqCCCCpZZBsOOO-xccvv7ll7vvccx-OOOsBOpCCCCpZZZZZZZZZZZZ",
"ZZZZZZZZZZZZpACApZZOBss-xxccvvv77vvvccxx-ssBOZppAAApZZZZZZZZZZZZ",
"ZZZZZZZZZZZZpAACpZZZOOO--------vv--------OOOZZZpACApZZZZZZZZZZZZ",
"ZZZZZZZZZZZZhASShZZZNHOO.#Xo.#Xoo#Xo #X.#OHNZZZppSSpZZZZZZZZZZZZ",
"ZZZZZZZZZZZZhSSShZZZNNHH.a9o.a9ooa9o a9.HHNNZZZZhSSpZZZZZZZZZZZZ",
"ZZZZZZZZZZZZhSSShZZZZZNN................NNZZZZZZhhShZZZZZZZZZZZZ",
"ZZZZZZZZZZZZhSSShZZZZZZZZmHHHFbZZmHHFFbZZZZZZZZZZhShZZZZZZZZZZZZ",
"ZZZZZZZZZZZZhSSShZZZZZZZZmHHHFbZZmHHFFbZZZZZZZZZZhShZZZZZZZZZZZZ",
"ZZZZZZZZZZZZZhSSZZZZZZZZZ      ZZ      ZZZZZZZZZZZhShZZZZZZZZZZZ",
"ZZZZZZZZZZZZZZhhZZZZZZZZZ+;;;= ZZ+;;== ZZZZZZZZZZZZhhZZZZZZZZZZZ",
"ZZZZZZZZZZZZZZZhhZZZZZZZZ++++  ZZ+++   ZZZZZZZZZZZZZhhZZZZZZZZZZ",
"ZZZZZZZZZZZZZZZZhhZZZZZZZ+aaa4 ZZ+aa44 ZZZZZZZZZZZZZZZhZZZZZZZZZ",
"ZZZZZZZZZZZZZZZZZZZZZZZZZ++++  ZZ+++   ZZZZZZZZZZZZZZZZZZZZZZZZZ",
"ZZZZZZZZZZZZZZZZZZZZZZZZZZ+++ ZZZZ++  ZZZZZZZZZZZZZZZZZZZZZZZZZZ",
"ZZZZZZZZZZZZZZZZZZZZZZZZZZZZZZZZZZZZZZZZZZZZZZZZZZZZZZZZZZZZZZZZ",
"ZZZZZZZZZZZZZZZZZZZZZZZZZZZZZZZZZZZZZZZZZZZZZZZZZZZZZZZZZZZZZZZZ",
"ZZZZZZZZZZZZZZZZZZZZZZZZZZZZZZZZZZZZZZZZZZZZZZZZZZZZZZZZZZZZZZZZ",
"ZZZZZZZZZZZZZZZZZZZZZZZZZZZZZZZZZZZZZZZZZZZZZZZZZZZZZZZZZZZZZZZZ",
"ZZZZZZZZZZZZZZZZZZZZZZZZZZZZZZZZZZZZZZZZZZZZZZZZZZZZZZZZZZZZZZZZ",
"ZZZZZZZZZZZZZZZZZZZZZZZZZZZZZZZZZZZZZZZZZZZZZZZZZZZZZZZZZZZZZZZZ",
"ZZZZZZZZZZZZZZZZZZZZZZZZZZZZZZZZZZZZZZZZZZZZZZZZZZZZZZZZZZZZZZZZ",
"ZZZZZZZZZZZZZZZZZZZZZZZZZZZZZZZZZZZZZZZZZZZZZZZZZZZZZZZZZZZZZZZZ"
};
