/* XPM */
static char *result[] = {
/* columns rows colors chars-per-pixel */
"64 64 66 1 ",
"  c black",
". c #0A0000",
"X c #171A1A",
"o c #1D1A1A",
"O c #272626",
"+ c #343235",
"@ c #32393B",
"# c #3C3E3E",
"$ c #1D5855",
"% c #1F6876",
"& c #237671",
"* c #464444",
"= c #575458",
"- c #625F5F",
"; c #605F61",
": c #7A7171",
"> c #A70035",
", c #ED004B",
"< c #D3CB21",
"1 c #FBF236",
"2 c #306082",
"3 c #2C7684",
"4 c #237C8D",
"5 c #318580",
"6 c #31938D",
"7 c #328D9E",
"8 c #2C9D96",
"9 c #2993A7",
"0 c #3EA7A0",
"q c #3BB1A9",
"w c #499591",
"e c #519E9A",
"r c #5BA7A3",
"t c #5DB1AC",
"y c #54B9B2",
"u c #60A3B0",
"i c #6BB9B4",
"p c #55C1BC",
"a c #34ADC4",
"s c #43BCD3",
"d c #60CAC3",
"f c #6FCCC7",
"g c #75CAC6",
"h c #68D3CC",
"j c #78E5DE",
"k c #58CEE5",
"l c #8D8585",
"z c #959393",
"x c #A7A7A7",
"c c #B0AAAA",
"v c #B9B2B2",
"b c #D3B69B",
"n c #C1B7B7",
"m c #E2C9B2",
"M c #E5C1BD",
"N c #F5D8BD",
"B c #87D3E2",
"V c #89EDE7",
"C c #9BF6F1",
"Z c #A8F6F2",
"A c #B7FFFB",
"S c #F4C2C2",
"D c #F6E0CB",
"F c #D8F6F5",
"G c #FFF1E4",
"H c #B5ECEC",
/* pixels */
"HHHHHHHHHHHHHHHHHHHHHHHHHHHHHHHHHHHHHHHHHHHHHHHHHHHHHHHHHHHHHHHH",
"HHHHHHHHHHHHHHHHHHHHHHHHHHHHHHHHHHHHHHHHHHHHHHHHHHHHHHHHHHHHHHHH",
"HHHHHHHHHHHHHHHHHHHHHHHHHHHHHHHHHHHHHHHHHHHHHHHHHHHHHHHHHHHHHHHH",
"HHHHHHHHHHHHHHHHHHHHHHHHHHHHHHHHHHHHHHHHHHHHHHHHHHHHHHHHHHHHHHHH",
"HHHHHHHHHHHHHHHHHHHHHHHHHHHHHHHHHHHHHHHHHHHHHHHHHHHHHHHHHHHHHHHH",
"HHHHHHHHHHHHHHHHHHHHHHHHHHHHHHHHHHHHHHHHHHHHHHHHHHHHHHHHHHHHHHHH",
"HHHHHHHHHHHHHHHHHHHH    HHHHHHHHHHHHHH   HHHHHHHHHHHHHHHHHHHHHHH",
"HHHHHHHHHHHHHHHHHHH   > HHHHHHHHHHHHHH >  HHHHHHHHHHHHHHHHHHHHHH",
"HHHHHHHHHHHHHHHHHH  ,,  HHHHHHHHHHHHHH  ,  HHHHHHHHHHHHHHHHHHHHH",
"HHHHHHHHHHHHHHHHHH >    H555555555555H   > HHHHHHHHHHHHHHHHHHHHH",
"HHHHHHHHHHHHHHH$$$ > $  5ttteeeeeettt5   >  $$$HHHHHHHHHHHHHHHHH",
"HHHHHHHHHHHHHH&tt , $$$5tteeffffffffft5 H ,, tt&HHHHHHHHHHHHHHHH",
"HHHHHHHHHHHHH&&t , t555rrefffffffffffftr5   , t&&HHHHHHHHHHHHHHH",
"HHHHHHHHHHHHH&it > t55r555tffffffffffffftr  > tii&HHHHHHHHHHHHHH",
"HHHHHHHHHHHH6iit > 5ww5ffffffffffffffffff5rr  iiii6HHHHHHHHHHHHH",
"HHHHHHHHHHHH6Ait  5w55ffffffhhhffffhhhffff555 iiiA6HHHHHHHHHHHHH",
"HHHHHHHHHHHH6Ait  5w55FfffffhhhffffhhhfffF555 iiiA6HHHHHHHHHHHHH",
"HHHHHHHHHHHH6yAAA5ww55fFFFFhhjjhhFFhhhFF5jjj55AAAy6HHHHHHHHHHHHH",
"HHHHHHHHHHHH6yyyy5w5fffhhjjjj5jjjjjjhhhhh555j5yyyy6HHHHHHHHHHHHH",
"HHHHHHHHHHHH6yyyy5w5fffhhjjj555jjjjjjjjhh5ff5j5yyy6HHHHHHHHHHHHH",
"HHHHHHHHHHHH6dyyy55fffhhjj55DD5jjCC55Cjjhf5f55555d6HHHHHHHHHHHHH",
"HHHHHHHHHHHH8dddd55ffhhjj5DDDD5CCC5D55CCjf55f5dddd8HHHHHHHHHHHHH",
"HHHHHHHHHHHH8dd  55fhhjC5DDDDD5CC5DDDD5CCjj5f5dddd8HHHHHHHHHHHHH",
"HHHHHHHHHHHH8dd >55hhjjC5D   55CC5D   55Cjj5f5dddd8HHHHHHHHHHHHH",
"HHHHHHHHHHHH8d >,55hjjjC5 F  5C55DDF   D5jj5C5dddd8HHHHHHHHHHHHH",
"HHHHHHHHHHH8dd >,,5jjjC55G  555DDDG   GG5jj5C5dhhdd8HHHHHHHHHHHH",
"HHHHHHHHHHH8AA >,,5jjCCCGG   GDGGGG   GG5Cjj5hhhhAA8HHHHHHHHHHHH",
"HHHHHHHHHHH8jj  >,5jCCC5GG222GGGGGG222GG5CCj5hhAAjj8HHHHHHHHHHHH",
"HHHHHHHHHH88jjj >>>5CCC5SSSGGGGGGGGGGSSS5CC5Ahjjjjj8HHHHHHHHHHHH",
"HHHHHHHHH88jjjj    5CCC5GGGGGGGGGGGGGGGG5CC5Ahjjjjj88HHHHHHHHHHH",
"HHHHHHHH88j0jjjjjjj55CC5GGGGGGGMMGGGGGGG5CC5jjjjjj0j888HHHHHHHHH",
"HHHHHH000000jjjjjjqH5C55 GGG##GGGGGGGGG55C5Hqjjjjj0000000HHHHHHH",
"HHHHHHHHHHqjjjjjjjqHH55HH     NNNNNNNN5C55HHqjjjjjjjqHHHHHHHHHHH",
"HHHHHHHHHHqjjjjjjjqHHH5HHH++  l++ll:++55HHHHqjjjjjjjqHHHHHHHHHHH",
"HHHHHHHHHHqVVVVjjjqHHHHHHNN=;l;%%;l;=N5HHHHHqjVVVVVVqHHHHHHHHHHH",
"HHHHHHHHHHqVVjjVVqHHHHHHmGN=z;;ss;;z=NGmHHHHHqjjjVVVqHHHHHHHHHHH",
"HHHHHHHHHHqVVjjVVqHHHHH@mGN=zv;ss;vz=NGm@HHHHqjjjVVVqHHHHHHHHHHH",
"HHHHHHHHHqqVVVVVVqHHHH@@@G==zv3ss3vz==G@@@HHHqVVVVVVqHHHHHHHHHHH",
"HHHHHHHHpVVVVVVVVqHHH@<u@@=zzc3ss3czz=@@u<@HHqVVVVVVVpHHHHHHHHHH",
"HHHHHHHHpVVVCCCppqHH@<zzB=zzcn7k  vczz=Bzz<@HqpCCCCVVpHHHHHHHHHH",
"HHHHHHHHpCCCCCCpHHH@1zzzz=zzcv7kk7vczz=zzzz1@HpCCCCCCpHHHHHHHHHH",
"HHHHHHHHpCCCCCCpHH@Bxxxz=zccvv7k  vvccz=zxxxB@pCCCCCCpHHHHHHHHHH",
"HHHHHHHppCCCCCCpHH@BBxxx=zccvv7kk7vvccz=xxxBB@pCCCCCCpppHHHHHHHH",
"HHHHHHHpZZZCZZppHHH@BBB=zzccvvv77vvvcczz=BBB@HppZZZCZZZpHHHHHHHH",
"HHHHHHHpZZZZCZpHHHHH@@@========vv========@@@HHHpZZCZZZZpHHHHHHHH",
"HHHHHHHpAZZAAppHHHHHNG@@.@Xo.@Xoo@Xo @X.@@GNHHHpppAAZAApHHHHHHHH",
"HHHHHHHpAAAAApHHHHHHNNGG.a9o.a9ooa9o a9.GGNNHHHHHpAAAAApHHHHHHHH",
"HHHHHHHpgAAAApHHHHHHHHNN................NNHHHHHHHpAAAAgpHHHHHHHH",
"HHHHHHHHgAAAApHHHHHHHHHHHmGGGDbHHmGGDDbHHHHHHHHHHpAAAAgHHHHHHHHH",
"HHHHHHHHgAAAApHHHHHHHHHHHmGGGDbHHmGGDDbHHHHHHHHHHpAAAAgHHHHHHHHH",
"HHHHHHHHgggAAggHHHHHHHHHH      HH      HHHHHHHHgggAAgggHHHHHHHHH",
"HHHHHHHHHHHggAgggHHHHHHHHO---* HHO--** HHHHHHHgggAggHHHHHHHHHHHH",
"HHHHHHHHHHHHgggggggHHHHHHOOOO  HHOOO   HHHHHgggggggHHHHHHHHHHHHH",
"HHHHHHHHHHHHHHHgggggHHHHHOaaa4 HHOaa44 HHHgggggHHHHHHHHHHHHHHHHH",
"HHHHHHHHHHHHHHHHHHHHHHHHHOOOO  HHOOO   HHHHHHHHHHHHHHHHHHHHHHHHH",
"HHHHHHHHHHHHHHHHHHHHHHHHHHOOO HHHHOO  HHHHHHHHHHHHHHHHHHHHHHHHHH",
"HHHHHHHHHHHHHHHHHHHHHHHHHHHHHHHHHHHHHHHHHHHHHHHHHHHHHHHHHHHHHHHH",
"HHHHHHHHHHHHHHHHHHHHHHHHHHHHHHHHHHHHHHHHHHHHHHHHHHHHHHHHHHHHHHHH",
"HHHHHHHHHHHHHHHHHHHHHHHHHHHHHHHHHHHHHHHHHHHHHHHHHHHHHHHHHHHHHHHH",
"HHHHHHHHHHHHHHHHHHHHHHHHHHHHHHHHHHHHHHHHHHHHHHHHHHHHHHHHHHHHHHHH",
"HHHHHHHHHHHHHHHHHHHHHHHHHHHHHHHHHHHHHHHHHHHHHHHHHHHHHHHHHHHHHHHH",
"HHHHHHHHHHHHHHHHHHHHHHHHHHHHHHHHHHHHHHHHHHHHHHHHHHHHHHHHHHHHHHHH",
"HHHHHHHHHHHHHHHHHHHHHHHHHHHHHHHHHHHHHHHHHHHHHHHHHHHHHHHHHHHHHHHH",
"HHHHHHHHHHHHHHHHHHHHHHHHHHHHHHHHHHHHHHHHHHHHHHHHHHHHHHHHHHHHHHHH"
};
