/* XPM */
static char *abaa0986a6344eeb953f909d6faebc5dWvc5YJAwEe2Oczvl[] = {
/* columns rows colors chars-per-pixel */
"64 64 78 1 ",
"  c #B6EDED",
". c black",
"X c #030000",
"o c gray11",
"O c gray12",
"+ c #1E2324",
"@ c #212021",
"# c gray15",
"$ c #312E32",
"% c #2E3638",
"& c #323033",
"* c #333232",
"= c #175754",
"- c #1B5C57",
"; c #1C5E5B",
": c #1F6E6A",
"> c #216E67",
", c #257A75",
"< c #444242",
"1 c #565357",
"2 c #7B7272",
"3 c #8A012D",
"4 c #9C0034",
"5 c #A80032",
"6 c #BA0239",
"7 c #D40446",
"8 c #DB0448",
"9 c #EE004A",
"0 c #F50049",
"q c #947C66",
"w c #28857E",
"e c #FBF233",
"r c #287785",
"t c #2D8681",
"y c #2C9189",
"u c #2F998D",
"i c #2E8E9F",
"p c #309C93",
"a c #35A196",
"s c #3DA89F",
"d c #2096A8",
"f c #2494A8",
"g c #3CA8A1",
"h c #38B2AA",
"j c #479692",
"k c #509F9B",
"l c #59A8A3",
"z c #48B5AC",
"x c #5DB2AE",
"c c #4DB8B1",
"v c #51C2BA",
"b c #54C2BD",
"n c #30AFC5",
"m c #00B7EF",
"M c #60CBC4",
"N c #6FCDC8",
"B c #68D4CD",
"V c #72D4CD",
"C c #7FD4CF",
"Z c #70DBD2",
"A c #79E6DF",
"S c #59D8FF",
"D c #858383",
"F c #969494",
"G c #B1ACAC",
"H c #BAB3B3",
"J c #E6C5A8",
"K c #F2D9BF",
"L c #F5D9BE",
"P c #80E8E1",
"I c #8AEEE8",
"U c #9CF6F1",
"Y c #A9F6F2",
"T c #B8FFFB",
"R c #F4C3C3",
"E c #F6E1CC",
"W c #D9F6F5",
"Q c #FFF1E5",
/* pixels */
"                                                                ",
"                                                                ",
"                                                                ",
"                                                                ",
"                     .                                          ",
"                    .9.                                         ",
"                   ...8.                                        ",
"                  ..3..9.                                       ",
"                 ..3. ..8.                                      ",
"                ..==== ..9.ttttttttttt                          ",
"               .;;uuuu=t..8.jjjjjjkkkttt                        ",
"              .=aaauuuu=N..9.jjkxxxNNNNtt                       ",
"              .;saaaauuu=N..9.kxxNNNNNNNt                       ",
"               :saaaaauu;N..3.xNNNNNNNNBtt                      ",
"               :Tssaaaaa;..7.kxNNNNNNNNNBBt                     ",
"              ,cTTsssaaa;.7.kxNNNNNNBtNNNBtt                    ",
"              ,zzTTssssg:7.kxNNNNNNNBAtBBBWt                    ",
"              ,zzzTTTTT:7.jxNNNNNNBBBAUtBWBt                    ",
"             ,vvzzzzz,:4..kWWNNtxBBAAWtttBAtt                   ",
"             wvvvvzzz,4..kxNNWWtxAAWWttttAAUt                   ",
"             wvvvvvv,,.jkxNNNNtxxAUUtKKKttAUt                   ",
"            yMMvvvvvwjkxNNNNNNtxAUttKEEEKtUt                    ",
"            yMMMMvvwwjx.....NNttttKKEEEEKtUt                    ",
"            yMMMMMyyjk..555..NtKKKEEEEEEttUt                    ",
"            yMMMMMyjk..56665..tKKEE...EEtUt                     ",
"            pNMMMMytk.5690965.tKEE....Ettt                      ",
"            pNNNNN tN.5690965.tKEEQ...QQQL                      ",
"            pNNNNN tt..56665..ttEQQQQQQQQL                      ",
"             pTTNN  tt..555..tAtERRRQQQQQL                      ",
"             gVVTT  ttt.....tBAAtEQQQQQQQL                      ",
"             gZVVVg  ttttl.tNNBUtEEQQQQQ.                       ",
"             hZZZVg  -->ttl.tUUUUt......L                       ",
"              hPPZg  -->>tttlttUUtLLLLLL                        ",
"              hIPPhh -->>>-   @tttt@                            ",
"              hIIPPh  ->>>>   DD$$2&r                           ",
"              hIIIPh  ->>>>  DJKDD&&1r                          ",
"              hIIIIh  ->>>>  .QQLDFF&r                          ",
"              hUIIIh  -->--  ..QLDGGF1r                         ",
"             bUUUUIb   ->>- .mS.LFGHG1r                         ",
"             bUUUUUb   ->>- .e#S.FGHH1i                         ",
"             bUUUUb    ->>-.e###.FFGH1i                         ",
"             bYUUUb    ->-.e####.FFGHH1i                        ",
"             bYYUUb    ->-..#####.FGGH1i                        ",
"             bYYYYb    ->..mmmSSS.FGGHH1i                       ",
"              bYYTC    >-.........111111                        ",
"              bYTTC    >-  LQQQLL.%+.%.X                        ",
"              CTTTC    -- .fLLL.n.nf.n.f.                       ",
"              CTTCC    >-.................                      ",
"              CTTC     >      LQQQLqq                           ",
"              CTTC     -      ooooo..                           ",
"              CTCC    >       o<<&oX.                           ",
"              TCC             o<<&OX.                           ",
"              CC              o<<&o...                          ",
"             C                ooooOo...                         ",
"                              onndddOX.                         ",
"                              ooooOOO                           ",
"                                                                ",
"                                                                ",
"                                                                ",
"                                                                ",
"                                                                ",
"                                                                ",
"                                                                ",
"                                                                "
};
