/* XPM */
static char *result[] = {
/* columns rows colors chars-per-pixel */
"64 64 29 1 ",
"  c black",
". c #0E2B15",
"X c gray20",
"o c #1E4F2A",
"O c #2E693D",
"+ c #696449",
"@ c #448755",
"# c #509461",
"$ c #549C66",
"% c #5C9C6C",
"& c #67A175",
"* c #87805B",
"= c #85805F",
"- c #A69F74",
"; c #86B591",
": c #C2BB91",
"> c #99C7A4",
", c #B0D9B9",
"< c #EBE5B9",
"1 c #C3D6C7",
"2 c #C8E6CE",
"3 c #DAE3DC",
"4 c #D5EBDA",
"5 c gray89",
"6 c #E6EDE8",
"7 c #E6F0E8",
"8 c #F2FAF4",
"9 c #FFFCFC",
"0 c #B5ECEC",
/* pixels */
"0000000000000000000000000000000000000000000000000000000000000000",
"000000000000000000000000000000000000.......000000000000000000000",
"000000000000000000000000000000000000.OOOOO....000000000000000000",
"000000000000000000000000000000000000.OOOOOOOO.000000000000000000",
"000000000000000000000000000000000000.OOOOOOOO.000000000000000000",
"00000000000000000000000000000000000.OOOOOOOO..000000000000000000",
"00000000000000000000000000000000000.@OOOOOOO.0000000000000000000",
"00000000000000000000000000000000000.@@@OOOO..0000000000000000000",
"0000000000000000000000000000.000000.@$@OOOO.0000000000000.000000",
"0000000000000000000000000000O.00000.$$@@OO..000000000000..000000",
"00000000000000000000000000000O.0000.$$@@OO.000000000000...000000",
"00000000000000000000000000000.O.00.$$@@@O..00000000000..O.000000",
"00000000000000000000000000000.$O.0.$$@@OO.00000000000..OO.000000",
"000000000000000000000000000000@$O..$$@@O..0000000000..OOO.000000",
"000000000000000000000000000000.$o..$$@@O.0000000000..@OOO.000000",
"000000000000000000000000000000.@o..$@@OO.00000000...$@OO..000000",
"0000000000000000000000000000000.o.$$@@O..0000000..$$@OOO.0000000",
"0000000000000000000000000000000.o.$$@OO.0000000..$@@OO..00000000",
"0000000000000000000000000000000.o.$@@O..00000...@@@OO..000000000",
"0000000000000000000000000000000...$@OO.00000..$@@@O..00000000000",
"0000000000000000000000000000000..$$@O..000..$$$@@O..000000000000",
"0000000000000000000000000000000..$$$O.000..$$@@OO..0000000000000",
"0000000000000000000000000000000..$$$O.00..$@@@O...00000000000000",
"0000000000000000000000000000000.####..0..$$@OO..0000000000000000",
"0000000000000000000000000000000.####...$$$@O..000000000000000000",
"0000000000000000000000000000000.###....@@OO..0000000000000000000",
"0000000000000000000000000000000.%#..###@O...00000000000000000000",
"0000000000000000000000000000000.%.%######.0000000000000000000000",
"000000000000000000000000000000.&%%%###..000000000000000000000000",
"00000000000000000000000000000 ;&&%%%%..0000000000000000000000000",
"00000000000000000000000000000 ;;&&...000000000000000000000000000",
"0000000000000000000000000000 >>;;  00000000000000000000000000000",
"000000000000000000000000000 ,,>>  000000000000000000000000000000",
"000000000000000000000000000 2,,  0000000000000000000000000000000",
"00000000000000000000000000 422  00000000000000000000000000000000",
"0000000000000000000000000 7441 000000000000000000000000000000000",
"000000000000000000000000 8773  000000000000000000000000000000000",
"00000000000000000000000  886  0000000000000000000000000000000000",
"0000000000000000000000  995  00000000000000000000000000000000000",
"0000000000000000000000 995  000000000000000000000000000000000000",
"000000000000000000000 995  0000000000000000000000000000000000000",
"00000000000000000000 9955 00000000000000000000000000000000000000",
"00000000000000000000 995  00000000000000000000000000000000000000",
"0000000000000000000 995  000000000000000000000000000000000000000",
"000000000000000000X995  0000000000000000000000000000000000000000",
"000000000000000000X955 00000000000000000000000000000000000000000",
"00000000000000000X955XX00000000000000000000000000000000000000000",
"0000000000000000X955XX000000000000000000000000000000000000000000",
"000000000000000XX55XX0000000000000000000000000000000000000000000",
"00000000000000X995XX00000000000000000000000000000000000000000000",
"0000000000000XX995X000000000000000000000000000000000000000000000",
"000000000000XX<95XX000000000000000000000000000000000000000000000",
"00000000000XX-<:XX0000000000000000000000000000000000000000000000",
"00000000000X=-*XX00000000000000000000000000000000000000000000000",
"0000000000X==+XX000000000000000000000000000000000000000000000000",
"0000000000XXXXX0000000000000000000000000000000000000000000000000",
"0000000000000000000000000000000000000000000000000000000000000000",
"0000000000000000000000000000000000000000000000000000000000000000",
"0000000000000000000000000000000000000000000000000000000000000000",
"0000000000000000000000000000000000000000000000000000000000000000",
"0000000000000000000000000000000000000000000000000000000000000000",
"0000000000000000000000000000000000000000000000000000000000000000",
"0000000000000000000000000000000000000000000000000000000000000000",
"0000000000000000000000000000000000000000000000000000000000000000"
};
