/* XPM */
static char *result[] = {
/* columns rows colors chars-per-pixel */
"64 64 65 1 ",
"  c black",
". c gray4",
"X c gray9",
"o c #1F1E1F",
"O c #242324",
"+ c gray16",
"@ c gray17",
"# c #3B383B",
"$ c #59021D",
"% c #750517",
"& c #690021",
"* c #690122",
"= c #780228",
"- c #7D0128",
"; c gray27",
": c #474647",
"> c gray36",
", c #615F61",
"< c gray45",
"1 c #8A0017",
"2 c #850419",
"3 c #9E001A",
"4 c #9C031D",
"5 c #8A032D",
"6 c #990030",
"7 c #A30336",
"8 c #A50537",
"9 c #AB0439",
"0 c #B00239",
"q c #B3003B",
"w c #B3043B",
"e c #BA043D",
"r c #BD043E",
"t c #C20020",
"y c #C7003F",
"u c #C90241",
"i c #D10142",
"p c #DE0046",
"a c #EB024C",
"s c #F5004E",
"d c #C9A904",
"f c #FFE252",
"g c #918E91",
"h c #9E999E",
"j c gray66",
"k c #ADAAAD",
"l c #B3AFB3",
"z c #D6BDAB",
"x c #D6BFB0",
"c c #E5C1BD",
"v c #F5D8BD",
"b c #FFBDD6",
"n c gray77",
"m c gray82",
"M c gray83",
"N c #EBD3C3",
"B c #EBD5C5",
"V c #EDD8CA",
"C c #FCC6D1",
"Z c #FAE8DC",
"A c #E6E6E6",
"S c #F7EFE9",
"D c #FFF5F8",
"F c white",
"G c #B5ECEC",
/* pixels */
"GGGGGGGGGGGGGGGGGGGGGGGGGGGGGGGGGGGGGGGGGGGGGGGGGGGGGGGGGGGGGGGG",
"GGGGGGGGGGGGGGGGGGGGGGGGGGGGGGGGGGGGGGGGGGGGGGGGGGGGGGGGGGGGGGGG",
"GGGGGGGGGGGGGGGGGGGGGGGGGGGGGGGGGGGGGGGGGGGGGGGGGGGGGGGGGGGGGGGG",
"GGGGGGGGGGGGGGGGGGGGGGGGGGGGGGGGGGGGGGGGGGGGGGGGGGGGGGGGGGGGGGGG",
"GGGGGGGGGGGGGGGGGGGGGGGGGGGGGGGGGGGGGGGGGGGGGGGGGGGGGGGGGGGGGGGG",
"GGGGGGGGGGGGGGGGGGGGGGGGGGGGGGGGGGGGGGGGGGGGGGGGGGGGGGGGGGGGGGGG",
"GGGGGGGGGGGGGGGGGGGGGGGGGGGGGGGGGGGGGGGGGGGGGGGGGGGGGGGGGGGGGGGG",
"GGGGGGGGGGGGGGGGGGGGGGGGGGGGGGGqqGGGGGGGGGGGGGGGGGGGGGGGGGGGGGGG",
"GGGGGGGGGGGGGGGGGGGGGjGGGGGGGGqGGqGGGGGGGGGGGGGGGGGGGGGGGGGGGGGG",
"GGGGGGGGGGGGGGGGGGGGjjGGGG-----q-q----GGGGGGGGGGGGGGGGGGGGGGGGGG",
"GGGGGGGGGGGGGGGGGGGjFjGGG--665555q66---GGGGGGGGGGGGGGGGGGGGGGGGG",
"GGGGGGGGGGGGGGGjGGjjFjGG--666555q5666----GGGGGGGGGGGGGGGGGGGGGGG",
"GGGGGGGGGGGGG66j66jAFj----65555q555566----6666666666GGGGGGGGGGGG",
"GGGGGGGGGGGG66$jj&jAFj--66r=========r6666--$$&&&&&$66GGGGGGGGGGG",
"GGGGGGGGGGGG666jAjjAA---6r==upwwwpu==r6666--6$$$$$666GGGGGGGGGGG",
"GGGGGGGGGGGG6s6jAFjj---6r55euupppuue555rr66-6666666smGGGGGGGGGGG",
"GGGGGGGGGGGG6psjjAFj--6r55CaeeuuueeaC595rr6--pssssyDmGGGGGGGGGGG",
"GGGGGGGGGGGG6yysjjj---6r5uuCa55eeeaCpu595r66-spppDDmmGGGGGGGGGGG",
"GGGGGGGGGGGG600yyy---6r596u885CCCaauuuu595r6-pyDmmm06GGGGGGGGGGG",
"GGGGGGGGGGGG660000-6rr55C6u8658uu68puuCp5rr6-yy000066GGGGGGGGGGG",
"GGGGGGGGGGGGG6666666rr596688658uu69ppCu955r6--666666GGGGGGGGGGGG",
"GGGGGGGGGGGGG6ypsss6r59i6uC5658u6659Cp65p5r6--ssspymGGGGGGGGGGGG",
"GGGGGGGGGGGGG60yppp659i66p95659u6V559pp6y5r6--pppyDmGGGGGGGGGGGG",
"GGGGGGGGGGGGG600yyy59555p95VV55p6VV559955y56--yyDm06GGGGGGGGGGGG",
"GGGGGGGGGGGGG660005955pp95   V596VV   595p56--600066GGGGGGGGGGGG",
"GGGGGGGGGGGGGG666655pyy955M  V555VSM  5555p5p666666GGGGGGGGGGGGG",
"GGGGGGGGGGGGGG6yps5555555    SV555S    V6y5566sspymGGGGGGGGGGGGG",
"GGGGGGGGGGGGGG60yyy676y6VS***SSSSSS***SV6y676yyyDm6GGGGGGGGGGGGG",
"GGGGGGGGGGGGGG66000676p6VbbSSSSSSSSSSbbV6p676000066GGGGGGGGGGGGG",
"GGGGGGGGGGGGGGG666667r6s6VSSSSSSSSSSSSV6s6r7666666GGGGGGGGGGGGGG",
"GGGGGGGGGGGGGGGGG6yp6r6666SSSSSccSSSSS6666r66py6GGGGGGGGGGGGGGGG",
"GGGGGGGGGGGGGGGGG666666GNSSSSSSSSSSSSSSNG666G666GGGGGGGGGGGGGGGG",
"GGGGGGGGGGGGGGGGGGG6G66GGNNNNNNNNNNNNNNGG66GG6GGGGGGGGGGGGGGGGGG",
"GGGGGGGGGGGGGGGGGGGGGGGGGGGGG222222GGGGGGGGGGGGGGGGGGGGGGGGGGGGG",
"GGGGGGGGGGGGGGGGGGGGGG:::::::gg2gggX::::::GGGGGGGGGGGGGGGGGGGGGG",
"GGGGGGGGGGGGGGGGGGGGGGG:3gg:ggg2222X:gg3:GGGGGGGGGGGGGGGGGGGGGGG",
"GGGGGGGGGGGGGGGGGGGGGGGG>tl>hdhhhdXg:lt>GGGGGGGGGGGGGGGGGGGGGGGG",
"GGGGGGGGGGGGGGGGGGGGGGGG::3>hlll+X3g:3::GGGGGGGGGGGGGGGGGGGGGGGG",
"GGGGGGGGGGGGGGGGGGGGGGGG:g>hlf++lf3gg:g:GGGGGGGGGGGGGGGGGGGGGGGG",
"GGGGGGGGGGGGGGGGGGGGGGGG:l>hl+lllh3gl>l:GGGGGGGGGGGGGGGGGGGGGGGG",
"GGGGGGGGGGGGGGGGGGGGGGG l>XX+hhhhh3glg:l GGGGGGGGGGGGGGGGGGGGGGG",
"GGGGGGGGGGGGGGGGGGGGGGG  ::::,,>>,,::::  GGGGGGGGGGGGGGGGGGGGGGG",
"GGGGGGGGGGGGGGGGGGGGGGG%o G  <<<<<<  G o%GGGGGGGGGGGGGGGGGGGGGGG",
"GGGGGGGGGGGGGGGGGGGGGG o3G @<l@ll@l<@ G3o GGGGGGGGGGGGGGGGGGGGGG",
"GGGGGGGGGGGGGGGGGGGGGxx  ;;<@@l@@l@@<;;  xxGGGGGGGGGGGGGGGGGGGGG",
"GGGGGGGGGGGGGGGGGGGGGxZS;;%%%%%%%%%%%%;;SZxGGGGGGGGGGGGGGGGGGGGG",
"GGGGGGGGGGGGGGGGGGGGGNNv%%%3%33%33%33%%%NNNGGGGGGGGGGGGGGGGGGGGG",
"GGGGGGGGGGGGGGGGGGGGGGG..>..>..>..>..>...GGGGGGGGGGGGGGGGGGGGGGG",
"GGGGGGGGGGGGGGGGGGGGGGGGGzBBBBzGGzBBBBzGGGGGGGGGGGGGGGGGGGGGGGGG",
"GGGGGGGGGGGGGGGGGGGGGGGGGNSSSSNGGNSSSSNGGGGGGGGGGGGGGGGGGGGGGGGG",
"GGGGGGGGGGGGGGGGGGGGGGGGG1tt441GG1tt441GGGGGGGGGGGGGGGGGGGGGGGGG",
"GGGGGGGGGGGGGGGGGGGGGGGGG      GG      GGGGGGGGGGGGGGGGGGGGGGGGG",
"GGGGGGGGGGGGGGGGGGGGGGGGG #nkO GG #nkO GGGGGGGGGGGGGGGGGGGGGGGGG",
"GGGGGGGGGGGGGGGGGGGGGGGGG n##k GG n##k GGGGGGGGGGGGGGGGGGGGGGGGG",
"GGGGGGGGGGGGGGGGGGGGGGGGG OOOO GG OOOO GGGGGGGGGGGGGGGGGGGGGGGGG",
"GGGGGGGGGGGGGGGGGGGGGGGGGG    GGGG    GGGGGGGGGGGGGGGGGGGGGGGGGG",
"GGGGGGGGGGGGGGGGGGGGGGGGGGGGGGGGGGGGGGGGGGGGGGGGGGGGGGGGGGGGGGGG",
"GGGGGGGGGGGGGGGGGGGGGGGGGGGGGGGGGGGGGGGGGGGGGGGGGGGGGGGGGGGGGGGG",
"GGGGGGGGGGGGGGGGGGGGGGGGGGGGGGGGGGGGGGGGGGGGGGGGGGGGGGGGGGGGGGGG",
"GGGGGGGGGGGGGGGGGGGGGGGGGGGGGGGGGGGGGGGGGGGGGGGGGGGGGGGGGGGGGGGG",
"GGGGGGGGGGGGGGGGGGGGGGGGGGGGGGGGGGGGGGGGGGGGGGGGGGGGGGGGGGGGGGGG",
"GGGGGGGGGGGGGGGGGGGGGGGGGGGGGGGGGGGGGGGGGGGGGGGGGGGGGGGGGGGGGGGG",
"GGGGGGGGGGGGGGGGGGGGGGGGGGGGGGGGGGGGGGGGGGGGGGGGGGGGGGGGGGGGGGGG",
"GGGGGGGGGGGGGGGGGGGGGGGGGGGGGGGGGGGGGGGGGGGGGGGGGGGGGGGGGGGGGGGG"
};
