/* XPM */
static char *a97cf5a24b1348df9bf60a1f1ac39800Frx9WxfbaDoqIroy[] = {
/* columns rows colors chars-per-pixel */
"64 64 60 1 ",
"  c black",
". c gray4",
"X c gray9",
"o c #1F1E1F",
"O c #242324",
"+ c gray17",
"@ c #3B383B",
"# c #59021D",
"$ c #750517",
"% c #690021",
"& c #780228",
"* c #7D0128",
"= c #474647",
"- c gray36",
"; c #615F61",
": c gray45",
"> c #8A0017",
", c #850419",
"< c #9E001A",
"1 c #9C031D",
"2 c #8A032D",
"3 c #990030",
"4 c #A30336",
"5 c #A50537",
"6 c #AB0439",
"7 c #B3003B",
"8 c #B3043B",
"9 c #BA043D",
"0 c #BD043E",
"q c #C20020",
"w c #C7003F",
"e c #C90241",
"r c #D10142",
"t c #DE0046",
"y c #EB024C",
"u c #F5004E",
"i c #C9A904",
"p c #FFE252",
"a c #918E91",
"s c #9E999E",
"d c gray66",
"f c #ADAAAD",
"g c #B3AFB3",
"h c #D6BDAB",
"j c #D6BFB0",
"k c #E5C1BD",
"l c #F5D8BD",
"z c #FFBDD6",
"x c #B5ECEC",
"c c gray77",
"v c gray82",
"b c #EBD3C3",
"n c #EBD5C5",
"m c #EDD8CA",
"M c #FCC6D1",
"N c #FAE8DC",
"B c #E6E6E6",
"V c #F7EFE9",
"C c #FFF5F8",
"Z c white",
/* pixels */
"xxxxxxxxxxxxxxxxxxxxxxxxxxxxxxxxxxxxxxxxxxxxxxxxxxxxxxxxxxxxxxxx",
"xxxxxxxxxxxxxxxxxxxxxxxxxxxxxxxxxxxxxxxxxxxxxxxxxxxxxxxxxxxxxxxx",
"xxxxxxxxxxxxxxxxxxxxxxxxxxxxxxxxxxxxxxxxxxxxxxxxxxxxxxxxxxxxxxxx",
"xxxxxxxxxxxxxxxxxxxxxxxxxxxxxxxxxxxxxxxxxxxxxxxxxxxxxxxxxxxxxxxx",
"xxxxxxxxxxxxxxxxxxxxxxxxxxxxxxxxxxxxxxxxxxxxxxxxxxxxxxxxxxxxxxxx",
"xxxxxxxxxxxxxxxxxxxxxxxxxxxxxxxxxxxxxxxxxxxxxxxxxxxxxxxxxxxxxxxx",
"xxxxxxxxxxxxxxxxxxxxxxxxxxxxxxxxxxxxxxxxxxxxxxxxxxxxxxxxxxxxxxxx",
"xxxxxxxxxxxxxxxxxxxxxxxxxxxxxxx77xxxxxxxxxxxxxxxxxxxxxxxxxxxxxxx",
"xxxxxxxxxxxxxxxxxxxxxxxxxxxxxx7xx7xxxxxxxxxxxxxxxxxxxxxxxxxxxxxx",
"xxxxxxxxxxxxxxxxxxxxxdxxxx*****7*7****xxxxxxxxxxxxxxxxxxxxxxxxxx",
"xxxxxxxxxxxxxxxxxxxxddxxx**332222733***xxxxxxxxxxxxxxxxxxxxxxxxx",
"xxxxxxxxxxxxxxxxxxxdZdxx**33322272333****xxxxxxxxxxxxxxxxxxxxxxx",
"xxxxxxxxxxxxxxxdxxddZd****322227222233****xxxxxxxxxxxxxxxxxxxxxx",
"xxxxxxxxxxxxx33d33dBZd**330&&&&&&&&&03333**333333333xxxxxxxxxxxx",
"xxxxxxxxxxxx33#dd%dBZ***30&&et888te&&03333**#%%%%%#33xxxxxxxxxxx",
"xxxxxxxxxxxx333dBddB***30229eetttee92220033*3#####333xxxxxxxxxxx",
"xxxxxxxxxxxx3u3dBZdd**3022My99eee99yM262003**333333uvxxxxxxxxxxx",
"xxxxxxxxxxxx3tuddBZ***302eeMy22999yMte262033*tuuuuwCvxxxxxxxxxxx",
"xxxxxxxxxxxx3wwuddd**30263e552MMMyyeeee26203*utttCCvvxxxxxxxxxxx",
"xxxxxxxxxxxx377www*30022M3e5325ee35teeMt2003*twCvvv73xxxxxxxxxxx",
"xxxxxxxxxxxx337777*300263355325ee36ttMe62203**w777733xxxxxxxxxxx",
"xxxxxxxxxxxxx3333333026r3eM2325e3326Mt32t203**333333xxxxxxxxxxxx",
"xxxxxxxxxxxxx3wtuuu326r33t62326e3m226tt3w203**uuutwvxxxxxxxxxxxx",
"xxxxxxxxxxxxx37wttt26222t62mm22t3mm226622w23**tttwCvxxxxxxxxxxxx",
"xxxxxxxxxxxxx377ww2622tt62mmmm263mmmmm262t23**wwCv73xxxxxxxxxxxx",
"xxxxxxxxxxxxx3377722tww622   m222mV   2222t2t3377733xxxxxxxxxxxx",
"xxxxxxxxxxxxxx33332222222    Vm222V    m3w223333333xxxxxxxxxxxxx",
"xxxxxxxxxxxxxx3wtuu343w3mV   VVVVVV   Vm3w343uuutwvxxxxxxxxxxxxx",
"xxxxxxxxxxxxxx37www343t3mzzVVVVVVVVVVzzm3t343wwwCv3xxxxxxxxxxxxx",
"xxxxxxxxxxxxxx337773403u3mVVVVVVVVVVVVm3u3043777733xxxxxxxxxxxxx",
"xxxxxxxxxxxxxxx33333303333VVVVVkkVVVVV333303333333xxxxxxxxxxxxxx",
"xxxxxxxxxxxxxxxxx3wtx33xbVVVVVVVVVVVVVVbx333xtw3xxxxxxxxxxxxxxxx",
"xxxxxxxxxxxxxxxxx333x33xxbbbbbbbbbbbbbbxx33xx333xxxxxxxxxxxxxxxx",
"xxxxxxxxxxxxxxxxxxx3xxxxxxxxx,,,,,,xxxxxxxxxx3xxxxxxxxxxxxxxxxxx",
"xxxxxxxxxxxxxxxxxxxxxx=======aa,aaaX======xxxxxxxxxxxxxxxxxxxxxx",
"xxxxxxxxxxxxxxxxxxxxxxx=<aa=aaa,,,,X=aa<=xxxxxxxxxxxxxxxxxxxxxxx",
"xxxxxxxxxx    xxxxxxxxxx-qg-sisssiXa=gq-xxxxxxxxxxxxxxxxxxxxxxxx",
"xxxxxxxxxx xx xxxxxxxxxx==<-sggg+X<a=<==xxxxxxxxxxxxxxxxxxxxxxxx",
"xxxxxxxxxx xx xx xxxxx x=a-sgp++gp<aa=a=xxxxxxxxxxxxxxxxxxxxxxxx",
"xxxxxxxxx  x  xx  xxx xx=g-sg+gggs<ag-g=xxxxxxxxxxxxxxxxxxxxxxxx",
"xxxxxxxxxxxxxxxx x xxxx g-XX+sssss<aga=g xxxxxxxxxxxxxxxxxxxxxxx",
"xxxxxxxxxxxxxxxx xxxxxx  ====;;--;;====  xxxxxxxxxxxxxxxxxxxxxxx",
"xxxxxxxxxxxxxx  xxxxxxx$o x  ::::::  x o$xxxxxxxxxxxxxxxxxxxxxxx",
"xxxxxxxxxxxxxx  xxxxxxxo<x +:g+gg+g:+ x<o xxxxxxxxxxxxxxxxxxxxxx",
"xxxxxxxxxxxxxxxxxxxxxjj  ==:++g++g++:==  jjxxxxxxxxxxxxxxxxxxxxx",
"xxxxxxxxxxxxxxxxxxxxxjNV==$$$$$$$$$$$$==VNjxxxxxxxxxxxxxxxxxxxxx",
"xxxxxxxxxxxxxxxxxxxxxbbl$$$<$<<$<<$<<$$$bbbxxxxxxxxxxxxxxxxxxxxx",
"xxxxxxxxxxxxxxxxxxxxxxx..-..-..-..-..-...xxxxxxxxxxxxxxxxxxxxxxx",
"xxxxxxxxxxxxxxxxxxxxxxxxxhnnnnhxxhnnnnhxxxxxxxxxxxxxxxxxxxxxxxxx",
"xxxxxxxxxxxxxxxxxxxxxxxxxbVVVVbxxbVVVVbxxxxxxxxxxxxxxxxxxxxxxxxx",
"xxxxxxxxxxxxxxxxxxxxxxxxx>qq11>xx>qq11>xxxxxxxxxxxxxxxxxxxxxxxxx",
"xxxxxxxxxxxxxxxxxxxxxxxxx      xx      xxxxxxxxxxxxxxxxxxxxxxxxx",
"xxxxxxxxxxxxxxxxxxxxxxxxx @cfO xx @cfO xxxxxxxxxxxxxxxxxxxxxxxxx",
"xxxxxxxxxxxxxxxxxxxxxxxxx c@@f xx c@@f xxxxxxxxxxxxxxxxxxxxxxxxx",
"xxxxxxxxxxxxxxxxxxxxxxxxx OOOO xx OOOO xxxxxxxxxxxxxxxxxxxxxxxxx",
"xxxxxxxxxxxxxxxxxxxxxxxxxx    xxxx    xxxxxxxxxxxxxxxxxxxxxxxxxx",
"xxxxxxxxxxxxxxxxxxxxxxxxxxxxxxxxxxxxxxxxxxxxxxxxxxxxxxxxxxxxxxxx",
"xxxxxxxxxxxxxxxxxxxxxxxxxxxxxxxxxxxxxxxxxxxxxxxxxxxxxxxxxxxxxxxx",
"xxxxxxxxxxxxxxxxxxxxxxxxxxxxxxxxxxxxxxxxxxxxxxxxxxxxxxxxxxxxxxxx",
"xxxxxxxxxxxxxxxxxxxxxxxxxxxxxxxxxxxxxxxxxxxxxxxxxxxxxxxxxxxxxxxx",
"xxxxxxxxxxxxxxxxxxxxxxxxxxxxxxxxxxxxxxxxxxxxxxxxxxxxxxxxxxxxxxxx",
"xxxxxxxxxxxxxxxxxxxxxxxxxxxxxxxxxxxxxxxxxxxxxxxxxxxxxxxxxxxxxxxx",
"xxxxxxxxxxxxxxxxxxxxxxxxxxxxxxxxxxxxxxxxxxxxxxxxxxxxxxxxxxxxxxxx",
"xxxxxxxxxxxxxxxxxxxxxxxxxxxxxxxxxxxxxxxxxxxxxxxxxxxxxxxxxxxxxxxx"
};
