/* XPM */
static char *ea8fb075f64c426a9dcdc0b2e6403c84FBUa4JOOgMwW22PZ[] = {
/* columns rows colors chars-per-pixel */
"64 64 61 1 ",
"  c black",
". c gray4",
"X c gray9",
"o c #1F1E1F",
"O c #242324",
"+ c gray17",
"@ c #3B383B",
"# c #59021D",
"$ c #750517",
"% c #690021",
"& c #780228",
"* c #7D0128",
"= c #474647",
"- c gray36",
"; c #615F61",
": c gray45",
"> c #8A0017",
", c #850419",
"< c #9E001A",
"1 c #9C031D",
"2 c #8A032D",
"3 c #990030",
"4 c #A30336",
"5 c #A50537",
"6 c #AB0439",
"7 c #B3003B",
"8 c #B3043B",
"9 c #BA043D",
"0 c #BD043E",
"q c #C20020",
"w c #C7003F",
"e c #C90241",
"r c #D10142",
"t c #DE0046",
"y c #EB024C",
"u c #F5004E",
"i c #C9A904",
"p c #FFE252",
"a c #918E91",
"s c #9E999E",
"d c gray66",
"f c #ADAAAD",
"g c #B3AFB3",
"h c #D6BDAB",
"j c #D6BFB0",
"k c #E5C1BD",
"l c #F5D8BD",
"z c #FFBDD6",
"x c #B5ECEC",
"c c gray77",
"v c gray82",
"b c gray83",
"n c #EBD3C3",
"m c #EBD5C5",
"M c #EDD8CA",
"N c #FCC6D1",
"B c #FAE8DC",
"V c #E6E6E6",
"C c #F7EFE9",
"Z c #FFF5F8",
"A c white",
/* pixels */
"xxxxxxxxxxxxxxxxxxxxxxxxxxxxxxxxxxxxxxxxxxxxxxxxxxxxxxxxxxxxxxxx",
"xxxxxxxxxxxxxxxxxxxxxxxxxxxxxxxxxxxxxxxxxxxxxxxxxxxxxxxxxxxxxxxx",
"xxxxxxxxxxxxxxxxxxxxxxxxxxxxxxxxxxxxxxxxxxxxxxxxxxxxxxxxxxxxxxxx",
"xxxxxxxxxxxxxxxxxxxxxxxxxxxxxxxxxxxxxxxxxxxxxxxxxxxxxxxxxxxxxxxx",
"xxxxxxxxxxxxxxxxxxxxxxxxxxxxxxxxxxxxxxxxxxxxxxxxxxxxxxxxxxxxxxxx",
"xxxxxxxxxxxxxxxxxxxxxxxxxxxxxxxxxxxxxxxxxxxxxxxxxxxxxxxxxxxxxxxx",
"xxxxxxxxxxxxxxxxxxxxxxxxxxxxxxxxxxxxxxxxxxxxxxxxxxxxxxxxxxxxxxxx",
"xxxxxxxxxxxxxxxxxxxxxxxxxxxxxxx77xxxxxxxxxxxxxxxxxxxxxxxxxxxxxxx",
"xxxxxxxxxxxxxxxxxxxxxdxxxxxxxx7xx7xxxxxxxxxxxxxxxxxxxxxxxxxxxxxx",
"xxxxxxxxxxxxxxxxxxxxddxxxx*****7*7****xxxxxxxxxxxxxxxxxxxxxxxxxx",
"xxxxxxxxxxxxxxxxxxxdAdxxx**332222733***xxxxxxxxxxxxxxxxxxxxxxxxx",
"xxxxxxxxxxxxxxxdxxddAdxx**33322272333****xxxxxxxxxxxxxxxxxxxxxxx",
"xxxxxxxxxxxxx33d33dVAd****322227222233****3333333333xxxxxxxxxxxx",
"xxxxxxxxxxxx33#dd%dVAd**330&&&&&&&&&03333**##%%%%%#33xxxxxxxxxxx",
"xxxxxxxxxxxx333dVddVV***30&&et888te&&03333**3#####333xxxxxxxxxxx",
"xxxxxxxxxxxx3u3dVAdd***30229eetttee92220033*3333333uvxxxxxxxxxxx",
"xxxxxxxxxxxx3tuddVAd**3022Ny99eee99yN262003**tuuuuwZvxxxxxxxxxxx",
"xxxxxxxxxxxx3wwuddd***302eeNy22999yNte262033*utttZZvvxxxxxxxxxxx",
"xxxxxxxxxxxx377www***30263e552NNNyyeeee26203*twZvvv73xxxxxxxxxxx",
"xxxxxxxxxxxx337777*30022N3e5325ee35teeNt2003*ww777733xxxxxxxxxxx",
"xxxxxxxxxxxxx333333300263355325ee36ttNe62203**333333xxxxxxxxxxxx",
"xxxxxxxxxxxxx3wtuuu3026r3eN2325e3326Nt32t203**uuutwvxxxxxxxxxxxx",
"xxxxxxxxxxxxx37wttt326r33t62326e3M226tt3w203**tttwZvxxxxxxxxxxxx",
"xxxxxxxxxxxxx377www26222t62MM22t3MM226622w23**wwZv73xxxxxxxxxxxx",
"xxxxxxxxxxxxx337772622tt62   M263MM   262t23**377733xxxxxxxxxxxx",
"xxxxxxxxxxxxxx333322tww622b  M222MCb  2222t2t333333xxxxxxxxxxxxx",
"xxxxxxxxxxxxxx3wtu2222222    CM222C    M3w2233uutwvxxxxxxxxxxxxx",
"xxxxxxxxxxxxxx37www343w3MC%%%CCCCCC%%%CM3w343wwwZv3xxxxxxxxxxxxx",
"xxxxxxxxxxxxxx33777343t3MzzCCCCCCCCCCzzM3t343777733xxxxxxxxxxxxx",
"xxxxxxxxxxxxxxx33333403u3MCCCCCCCCCCCCM3u304333333xxxxxxxxxxxxxx",
"xxxxxxxxxxxxxxxxx3wt303333CCCCCkkCCCCC3333033tw3xxxxxxxxxxxxxxxx",
"xxxxxxxxxxxxxxxxx333333xnCCCCCCCCCCCCCCnx333x333xxxxxxxxxxxxxxxx",
"xxxxxxxxxxxxxxxxxxx3x33xxnnnnnnnnnnnnnnxx33xx3xxxxxxxxxxxxxxxxxx",
"xxxxxxxxxxxxxxxxxxxxxxxxxxxxx,,,,,,xxxxxxxxxxxxxxxxxxxxxxxxxxxxx",
"xxxxxxxxxxxxxxxxxxxxxx=======aa,aaaX======xxxxxxxxxxxxxxxxxxxxxx",
"xxxxxxxxxxxxxxxxxxxxxxx=<aa=aaa,,,,X=aa<=xxxxxxxxxxxxxxxxxxxxxxx",
"xxxxxxxxxxxxxxxxxxxxxxxx-qg-sisssiXa=gq-xxxxxxxxxxxxxxxxxxxxxxxx",
"xxxxxxxxxxxxxxxxxxxxxxxx==<-sggg+X<a=<==xxxxxxxxxxxxxxxxxxxxxxxx",
"xxxxxxxxxxxxxxxxxxxxxxxx=a-sgp++gp<aa=a=xxxxxxxxxxxxxxxxxxxxxxxx",
"xxxxxxxxxxxxxxxxxxxxxxxx=g-sg+gggs<ag-g=xxxxxxxxxxxxxxxxxxxxxxxx",
"xxxxxxxxxxxxxxxxxxxxxxx g-XX+sssss<aga=g xxxxxxxxxxxxxxxxxxxxxxx",
"xxxxxxxxxxxxxxxxxxxxxxx  ====;;--;;====  xxxxxxxxxxxxxxxxxxxxxxx",
"xxxxxxxxxxxxxxxxxxxxxxx$o x  ::::::  x o$xxxxxxxxxxxxxxxxxxxxxxx",
"xxxxxxxxxxxxxxxxxxxxxx o<x +:g+gg+g:+ x<o xxxxxxxxxxxxxxxxxxxxxx",
"xxxxxxxxxxxxxxxxxxxxxjj  ==:++g++g++:==  jjxxxxxxxxxxxxxxxxxxxxx",
"xxxxxxxxxxxxxxxxxxxxxjBC==$$$$$$$$$$$$==CBjxxxxxxxxxxxxxxxxxxxxx",
"xxxxxxxxxxxxxxxxxxxxxnnl$$$<$<<$<<$<<$$$nnnxxxxxxxxxxxxxxxxxxxxx",
"xxxxxxxxxxxxxxxxxxxxxxx..-..-..-..-..-...xxxxxxxxxxxxxxxxxxxxxxx",
"xxxxxxxxxxxxxxxxxxxxxxxxxhmmmmhxxhmmmmhxxxxxxxxxxxxxxxxxxxxxxxxx",
"xxxxxxxxxxxxxxxxxxxxxxxxxnCCCCnxxnCCCCnxxxxxxxxxxxxxxxxxxxxxxxxx",
"xxxxxxxxxxxxxxxxxxxxxxxxx>qq11>xx>qq11>xxxxxxxxxxxxxxxxxxxxxxxxx",
"xxxxxxxxxxxxxxxxxxxxxxxxx      xx      xxxxxxxxxxxxxxxxxxxxxxxxx",
"xxxxxxxxxxxxxxxxxxxxxxxxx @cfO xx @cfO xxxxxxxxxxxxxxxxxxxxxxxxx",
"xxxxxxxxxxxxxxxxxxxxxxxxx c@@f xx c@@f xxxxxxxxxxxxxxxxxxxxxxxxx",
"xxxxxxxxxxxxxxxxxxxxxxxxx OOOO xx OOOO xxxxxxxxxxxxxxxxxxxxxxxxx",
"xxxxxxxxxxxxxxxxxxxxxxxxxx    xxxx    xxxxxxxxxxxxxxxxxxxxxxxxxx",
"xxxxxxxxxxxxxxxxxxxxxxxxxxxxxxxxxxxxxxxxxxxxxxxxxxxxxxxxxxxxxxxx",
"xxxxxxxxxxxxxxxxxxxxxxxxxxxxxxxxxxxxxxxxxxxxxxxxxxxxxxxxxxxxxxxx",
"xxxxxxxxxxxxxxxxxxxxxxxxxxxxxxxxxxxxxxxxxxxxxxxxxxxxxxxxxxxxxxxx",
"xxxxxxxxxxxxxxxxxxxxxxxxxxxxxxxxxxxxxxxxxxxxxxxxxxxxxxxxxxxxxxxx",
"xxxxxxxxxxxxxxxxxxxxxxxxxxxxxxxxxxxxxxxxxxxxxxxxxxxxxxxxxxxxxxxx",
"xxxxxxxxxxxxxxxxxxxxxxxxxxxxxxxxxxxxxxxxxxxxxxxxxxxxxxxxxxxxxxxx",
"xxxxxxxxxxxxxxxxxxxxxxxxxxxxxxxxxxxxxxxxxxxxxxxxxxxxxxxxxxxxxxxx",
"xxxxxxxxxxxxxxxxxxxxxxxxxxxxxxxxxxxxxxxxxxxxxxxxxxxxxxxxxxxxxxxx"
};
