/* XPM */
static char *result[] = {
/* columns rows colors chars-per-pixel */
"64 64 19 1 ",
"  c black",
". c #242324",
"X c gray23",
"o c #213657",
"O c #4A484A",
"+ c #595859",
"@ c gray39",
"# c #737273",
"$ c #4C73B5",
"% c #FC1CAA",
"& c #FF52C2",
"* c #FAF0B6",
"= c #FAB6EC",
"- c #E9B6FA",
"; c #ACE3DC",
": c #B6DCFA",
"> c #B6E7FA",
", c white",
"< c #B5ECEC",
/* pixels */
"<<<<<<<<<<<<<<<<<                                <<<<<<<<<<<<<<<",
"<<<<<<<<<<<<<<<< .@@..........................@@.  <<<<<<<<<<<<<",
"<<<<<<<<<<<<<<  .X       @@  @@@  @@@  @@       X.  <<<<<<<<<<<<",
"<<<<<<<<<<<<<<  X ;;;;;; @@  @@@@@@@@  @@ ;;;;;; X  <<<<<<<<<<<<",
"<<<<<<<<<<<<< ..X ;;;;;; @@@@@@@@@@@@@@@@ ;;;;;; X.. <<<<<<<<<<<",
"<<<<<<<<<<<<< ..X ;;;;;;                  ;;;;;; X.. <<<<<<<<<<<",
"<<<<<<<<<<<<< XX ;;;;;;;;;;;;;;;;;;;;;;;;;;;;;;;; XX <<<<<<<<<<<",
"<<<<<<<<<<<<< XX ;;;;;;;;;;;;;;;;;;;;;;;;;;;;;;;; XX <<<<<<<<<<<",
"<<<<<<<<<<<<< XX ;;;;;;;;;;;;;;;;;;;;;;;;;;;;;;;; XX <<<<<<<<<<<",
"<<<<<<<<<<<<< XX ;;;;;;;;;;;;;;;;;;;;;;;;;;;;;;;; XX <<<<<<<<<<<",
"<<<<<<<<<<<<< XX ;ooo;;ooo;;;;;;;;;;;;;;;;;;;;;;; XX <<<<<<<<<<<",
"<<<<<<<<<<<<< XX ;;;;;;ooo;;;;;;;;;;;;;;;;;;;;;;; XX <<<<<<<<<<<",
"<<<<<<<<<<<<< XX ;ooo;;;;;o;;;;ooooo;;ooooo;;oooo XX <<<<<<<<<<<",
"<<<<<<<<<<<<< XX ;;;;;;;;;;;;;;;;;;;;;;;;;;;;;;;; XX <<<<<<<<<<<",
"<<<<<<<<<<<<< XX oooooooooooooooooooooooooooooooo XX <<<<<<<<<<<",
"<<<<<<<<<<<<< OO ,,,,,,,,,,,,,,,,,,,,,,,,,,,,,,,, OO <<<<<<<<<<<",
"<<<<<<<<<<<<< OO ,,,,,,,,,,,,,,,,,,,,,,,,,,,,,,,, OO <<<<<<<<<<<",
"<<<<<<<<<<<<< OO ,,,,,,,,,,,,,,,,,,,,,,,,,,,,,,,, OO <<<<<<<<<<<",
"<<<<<<<<<<<<< OO ,,,,===----------------------,,, OO <<<<<<<<<<<",
"<<<<<<<<<<<<< OO ,,,,=====----------------====,,, OO <<<<<<<<<<<",
"<<<<<<<<<<<<< OO ,,,,=======-------------=====,,, OO <<<<<<<<<<<",
"<<<<<<<<<<<<< OO ,,,,=======-----------=====>>,,, OO <<<<<<<<<<<",
"<<<<<<<<<<<<< ++ ,,,,======-----------====>>>>,,, ++ <<<<<<<<<<<",
"<<<<<<<<<<<<< ++ ,,,,=====-----------====>>>>>,,, ++ <<<<<<<<<<<",
"<<<<<<<<<<<<< ++ ,,,,*====-------========>>>>>,,, ++ <<<<<<<<<<<",
"<<<<<<<<<<<<< ++ ,,,,**===------======>>>>>>>>,,, ++ <<<<<<<<<<<",
"<<<<<<<<<<<<< ++ ,,,,***===----:=====>>>>>>>>>,,, ++ <<<<<<<<<<<",
"<<<<<<<<<<<<< ++ ,,,,***===----:=====>>>>>>>>>,,, ++ <<<<<<<<<<<",
"<<<<<<<<<<<<< @@ ,,,,*****===:::====>>>>>>>>>>,,, @@ <<<<<<<<<<<",
"<<<<<<<<<<<<< @@ ,,,,******::::===-->>>>>>>>&&,,, @@ <<<<<<<<<<<",
"<<<<<<<<<<<<< @@ ,,,,******::====--->>>---&&&&,,, @@ <<<<<<<<<<<",
"<<<<<<<<<<<<< @@ ,,,,*****:::==:---->-->>--&&&,,, @@ <<<<<<<<<<<",
"<<<<<<<<<<<<< ## ,,,,***:::::::-------------&&,,, ## <<<<<<<<<<<",
"<<<<<<<<<<<<< ## ,,,,***::::::::::----------&&,,, ## <<<<<<<<<<<",
"<<<<<<<<<<<<< @@ ,,,,***::::::::::::::----&&&&,,, @@ <<<<<<<<<<<",
"<<<<<<<<<<<<< @@ ,,,,**::::::::::::::::::-----,,, @@ <<<<<<<<<<<",
"<<<<<<<<<<<<< @@ ,,,,:::::::%%%%%%%%%%%%%%&&&&,,, @@ <<<<<<<<<<<",
"<<<<<<<<<<<<< @@ ,,,,:::::::%%%%%%%%%%%%%%&&&&,,, @@ <<<<<<<<<<<",
"<<<<<<<<<<<<< @@ ,,,,:::::%%%$$$$$$$%%%%%%%&&&,,, @@ <<<<<<<<<<<",
"<<<<<<<<<<<<< ++ ,,,,,,,,,,,$,,,,,,,$,,,,,,,,,,,, ++ <<<<<<<<<<<",
"<<<<<<<<<<<<< ++ ,,,,,,,,,,$,,,$,,,,,$,,,,,,,,,,, ++ <<<<<<<<<<<",
"<<<<<<<<<<<<< ++ ;;;;;;;;;;$;;;$$;;;;$;;;;;;;;;;; ++ <<<<<<<<<<<",
"<<<<<<<<<<<<< ++ ;;;;;;;;;;$;;;$$$;;;$;;;;;;;;;;; ++ <<<<<<<<<<<",
"<<<<<<<<<<<<< ++ ;;;;;;;;;;$;;;$$;;;;$;;;;;;;;;;; ++ <<<<<<<<<<<",
"<<<<<<<<<<<<< OO ;;;;;;;;;;$;;;$;;;;;$;;;;;;;;;;; OO <<<<<<<<<<<",
"<<<<<<<<<<<<< OO ;;;;;;;;;;;$;;;;;;;$;;;;;;;;;;;; OO <<<<<<<<<<<",
"<<<<<<<<<<<<< OO ;;;;;;;;;;;;$$$$$$$;;;;;;;;;;;;; OO <<<<<<<<<<<",
"<<<<<<<<<<<<< OO ;;;;;;;;;;;;;;;;;;;;;;;;;;;;;;;; OO <<<<<<<<<<<",
"<<<<<<<<<<<<< OO ;;;;;;;;;;;;;;;;;;;;;;;;;;;;;;;; OO <<<<<<<<<<<",
"<<<<<<<<<<<<< OO ;oooooooooooooooooooooooooooooo; OO <<<<<<<<<<<",
"<<<<<<<<<<<<< OO ;;;;;;;;;;;;;;;;;;;;;;;;;;;;;;;; OO <<<<<<<<<<<",
"<<<<<<<<<<<<< XX ;;;;;;;;;;;;;;;;;;;;;;;;;;;;;;;; XX <<<<<<<<<<<",
"<<<<<<<<<<<<< XX ;;oo;o;;;;;;ooooooo;;;;;o;;;;o;; XX <<<<<<<<<<<",
"<<<<<<<<<<<<< XX ;oooooo;;;;;oo;;;oo;;;;;oooooo;; XX <<<<<<<<<<<",
"<<<<<<<<<<<<< XX ;;oooo;;;;;;;;;;ooo;;;;;;;o;;;;; XX <<<<<<<<<<<",
"<<<<<<<<<<<<< XX ;;;;o;;;;;;;oooo;;;;;;;;oooooo;; XX <<<<<<<<<<<",
"<<<<<<<<<<<<< XX ;;;;;;;;;;;;;;;;;;;;;;;;;;;;;;;; XX <<<<<<<<<<<",
"<<<<<<<<<<<<< XX ;;;;;;;;;;;;;;;;;;;;;;;;;;;;;;;; XX <<<<<<<<<<<",
"<<<<<<<<<<<<< ..X ;;;;;;;;;;;;;;;;;;;;;;;;;;;;;; X.. <<<<<<<<<<<",
"<<<<<<<<<<<<< ..X ;;;;;;;;;;;;;;;;;;;;;;;;;;;;;; X.. <<<<<<<<<<<",
"<<<<<<<<<<<<<<  X ;;;;;;;;;;;;;;;;;;;;;;;;;;;;;; X  <<<<<<<<<<<<",
"<<<<<<<<<<<<<<  .X                              X.  <<<<<<<<<<<<",
"<<<<<<<<<<<<<<<< .XXX........................XXX.  <<<<<<<<<<<<<",
"<<<<<<<<<<<<<<<<<                                <<<<<<<<<<<<<<<"
};
