/* XPM */
static char *result[] = {
/* columns rows colors chars-per-pixel */
"64 64 16 1 ",
"  c #BD046D",
". c #F72599",
"X c #F743A9",
"o c #F760AE",
"O c #F76CB4",
"+ c #FA6BB5",
"@ c #F976BA",
"# c #F77CBE",
"$ c #FC79BF",
"% c #FA87C6",
"& c #FA9DD0",
"* c #FAAFD8",
"= c #F8B6DA",
"- c #F7BCDD",
"; c #F8C0DF",
": c #F7C7E1",
/* pixels */
"OOOOoOo@ooo+oo+$ooo%o$o&o$o&o&o&.&o-o&o-o-o-o-o-o-+-o-&:o:*:&:-:",
"OOOOOoOooooooo+ooooooo+ooo+ooo%o.o&o$o&$%o&&&+-&&+---&----:-:-::",
"OOoOoOoOooooo+o+o$o+o%o%o%o%o&o&.&o&o-o-o-o-o-o-o-o-+:o:&:+:-:-:",
"OOOOOooooooooooooooooooooooo$o+o. +o&+&o&+&+-&-&-&-&--------:-::",
"OOOOoOo@ooo+ooo$o+o%o+o&o$o&o ..XX.  &o-o-o-o-o-o-+-o-&:o:-:+:-:",
"OOOOOoOooooooooooooooo+ooo$ooo$.X. ++o&+&o-&&+-&-+---&----:-:-::",
"OOoOoOoOo+ooo+o+o$o$o$o$o&o&o&o . o&o-o-o-o-o-o-o-o-o:o:&:&:*:*:",
"OOOoOooooooooooooooooooo+o+o+o+o.o$o&o&o&+&+&%&+-&-&------:-:-::",
"oOoOoOo@ooo+ooo$o+o$o$o&o$o&o&o&.&o-o&o-o-o-o-o-o-+-o-&:o:*:&:-:",
"OOOOOoOooooooooooooooo+ooo+ooo%o.o&+$o&$%o&%&+-&&+-*-&---*:-:-::",
"OOoOoOoOooooo+o+o$o+o%o%o%o%o&  . o&o-o-o-o-o-o-o-o-+:+:+:+:-:-:",
"OOOoOooooooooooooooooooo+ooo  ....   +&o&+&+-&-&-&-&------:-::::",
"oOoOoOo@ooo+ooo$o+o%o+o&o$o&o........   o-o-o-o-o-+:o-&:o:*:+:-:",
"OOOOoooooooooooooo+ooo+oo    ........ &+&o&&&+-&*+---&----:-:-::",
"OOoOoOooo+o+o+o+o$o$o$o   ..XXXXXXXX........o-o-o-o-+:o:&:&:*:*:",
"OOOoOooooooooooooooooooo+o XXXXXXXXXX.    &+&%&+-&-&----:-:-::::",
"oOoOoOo@ooo+ooo$o+o$       XXXXXXXXXX.o-o&o-o-+-o-+:o-&:o:*:&:-:",
"OOOooooooooooooooooooo+ ....XXXXXXXX.  $%o&%&+-&&+-*-&---*:-:-::",
"oOoOoOooo+ooo+o+o$o+o%o$o  ..XXXXX...   o-o-o-o-o-o-+:+:+:+:*:*:",
"OOOoOooooooooooooooooooo+oo   .XXX.   &+&+&+*&*&-&-&----:-:-::::",
"oOo@oOo@ooo+ooo$o+o%o+o&o$o&o% .X. -o&o-o-o-o-o-o-+:o-&:o:*:+:-:",
"OoOooooooooooooooo+ooo+ooo$ooo$ . &++o&+&o&&&+-&*+---&----:::-::",
"oOoOoOooo+o+o+o+o$o$o$o$o&o&o&o&.&o&o&o&o-o-o-o-o-o-+:o:&:&:*:*:",
"OOOooooooooooooooooooooo+o+o+o+o.o$o&+&o&+&+&$&+-&-&-*-*:-:-::::",
"oOoOoOo+ooo+o+o$o+o$o$o&o$o&o&o . o&o&o-o&o-o-+-o-+:o:&:o:&:&:::",
"OoOooooooooooooooooooo+ooo+o+o ... +$o&$$o&%&+-&&+-*-&:--*::::::",
"oOoOoOooo+ooo+o+o$o+o%o$o%o   ..XX.  -o-o-o-o-o-o-o-+:+:+:+:*:*:",
"OOOooooooooooooooooo+ooo+ooo$o XXX o&+&+&+&+&&*&-&-&----:-:-::::",
"oOo@ooo+ooo+ooo$o+o%o+o&o$o&  ..X.. o&o-o*o-o-o-o-+:o:&:o:*:+:::",
"OoOooooooooooooooo+ooo+ooo$ooo$ . &++o&+&o&&&+-&&+-*-&:--*::::::",
"oOoOoOooo+o+o+o+o$o$o$o$o&o%o&o&.&o&o&o&o-o-o-o-o-o:+:o:&:&:*:*:",
"OoOooooooooooooooooooooo+o+o+o  X  o&+&o&+&+&$&+-&-&-*-*:-:-::::",
"oOoOooo+ooo+o+o$o+o$o$o&o$o&o&o X o&o&o-o&o-o-+-o-+:o:&:o:&:&:::",
"OoOooooooooooooooooooo+ooo+o+   X    o&$$o&$&+-&&+-&-&:--*::::::",
"oOoOo@ooo+ooo+o+o$o+o%o$o%o%o&o&X&o&o&o*o-o-o-o-o-o:+:+:+:+:*:*:",
"Oooooooooooooooooooo+ooo+o+o$o+oXo+o&+&+&+&+&&&%-&-&-*-*:-:-::::",
"oOo@ooo+ooo+ooo$o+o%o+o&o$o&o% ... &o&o-o&o-o-o-o-+:o:&:o:*:+:::",
"OoOooooooooooooooo+ooo+ooo$ooo$o.o&++o&+%o&&&+-&&+-*-&:-:*::::::",
"oOoOooooo+o+o+o+o$o$o$o$o&o%o&o&.&o&o&o&o-o-o-o-o:o:+:+:&:&:*:*:",
"Ooooooooooooooooooooo           .            $&+-&-&-*-*:-::::::",
"oOoOooo+ooo+o+o$o+o$o$o& ...............X. -o-+-o-+:o:&:o:&:&:::",
"OoOooooooooooooooo+ooo+oo ..XXXXXXXXXX..  &$&+-&&+-&-&:-:*::::::",
"oOoOo+ooo+o+o+o+o$o+o%o$o%   ..XXXX...  o-o-o-o-o:o:+:+:+:+:*:;:",
"Oooooooooooooooooooo+ooo+o+o$ .XXX.. +&+&+&+&&&$-&-&-*:*:-::::::",
"oOo@ooo+ooo+ooo$o+o%o+o&o$o&o% XX o&o&o-o&o-o-+-o-+:o:&:+:*:+:::",
"OoOooooooooooooooo+ooo+ooo$o+ ..X.  +o&+%o&&&+-&&+-*-&:-:*::::::",
"oOoOooooo+o+o+o+o$o$o$o$o&o%o&o X o&o&o&o-o-o-o-o:o:+:+:&:+:&:;:",
"Oooooooooooooooooooooooo+o+o+o .X $o&+%+&+&+&$&+-&-&-*:*::::::::",
"oOo@ooo+ooo+o+o$o+o$o$o&o$   .XXXXX.   -o&o-o-+:o-+:o:&:o:&:+:::",
"oooooooooooooooooo+ooo+ooo+o+ .XXX. $o&$$o&$&+-&&+-&-&:::&::::::",
"oOooo+ooo+o+o+o+o$o+o%o$o%o%o& .X. &o&o&o-o-o-o-o:o:+:+:+:+:;:;:",
"Oooooooooooooooooooo+o+o+o+o$o+ . +o&+&+&+&+&&&$-&-&:*:*::::::::",
"oOo@ooo+ooo+o+o$o+o%o+o%o$o&o%o&.&o&o&o-o&o-o-+:o-+:o:&:+:&:+:::",
"oooooooooooooooooo+ooo+ooo$o+o$+.o&++o&+%+&&&+-&&+-*-&:::*::::::",
"oOooooooo+o+o+o+o$o$o$o$o%o%o&o . o&o&o&o-o-o-o-+:o:+:+:&:+:=:=:",
"Oooooooooooooooooooo+ooo+o+o+o ... o&+%+&+&+&$&+-&-&:&:&::::::::",
"oOo+ooo+ooo+o+o$o+o$o$o&o$o&o ..... o&o-o&o-o-+:o-+:o:&:o:&:+:::",
"oooooooooooooooooo+ooo+ooo  .....XX..  $$o&$&+-&&+-&-&:::&::::::",
"oOooo+o+o+o+o+o+o$o+o%o$o%o% .XXXXX. &o&o-o-o-o-o:o:+:+:+:+:;:;:",
"oooooooooooooooooooo+o+o+o+o$ .XXX. &+&+&+&+&%&$*&*&:*:*::::::::",
"oOo+ooo+ooo+o+o$o+o%o+o%o$o&o% .X. &o&o-o&o-o-+:o:+:o:+:+:=:+:::",
"oooooooooooooooooo+ooo+ooo$o+o$ . &++o&+%+&%&+-&&+:&-&:::;::::::",
"oOooo+ooo+o+o+o+o$o$o$o$o%o%o&o& &o&o&o&o-o-o-o-+:o:+:+:+:+:=:=:",
"oooooooooooooo+++++++++++++++++# +$o%+%+&+&+&$&+-&-&:&:&::::::::"
};
