/* XPM */
static char *result[] = {
/* columns rows colors chars-per-pixel */
"64 64 14 1 ",
"  c #0003A8",
". c #0008FF",
"X c #006DFF",
"o c #0071FF",
"O c #007CFF",
"+ c #00B09B",
"@ c #0ACFB4",
"# c #00A6FF",
"$ c #11F7D1",
"% c #4AF7DA",
"& c #45FFDD",
"* c #66FADF",
"= c #75FFE6",
"- c #96FFEC",
/* pixels */
"+-+-+-+-+=+=+=+=+&+=+&+&+&+&+&+&.$+&+%+*+%+*+*+*+*+*+*$*+*$-+-%-",
"-=-==&-==+=&&+=+++&+++&+++$+@+$+.+$+$+%$$+%$$+*$%+*%%$***$***%-*",
"+-+-+-+-+=+=+=+=+=+&+&+&+&+&+&+&.%+%+*+%+*+*+*+*+*+*+*+*+*+*$-@-",
"-=-=-==&=&=+=+&+&+&+&+++@+@+$+$+. $+$@$+$@$+%$%$%$%$*%*%*%*%****",
"+-&-+-+-+=+=+=+=+&+=+&+&+&+&+ ..oO.  %+*+%+*+*+*+*+*+*@*+*$-+-%-",
"-=-==+===+=&&+&+&+&+++&+++$+++$.O. @$+$$$+%$$+*$%@*%%$*%*%***%-*",
"=-+-+-+-+-+=+=+=+=+&+&+&+&+&+&+ . +%+%+%+*+*+*+*+*+*+*+*+*+*@-+-",
"-=-=-==&=&=+=+&+&+&+&+++@+@+$+$+.+$+$+$+$@$@%$%@*$*$*%*%*%*%****",
"+-+-+-+-+=+=+=+=+&+=+&+&+&+&+&+&.$+&+%+*+%+*+*+*+*+*+*$*+*$-+-%-",
"-=-==&-==+=&&+=+++&+++&+++$+@+$ .+$+$+%$$+%$$+*$%+*%*$***$***%-*",
"+-+-+-+-+=+=+=+=+=+&+&+&+&+&+&  . +%+*+*+*+*+*+*+*+*+*+*+*+*$-@-",
"-=-=-==&=&=+=+&+&+&+&+++@+@+  ....   @$+$@$+%$%$*$%$*%*%*%*%****",
"+-&-+-+-+=+=+=+=+&+=+&+&+&+&#........   +*+*+*+*+*+*+*@*+*$-+-%-",
"-=-==+===+=&&+&+&+&+++&++    ........ $$$+%$$+*$%@*%*$***%***%-*",
"=-+-+-+-+-+=+=+=+=+&+&+   ..OOOOOOOO........+*+*+*+*+*+*+*+*@-+-",
"-=-=-==&=&=+=+&+&+&+&+++@+ OOOOOOOOOO.    $@%$%@*$*$*%*%********",
"+-+-+-+-+=+=+=+=+&+=       OOOOOOOOOO..*+%+*+*+*+*+*+*$*+*$-+-%-",
"-=-==&-==+=&&+=+++&+++& ....OOOOOOOO.  $$+%$$+*$%+*%*$***$****-*",
"+-+-+-+-+=+=+=+=+=+&+&+&+  ..OOOOO...   +*+*+*+*+*+*+*+*+*+*$-@-",
"-=-=-==&=&=+=+&+&+&+&+++@+@   .OOO.   $+$@$+%$%$*$*$*%*%***%****",
"+-&-+-+-+=+=+=+=+&+=+&+&+&+&+$ .O. &+%+*+*+*+*+*+*+*+*@*+*$-+-%-",
"-=-==+===+=&&+&+&+&+++&+++$+++$ . $@$+$$$+%$$+*$%@*%*$***%****-*",
"=-+-+-+-+-+=+=+=+=+&+&+&+&+&+&+&.&+%+*+*+*+*+*+*+*+*+*+*+*+*@-+-",
"-=-=-==&=&=+=+&+&+&+&+++@+@+$+@+.+$+$+$+$@$@%$%@*$*$*%*%********",
"+-+-+-+-+=+=+=+=+&+=+&+&+&+&+&+ . +&+%+*+*+*+*+*+*+*+*@*+*$-+-*-",
"-=-==&-==+=&&+=&++&+++&+++$+@+ ... +$+$$$+%$$+*$%+*%*$***$****-*",
"+-+-+-+-+=+=+=+=+=+&+&+&+&+   ..OO.  *+*+*+*+*+*+*+*+*+*+*+*$-@-",
"-=-=-==&=&=+=+&+&+&+&+++@+++$+ OOO +$@$+$@$+*$*$*$*$*%*%********",
"+-&-+-+-+=+=+=+=+&+=+&+&+&+&  ..O.. +$+*+*+*+*+*+*+*+*@*+*$-+-%-",
"-=-==+===+=&&+&+&+&+++&+++&+++$ . $@$+$@$+*$$+*$%@*%*$***%****-*",
"=-+-+-+-+-+=+=+=+=+&+&+&+&+&+&+&.&+%+*+*+*+*+*+*+*+*+*+*+*+*@-+-",
"-=-=-==&=&=+=+&+&+&+&+++@+@+$+  O  +$+$+$@$@*$%@*$*$*%*%********",
"+-+-+-+-+=+=+=+=+&+=+&+&+&+&+&+ O +&+%+*+*+*+*+*+*+*+*@*+*$-+-*-",
"-=-==&-==+=&&+=&++&+++&+++$+@   O    +$$$+*$$+*$%+*%*$***$****-*",
"+-+-+-+-+=+=+=+=+=+&+&+&+&+&+&+&O&+$+*+*+*+*+*+*+*+*+*+*+*+*$-@-",
"-=-=-==&=&=+=+&+&+&+&+++@+++$+$+O+$+$+$+$@$+*$*$*$*$************",
"+-&-+-+-+=+=+=+=+&+=+&+&+&+&+$ ... &+$+*+*+*+*+*+*+*+*@*+*$-+-*-",
"-=-==&===+=&&+&+&+&+++&+++&+++$+.+$@$+$@$+*$$+*$*@***$***%****-*",
"=-+-+-+-+-+=+=+=+=+&+&+&+&+&+&+&.&+*+*+*+*+*+*+*+*+*+*+*+*+*@-+-",
"-=-=-==&=&=+=+&+&+&+&           .            $*@*$*$***%********",
"+-+-+-+-+=+=+=+=+&+=+&+& ...............O. *+*+*+*+*+*@*+*$-+-*-",
"-=-==&-==+=&&+=&&+&+++&++ ..OOOOOOOOOO..  *$$+*$$+***$***$****-*",
"+-+-+-+-+=+=+=+=+=+&+&+&+&   ..OOOOX..  **+*+*+*+*+*+*+*+*+*$-@-",
"-=-=-==&=&=+=+&+&+&+&+++@+++$ .OOO.. +$+$@$+*$*$*$*$************",
"+-&-+-+-+=+=+=+=+&+=+&+&+&+&+$ OO +&+*+*+*+*+*+*+*+*+*@*+*$-+-*-",
"-=-==&===+=&&+&+&+&+++&+++&++ ..O.  $+$@$+*$$+*$*@***$********-*",
"=-+-+-+-+-+=+=+=+=+&+&+&+&+&+&+ O +*+*+*+*+*+*+*+*+*+*+*+*+*@-+-",
"-=-=-==&=&=+=+&+&+&+&+++@+@+$+ .O $+$+$+$@$+*$*@*$*$************",
"+-+-+-+-+=+=+=+=+&+=+&+&+&   .OOOOO.   &+*+*+*+*+*+*+*@*+*@-+-*-",
"-=-==&-==+=&&+=&&+&+++&+++$+@ .OOO. $+*$$+*$$+*$*+***$***$****-*",
"+-+-+-+-+=+=+=+=+=+&+&+&+&+&+& .O. *+*+*+*+*+*+*+*+*+*+*+*+*$-@-",
"-=-=-==&=&=+=+&+&+&+&+++@+++$+$ . $+$+$+$@$+*$*$*$*$************",
"+-&-+-+-+=+=+=+=+&+=+&+&+&+&+$+&.$+&+*+*+*+*+*+*+*+*+*+*+**-+-*-",
"-=-==&===+=&&+&+&+&+++&+++&+++$+.+$@$+*@$+*$$+*$*@***$********-*",
"=-+-+-+-+-+=+=+=+=+&+&+&+&+&+&+ . @*+*+*+*+*+*+*+*+*+*+*+*+*@-+-",
"-=-=-==&=&=+=+&+&+&+&+++@+@+$+ ... @$+$+*@$+*$*@*$*$************",
"+-+-+-+-+=+=+=+=+&+=+&+&+&+&+ ..... @*+&+*+*+*+*+*+*+*@*+*@-+-*-",
"-=-==&-==+=&&+=&&+&+++&+++  .....OO..  $$+*$*+***+***$********-*",
"+-+-+-+-+=+=+=+=+=+&+&+&+&+& .OOOOO. *+*+*+*+*+*+*+*+*+*+*+**-*-",
"-=-=-==&=&=+=+&+&+&+&+++@+++$ .OOO. $+$+$@$+*$*$*$*$************",
"+-&-+-+-+=+=+=+=+&+=+&+&+&+&+& .O. &+*+*+*+*+*+*+*+*+*+*+**-+-*-",
"-=-==&===+=&&+&+&+&+++&+++&+++$ . $@$+*@$+*$$+***@***@********-*",
"=-+-+-+-+-+=+=+=+=+&+&+&+&+&+&+& &+*+*+*+*+*+*+*+*+*+*+*+*+**-+-",
"-=-=-==&=&=+=+&+&+&+&+++@+@+$+@+ +$+$+$+*@*+*$*@***$************"
};
